<?xml version="1.0" encoding="iso-8859-1"?>
<!DOCTYPE svg PUBLIC "-//W3C//DTD SVG 1.0//EN" "http://www.w3.org/TR/2001/REC-SVG-20010904/DTD/svg10.dtd">
<svg width="4096" height="256" xmlns="http://www.w3.org/2000/svg" xmlns:xlink="http://www.w3.org/1999/xlink" onload="init(evt)" onmousemove="msMove(evt)">
<path stroke="none" fill="black" d="M0,0 H4096 V256 H0 V0"/>
<path stroke="none" fill="#000040" d="M30,0 H330 V256 H30 V0"/>
<path stroke="none" fill="#400000" d="M0,0 H30 V256 H0 V0"/>
<path stroke="#404040" d="M0,0 H4096"/>
<path stroke="#404040" d="M0,32 H4096"/>
<path stroke="#404040" d="M0,64 H4096"/>
<path stroke="#404040" d="M0,96 H4096"/>
<path stroke="#404040" d="M0,128 H4096"/>
<path stroke="#404040" d="M0,160 H4096"/>
<path stroke="#404040" d="M0,192 H4096"/>
<path stroke="#404040" d="M0,224 H4096"/>
<path stroke="#404040" d="M0,256 H4096"/>
<path stroke="#404040" d="M0,0 V256"/>
<path stroke="#404040" d="M32,0 V256"/>
<path stroke="#404040" d="M64,0 V256"/>
<path stroke="#404040" d="M96,0 V256"/>
<path stroke="#404040" d="M128,0 V256"/>
<path stroke="#404040" d="M160,0 V256"/>
<path stroke="#404040" d="M192,0 V256"/>
<path stroke="#404040" d="M224,0 V256"/>
<path stroke="#404040" d="M256,0 V256"/>
<path stroke="#404040" d="M288,0 V256"/>
<path stroke="#404040" d="M320,0 V256"/>
<path stroke="#404040" d="M352,0 V256"/>
<path stroke="#404040" d="M384,0 V256"/>
<path stroke="#404040" d="M416,0 V256"/>
<path stroke="#404040" d="M448,0 V256"/>
<path stroke="#404040" d="M480,0 V256"/>
<path stroke="#404040" d="M512,0 V256"/>
<path stroke="#404040" d="M544,0 V256"/>
<path stroke="#404040" d="M576,0 V256"/>
<path stroke="#404040" d="M608,0 V256"/>
<path stroke="#404040" d="M640,0 V256"/>
<path stroke="#404040" d="M672,0 V256"/>
<path stroke="#404040" d="M704,0 V256"/>
<path stroke="#404040" d="M736,0 V256"/>
<path stroke="#404040" d="M768,0 V256"/>
<path stroke="#404040" d="M800,0 V256"/>
<path stroke="#404040" d="M832,0 V256"/>
<path stroke="#404040" d="M864,0 V256"/>
<path stroke="#404040" d="M896,0 V256"/>
<path stroke="#404040" d="M928,0 V256"/>
<path stroke="#404040" d="M960,0 V256"/>
<path stroke="#404040" d="M992,0 V256"/>
<path stroke="#404040" d="M1024,0 V256"/>
<path stroke="#404040" d="M1056,0 V256"/>
<path stroke="#404040" d="M1088,0 V256"/>
<path stroke="#404040" d="M1120,0 V256"/>
<path stroke="#404040" d="M1152,0 V256"/>
<path stroke="#404040" d="M1184,0 V256"/>
<path stroke="#404040" d="M1216,0 V256"/>
<path stroke="#404040" d="M1248,0 V256"/>
<path stroke="#404040" d="M1280,0 V256"/>
<path stroke="#404040" d="M1312,0 V256"/>
<path stroke="#404040" d="M1344,0 V256"/>
<path stroke="#404040" d="M1376,0 V256"/>
<path stroke="#404040" d="M1408,0 V256"/>
<path stroke="#404040" d="M1440,0 V256"/>
<path stroke="#404040" d="M1472,0 V256"/>
<path stroke="#404040" d="M1504,0 V256"/>
<path stroke="#404040" d="M1536,0 V256"/>
<path stroke="#404040" d="M1568,0 V256"/>
<path stroke="#404040" d="M1600,0 V256"/>
<path stroke="#404040" d="M1632,0 V256"/>
<path stroke="#404040" d="M1664,0 V256"/>
<path stroke="#404040" d="M1696,0 V256"/>
<path stroke="#404040" d="M1728,0 V256"/>
<path stroke="#404040" d="M1760,0 V256"/>
<path stroke="#404040" d="M1792,0 V256"/>
<path stroke="#404040" d="M1824,0 V256"/>
<path stroke="#404040" d="M1856,0 V256"/>
<path stroke="#404040" d="M1888,0 V256"/>
<path stroke="#404040" d="M1920,0 V256"/>
<path stroke="#404040" d="M1952,0 V256"/>
<path stroke="#404040" d="M1984,0 V256"/>
<path stroke="#404040" d="M2016,0 V256"/>
<path stroke="#404040" d="M2048,0 V256"/>
<path stroke="#404040" d="M2080,0 V256"/>
<path stroke="#404040" d="M2112,0 V256"/>
<path stroke="#404040" d="M2144,0 V256"/>
<path stroke="#404040" d="M2176,0 V256"/>
<path stroke="#404040" d="M2208,0 V256"/>
<path stroke="#404040" d="M2240,0 V256"/>
<path stroke="#404040" d="M2272,0 V256"/>
<path stroke="#404040" d="M2304,0 V256"/>
<path stroke="#404040" d="M2336,0 V256"/>
<path stroke="#404040" d="M2368,0 V256"/>
<path stroke="#404040" d="M2400,0 V256"/>
<path stroke="#404040" d="M2432,0 V256"/>
<path stroke="#404040" d="M2464,0 V256"/>
<path stroke="#404040" d="M2496,0 V256"/>
<path stroke="#404040" d="M2528,0 V256"/>
<path stroke="#404040" d="M2560,0 V256"/>
<path stroke="#404040" d="M2592,0 V256"/>
<path stroke="#404040" d="M2624,0 V256"/>
<path stroke="#404040" d="M2656,0 V256"/>
<path stroke="#404040" d="M2688,0 V256"/>
<path stroke="#404040" d="M2720,0 V256"/>
<path stroke="#404040" d="M2752,0 V256"/>
<path stroke="#404040" d="M2784,0 V256"/>
<path stroke="#404040" d="M2816,0 V256"/>
<path stroke="#404040" d="M2848,0 V256"/>
<path stroke="#404040" d="M2880,0 V256"/>
<path stroke="#404040" d="M2912,0 V256"/>
<path stroke="#404040" d="M2944,0 V256"/>
<path stroke="#404040" d="M2976,0 V256"/>
<path stroke="#404040" d="M3008,0 V256"/>
<path stroke="#404040" d="M3040,0 V256"/>
<path stroke="#404040" d="M3072,0 V256"/>
<path stroke="#404040" d="M3104,0 V256"/>
<path stroke="#404040" d="M3136,0 V256"/>
<path stroke="#404040" d="M3168,0 V256"/>
<path stroke="#404040" d="M3200,0 V256"/>
<path stroke="#404040" d="M3232,0 V256"/>
<path stroke="#404040" d="M3264,0 V256"/>
<path stroke="#404040" d="M3296,0 V256"/>
<path stroke="#404040" d="M3328,0 V256"/>
<path stroke="#404040" d="M3360,0 V256"/>
<path stroke="#404040" d="M3392,0 V256"/>
<path stroke="#404040" d="M3424,0 V256"/>
<path stroke="#404040" d="M3456,0 V256"/>
<path stroke="#404040" d="M3488,0 V256"/>
<path stroke="#404040" d="M3520,0 V256"/>
<path stroke="#404040" d="M3552,0 V256"/>
<path stroke="#404040" d="M3584,0 V256"/>
<path stroke="#404040" d="M3616,0 V256"/>
<path stroke="#404040" d="M3648,0 V256"/>
<path stroke="#404040" d="M3680,0 V256"/>
<path stroke="#404040" d="M3712,0 V256"/>
<path stroke="#404040" d="M3744,0 V256"/>
<path stroke="#404040" d="M3776,0 V256"/>
<path stroke="#404040" d="M3808,0 V256"/>
<path stroke="#404040" d="M3840,0 V256"/>
<path stroke="#404040" d="M3872,0 V256"/>
<path stroke="#404040" d="M3904,0 V256"/>
<path stroke="#404040" d="M3936,0 V256"/>
<path stroke="#404040" d="M3968,0 V256"/>
<path stroke="#404040" d="M4000,0 V256"/>
<path stroke="#404040" d="M4032,0 V256"/>
<path stroke="#404040" d="M4064,0 V256"/>
<path stroke="yellow" fill="none" stroke-width="1" d="M0,65 L1,40 L2,40 L3,39 L4,39 L5,40 L6,39 L7,39 L8,39 L9,39 L10,39 L11,39 L12,39 L13,40 L14,40 L15,40 L16,40 L17,38 L18,39 L19,38 L20,38 L21,38 L22,39 L23,39 L24,39 L25,39 L26,40 L27,39 L28,39 L29,39 L30,39 L31,39 L32,38 L33,39 L34,40 L35,39 L36,39 L37,39 L38,39 L39,39 L40,39 L41,39 L42,40 L43,39 L44,39 L45,39 L46,38 L47,38 L48,39 L49,39 L50,39 L51,40 L52,39 L53,39 L54,40 L55,39 L56,39 L57,39 L58,39 L59,39 L60,39 L61,39 L62,39 L63,39 L64,39 L65,39 L66,39 L67,39 L68,39 L69,39 L70,39 L71,39 L72,39 L73,39 L74,39 L75,38 L76,39 L77,39 L78,39 L79,39 L80,40 L81,39 L82,39 L83,38 L84,39 L85,39 L86,39 L87,39 L88,39 L89,39 L90,40 L91,39 L92,40 L93,40 L94,40 L95,39 L96,39 L97,39 L98,39 L99,38 L100,39 L101,39 L102,39 L103,38 L104,38 L105,39 L106,39 L107,39 L108,40 L109,39 L110,39 L111,39 L112,39 L113,39 L114,39 L115,39 L116,38 L117,39 L118,40 L119,39 L120,40 L121,39 L122,39 L123,39 L124,39 L125,38 L126,39 L127,39 L128,39 L129,40 L130,40 L131,41 L132,41 L133,43 L134,45 L135,47 L136,50 L137,53 L138,54 L139,57 L140,61 L141,64 L142,66 L143,69 L144,72 L145,75 L146,78 L147,80 L148,83 L149,84 L150,87 L151,89 L152,91 L153,94 L154,97 L155,98 L156,101 L157,102 L158,104 L159,106 L160,107 L161,109 L162,110 L163,112 L164,113 L165,115 L166,116 L167,117 L168,118 L169,119 L170,120 L171,121 L172,122 L173,123 L174,124 L175,124 L176,125 L177,126 L178,126 L179,127 L180,128 L181,129 L182,129 L183,130 L184,130 L185,130 L186,131 L187,132 L188,132 L189,132 L190,133 L191,133 L192,134 L193,134 L194,134 L195,134 L196,134 L197,135 L198,136 L199,136 L200,136 L201,136 L202,136 L203,136 L204,137 L205,137 L206,137 L207,138 L208,138 L209,138 L210,138 L211,138 L212,139 L213,139 L214,139 L215,139 L216,140 L217,139 L218,140 L219,140 L220,140 L221,141 L222,140 L223,140 L224,141 L225,141 L226,141 L227,141 L228,141 L229,141 L230,141 L231,141 L232,141 L233,142 L234,142 L235,142 L236,142 L237,142 L238,142 L239,142 L240,142 L241,142 L242,142 L243,142 L244,143 L245,143 L246,142 L247,143 L248,143 L249,143 L250,143 L251,143 L252,142 L253,141 L254,140 L255,138 L256,136 L257,133 L258,131 L259,129 L260,127 L261,125 L262,123 L263,121 L264,119 L265,117 L266,115 L267,113 L268,112 L269,110 L270,109 L271,108 L272,107 L273,105 L274,104 L275,102 L276,101 L277,101 L278,99 L279,99 L280,97 L281,96 L282,94 L283,94 L284,93 L285,92 L286,91 L287,90 L288,89 L289,88 L290,88 L291,87 L292,86 L293,85 L294,85 L295,84 L296,83 L297,83 L298,82 L299,81 L300,80 L301,80 L302,80 L303,79 L304,78 L305,78 L306,77 L307,77 L308,76 L309,76 L310,75 L311,75 L312,74 L313,74 L314,73 L315,73 L316,72 L317,72 L318,72 L319,71 L320,70 L321,70 L322,70 L323,69 L324,69 L325,69 L326,69 L327,68 L328,68 L329,68 L330,67 L331,67 L332,67 L333,66 L334,66 L335,66 L336,66 L337,65 L338,65 L339,64 L340,65 L341,64 L342,64 L343,64 L344,63 L345,64 L346,63 L347,62 L348,62 L349,62 L350,62 L351,62 L352,62 L353,62 L354,61 L355,61 L356,61 L357,61 L358,60 L359,60 L360,60 L361,60 L362,60 L363,60 L364,60 L365,59 L366,59 L367,59 L368,59 L369,59 L370,59 L371,58 L372,58 L373,58 L374,58 L375,58 L376,58 L377,57 L378,57 L379,57 L380,57 L381,57 L382,57 L383,57 L384,57 L385,56 L386,56 L387,56 L388,56 L389,56 L390,56 L391,56 L392,56 L393,56 L394,55 L395,55 L396,55 L397,55 L398,55 L399,55 L400,54 L401,54 L402,54 L403,54 L404,54 L405,54 L406,54 L407,54 L408,54 L409,54 L410,54 L411,53 L412,54 L413,54 L414,53 L415,53 L416,53 L417,53 L418,53 L419,53 L420,53 L421,53 L422,53 L423,52 L424,52 L425,53 L426,53 L427,52 L428,52 L429,52 L430,52 L431,52 L432,52 L433,52 L434,52 L435,52 L436,52 L437,52 L438,51 L439,51 L440,51 L441,51 L442,51 L443,51 L444,51 L445,51 L446,51 L447,51 L448,50 L449,51 L450,51 L451,51 L452,51 L453,51 L454,51 L455,51 L456,50 L457,50 L458,50 L459,50 L460,50 L461,50 L462,50 L463,50 L464,50 L465,49 L466,50 L467,50 L468,50 L469,50 L470,50 L471,50 L472,50 L473,50 L474,49 L475,49 L476,49 L477,49 L478,49 L479,49 L480,49 L481,49 L482,49 L483,49 L484,49 L485,49 L486,49 L487,49 L488,49 L489,49 L490,49 L491,49 L492,48 L493,49 L494,48 L495,48 L496,48 L497,48 L498,48 L499,48 L500,48 L501,48 L502,48 L503,48 L504,48 L505,48 L506,48 L507,48 L508,48 L509,48 L510,48 L511,48 L512,47 L513,48 L514,47 L515,48 L516,47 L517,47 L518,48 L519,47 L520,47 L521,47 L522,47 L523,47 L524,48 L525,48 L526,48 L527,47 L528,47 L529,47 L530,47 L531,46 L532,47 L533,47 L534,46 L535,47 L536,46 L537,46 L538,46 L539,47 L540,47 L541,47 L542,47 L543,46 L544,46 L545,46 L546,46 L547,46 L548,46 L549,46 L550,46 L551,46 L552,46 L553,46 L554,46 L555,46 L556,46 L557,46 L558,46 L559,46 L560,46 L561,46 L562,46 L563,46 L564,46 L565,46 L566,46 L567,46 L568,46 L569,46 L570,46 L571,46 L572,46 L573,46 L574,45 L575,46 L576,46 L577,46 L578,46 L579,46 L580,46 L581,46 L582,45 L583,46 L584,46 L585,46 L586,45 L587,45 L588,45 L589,45 L590,45 L591,45 L592,45 L593,45 L594,46 L595,45 L596,45 L597,45 L598,45 L599,45 L600,45 L601,45 L602,45 L603,45 L604,45 L605,45 L606,45 L607,45 L608,45 L609,45 L610,45 L611,45 L612,45 L613,45 L614,45 L615,45 L616,45 L617,45 L618,45 L619,45 L620,45 L621,45 L622,45 L623,45 L624,45 L625,44 L626,45 L627,45 L628,45 L629,45 L630,45 L631,45 L632,45 L633,44 L634,45 L635,44 L636,45 L637,45 L638,45 L639,45 L640,45 L641,45 L642,44 L643,44 L644,44 L645,45 L646,45 L647,45 L648,44 L649,44 L650,44 L651,44 L652,44 L653,44 L654,44 L655,44 L656,44 L657,44 L658,44 L659,44 L660,44 L661,44 L662,44 L663,44 L664,44 L665,44 L666,44 L667,44 L668,44 L669,44 L670,44 L671,44 L672,44 L673,44 L674,44 L675,44 L676,44 L677,44 L678,44 L679,44 L680,44 L681,44 L682,44 L683,44 L684,44 L685,44 L686,44 L687,44 L688,44 L689,44 L690,44 L691,44 L692,44 L693,44 L694,43 L695,44 L696,43 L697,44 L698,43 L699,44 L700,44 L701,43 L702,43 L703,43 L704,43 L705,44 L706,44 L707,44 L708,44 L709,43 L710,44 L711,43 L712,43 L713,43 L714,43 L715,43 L716,44 L717,43 L718,43 L719,43 L720,43 L721,43 L722,43 L723,43 L724,43 L725,44 L726,44 L727,44 L728,43 L729,43 L730,43 L731,43 L732,43 L733,43 L734,43 L735,43 L736,43 L737,43 L738,43 L739,43 L740,43 L741,43 L742,44 L743,43 L744,44 L745,43 L746,43 L747,43 L748,43 L749,43 L750,43 L751,43 L752,43 L753,43 L754,43 L755,43 L756,43 L757,43 L758,43 L759,43 L760,43 L761,43 L762,43 L763,43 L764,43 L765,43 L766,43 L767,42 L768,43 L769,43 L770,43 L771,42 L772,43 L773,42 L774,42 L775,43 L776,43 L777,43 L778,43 L779,43 L780,43 L781,43 L782,43 L783,43 L784,42 L785,43 L786,43 L787,43 L788,42 L789,42 L790,43 L791,42 L792,43 L793,43 L794,43 L795,43 L796,43 L797,43 L798,43 L799,42 L800,43 L801,42 L802,43 L803,42 L804,42 L805,42 L806,42 L807,42 L808,42 L809,42 L810,43 L811,43 L812,42 L813,42 L814,43 L815,42 L816,43 L817,43 L818,42 L819,42 L820,43 L821,43 L822,42 L823,42 L824,42 L825,43 L826,41 L827,42 L828,43 L829,42 L830,42 L831,43 L832,42 L833,43 L834,43 L835,43 L836,42 L837,42 L838,42 L839,42 L840,42 L841,42 L842,42 L843,42 L844,42 L845,42 L846,42 L847,42 L848,42 L849,42 L850,42 L851,42 L852,43 L853,42 L854,42 L855,43 L856,42 L857,42 L858,42 L859,42 L860,42 L861,43 L862,42 L863,42 L864,42 L865,42 L866,42 L867,42 L868,42 L869,41 L870,42 L871,42 L872,42 L873,42 L874,42 L875,42 L876,42 L877,42 L878,42 L879,42 L880,42 L881,42 L882,42 L883,41 L884,42 L885,42 L886,41 L887,42 L888,41 L889,42 L890,42 L891,42 L892,42 L893,42 L894,42 L895,42 L896,42 L897,42 L898,42 L899,42 L900,42 L901,42 L902,41 L903,42 L904,42 L905,42 L906,42 L907,41 L908,41 L909,41 L910,41 L911,42 L912,42 L913,42 L914,42 L915,42 L916,41 L917,41 L918,41 L919,41 L920,41 L921,42 L922,41 L923,42 L924,41 L925,41 L926,41 L927,41 L928,41 L929,41 L930,42 L931,42 L932,41 L933,42 L934,41 L935,41 L936,41 L937,41 L938,41 L939,42 L940,42 L941,41 L942,41 L943,41 L944,42 L945,41 L946,41 L947,41 L948,41 L949,41 L950,41 L951,41 L952,41 L953,41 L954,41 L955,42 L956,41 L957,42 L958,42 L959,42 L960,41 L961,41 L962,41 L963,41 L964,41 L965,41 L966,41 L967,41 L968,41 L969,41 L970,41 L971,41 L972,42 L973,41 L974,41 L975,42 L976,41 L977,41 L978,41 L979,41 L980,41 L981,41 L982,41 L983,41 L984,42 L985,42 L986,41 L987,41 L988,41 L989,41 L990,41 L991,41 L992,41 L993,41 L994,41 L995,41 L996,41 L997,41 L998,41 L999,41 L1000,41 L1001,41 L1002,41 L1003,41 L1004,41 L1005,41 L1006,41 L1007,41 L1008,41 L1009,41 L1010,41 L1011,42 L1012,41 L1013,41 L1014,41 L1015,41 L1016,41 L1017,41 L1018,41 L1019,41 L1020,41 L1021,41 L1022,41 L1023,41 L1024,41 L1025,41 L1026,41 L1027,41 L1028,41 L1029,41 L1030,41 L1031,41 L1032,41 L1033,41 L1034,41 L1035,41 L1036,41 L1037,41 L1038,41 L1039,41 L1040,41 L1041,41 L1042,41 L1043,41 L1044,41 L1045,41 L1046,41 L1047,41 L1048,41 L1049,41 L1050,41 L1051,41 L1052,41 L1053,41 L1054,41 L1055,41 L1056,41 L1057,41 L1058,41 L1059,41 L1060,41 L1061,41 L1062,41 L1063,41 L1064,41 L1065,41 L1066,41 L1067,41 L1068,41 L1069,41 L1070,41 L1071,41 L1072,41 L1073,41 L1074,41 L1075,41 L1076,41 L1077,41 L1078,41 L1079,41 L1080,41 L1081,41 L1082,41 L1083,41 L1084,41 L1085,41 L1086,41 L1087,41 L1088,41 L1089,41 L1090,41 L1091,41 L1092,41 L1093,41 L1094,41 L1095,41 L1096,41 L1097,41 L1098,41 L1099,40 L1100,41 L1101,41 L1102,41 L1103,41 L1104,41 L1105,41 L1106,41 L1107,41 L1108,41 L1109,41 L1110,41 L1111,41 L1112,41 L1113,41 L1114,41 L1115,41 L1116,41 L1117,41 L1118,41 L1119,41 L1120,41 L1121,41 L1122,41 L1123,41 L1124,41 L1125,41 L1126,41 L1127,41 L1128,41 L1129,41 L1130,41 L1131,41 L1132,41 L1133,41 L1134,40 L1135,40 L1136,41 L1137,40 L1138,41 L1139,41 L1140,41 L1141,40 L1142,40 L1143,41 L1144,41 L1145,41 L1146,41 L1147,40 L1148,41 L1149,41 L1150,41 L1151,41 L1152,41 L1153,41 L1154,41 L1155,41 L1156,41 L1157,40 L1158,41 L1159,40 L1160,40 L1161,40 L1162,40 L1163,41 L1164,41 L1165,41 L1166,41 L1167,41 L1168,41 L1169,41 L1170,41 L1171,41 L1172,41 L1173,41 L1174,41 L1175,41 L1176,41 L1177,40 L1178,41 L1179,40 L1180,40 L1181,41 L1182,40 L1183,41 L1184,41 L1185,41 L1186,41 L1187,41 L1188,41 L1189,40 L1190,41 L1191,41 L1192,41 L1193,40 L1194,40 L1195,41 L1196,40 L1197,40 L1198,41 L1199,41 L1200,41 L1201,41 L1202,41 L1203,41 L1204,41 L1205,41 L1206,40 L1207,41 L1208,40 L1209,41 L1210,41 L1211,41 L1212,41 L1213,41 L1214,40 L1215,40 L1216,40 L1217,40 L1218,40 L1219,40 L1220,41 L1221,41 L1222,41 L1223,41 L1224,41 L1225,41 L1226,41 L1227,41 L1228,41 L1229,41 L1230,41 L1231,40 L1232,40 L1233,41 L1234,40 L1235,41 L1236,40 L1237,41 L1238,41 L1239,40 L1240,41 L1241,40 L1242,41 L1243,40 L1244,41 L1245,41 L1246,41 L1247,41 L1248,41 L1249,41 L1250,40 L1251,41 L1252,41 L1253,40 L1254,40 L1255,40 L1256,40 L1257,40 L1258,40 L1259,40 L1260,40 L1261,41 L1262,40 L1263,41 L1264,40 L1265,40 L1266,41 L1267,41 L1268,41 L1269,40 L1270,41 L1271,40 L1272,40 L1273,40 L1274,40 L1275,41 L1276,40 L1277,40 L1278,41 L1279,40 L1280,40 L1281,40 L1282,40 L1283,41 L1284,40 L1285,41 L1286,40 L1287,40 L1288,41 L1289,40 L1290,40 L1291,40 L1292,41 L1293,41 L1294,40 L1295,40 L1296,40 L1297,40 L1298,40 L1299,41 L1300,41 L1301,40 L1302,41 L1303,41 L1304,41 L1305,41 L1306,40 L1307,40 L1308,41 L1309,40 L1310,40 L1311,40 L1312,40 L1313,40 L1314,40 L1315,40 L1316,40 L1317,40 L1318,40 L1319,40 L1320,41 L1321,40 L1322,41 L1323,41 L1324,40 L1325,40 L1326,40 L1327,40 L1328,41 L1329,40 L1330,40 L1331,40 L1332,40 L1333,40 L1334,40 L1335,40 L1336,40 L1337,40 L1338,40 L1339,41 L1340,40 L1341,41 L1342,40 L1343,40 L1344,40 L1345,40 L1346,40 L1347,40 L1348,40 L1349,40 L1350,40 L1351,40 L1352,40 L1353,40 L1354,40 L1355,40 L1356,40 L1357,40 L1358,40 L1359,40 L1360,40 L1361,40 L1362,40 L1363,40 L1364,40 L1365,41 L1366,40 L1367,40 L1368,40 L1369,40 L1370,40 L1371,40 L1372,40 L1373,40 L1374,40 L1375,40 L1376,40 L1377,40 L1378,40 L1379,40 L1380,40 L1381,40 L1382,40 L1383,40 L1384,40 L1385,40 L1386,40 L1387,40 L1388,40 L1389,40 L1390,40 L1391,40 L1392,40 L1393,40 L1394,40 L1395,40 L1396,40 L1397,40 L1398,40 L1399,40 L1400,40 L1401,40 L1402,40 L1403,40 L1404,40 L1405,40 L1406,40 L1407,40 L1408,40 L1409,40 L1410,40 L1411,40 L1412,40 L1413,40 L1414,40 L1415,40 L1416,40 L1417,40 L1418,40 L1419,40 L1420,40 L1421,41 L1422,40 L1423,40 L1424,40 L1425,40 L1426,40 L1427,40 L1428,40 L1429,40 L1430,40 L1431,40 L1432,40 L1433,40 L1434,40 L1435,40 L1436,40 L1437,40 L1438,40 L1439,40 L1440,40 L1441,40 L1442,40 L1443,40 L1444,40 L1445,40 L1446,40 L1447,40 L1448,40 L1449,40 L1450,40 L1451,40 L1452,40 L1453,40 L1454,40 L1455,40 L1456,40 L1457,40 L1458,40 L1459,40 L1460,40 L1461,40 L1462,40 L1463,40 L1464,40 L1465,40 L1466,40 L1467,40 L1468,40 L1469,40 L1470,40 L1471,41 L1472,40 L1473,40 L1474,40 L1475,40 L1476,40 L1477,40 L1478,40 L1479,40 L1480,40 L1481,40 L1482,40 L1483,40 L1484,40 L1485,40 L1486,40 L1487,40 L1488,40 L1489,40 L1490,40 L1491,40 L1492,40 L1493,40 L1494,40 L1495,40 L1496,40 L1497,40 L1498,40 L1499,40 L1500,40 L1501,40 L1502,40 L1503,40 L1504,40 L1505,40 L1506,40 L1507,40 L1508,40 L1509,40 L1510,40 L1511,40 L1512,40 L1513,40 L1514,40 L1515,40 L1516,39 L1517,40 L1518,40 L1519,40 L1520,40 L1521,40 L1522,40 L1523,40 L1524,40 L1525,40 L1526,40 L1527,40 L1528,40 L1529,40 L1530,40 L1531,40 L1532,40 L1533,40 L1534,40 L1535,40 L1536,40 L1537,40 L1538,40 L1539,40 L1540,40 L1541,40 L1542,40 L1543,40 L1544,40 L1545,40 L1546,40 L1547,40 L1548,40 L1549,40 L1550,40 L1551,40 L1552,40 L1553,40 L1554,40 L1555,40 L1556,40 L1557,40 L1558,40 L1559,40 L1560,40 L1561,39 L1562,40 L1563,40 L1564,40 L1565,40 L1566,40 L1567,40 L1568,40 L1569,40 L1570,40 L1571,40 L1572,40 L1573,39 L1574,40 L1575,40 L1576,40 L1577,40 L1578,40 L1579,40 L1580,40 L1581,40 L1582,40 L1583,40 L1584,40 L1585,40 L1586,40 L1587,40 L1588,40 L1589,40 L1590,40 L1591,40 L1592,40 L1593,40 L1594,40 L1595,40 L1596,40 L1597,40 L1598,40 L1599,40 L1600,40 L1601,40 L1602,40 L1603,40 L1604,40 L1605,40 L1606,40 L1607,40 L1608,40 L1609,40 L1610,40 L1611,39 L1612,40 L1613,40 L1614,40 L1615,40 L1616,40 L1617,40 L1618,40 L1619,40 L1620,40 L1621,40 L1622,40 L1623,40 L1624,40 L1625,40 L1626,40 L1627,40 L1628,40 L1629,40 L1630,40 L1631,40 L1632,40 L1633,40 L1634,40 L1635,40 L1636,40 L1637,40 L1638,40 L1639,40 L1640,40 L1641,40 L1642,40 L1643,40 L1644,40 L1645,40 L1646,40 L1647,40 L1648,40 L1649,40 L1650,40 L1651,40 L1652,40 L1653,40 L1654,39 L1655,39 L1656,40 L1657,40 L1658,40 L1659,40 L1660,40 L1661,40 L1662,40 L1663,40 L1664,40 L1665,40 L1666,40 L1667,40 L1668,40 L1669,40 L1670,40 L1671,40 L1672,40 L1673,39 L1674,39 L1675,40 L1676,40 L1677,40 L1678,40 L1679,40 L1680,39 L1681,40 L1682,40 L1683,40 L1684,40 L1685,40 L1686,40 L1687,40 L1688,40 L1689,40 L1690,40 L1691,40 L1692,40 L1693,40 L1694,40 L1695,40 L1696,40 L1697,40 L1698,39 L1699,39 L1700,39 L1701,40 L1702,40 L1703,40 L1704,40 L1705,40 L1706,40 L1707,39 L1708,40 L1709,40 L1710,39 L1711,40 L1712,40 L1713,40 L1714,40 L1715,39 L1716,40 L1717,40 L1718,40 L1719,40 L1720,40 L1721,40 L1722,40 L1723,40 L1724,40 L1725,40 L1726,40 L1727,40 L1728,40 L1729,39 L1730,40 L1731,40 L1732,40 L1733,40 L1734,39 L1735,40 L1736,39 L1737,39 L1738,40 L1739,40 L1740,40 L1741,40 L1742,40 L1743,40 L1744,40 L1745,40 L1746,39 L1747,40 L1748,40 L1749,40 L1750,40 L1751,39 L1752,40 L1753,40 L1754,40 L1755,40 L1756,40 L1757,40 L1758,40 L1759,40 L1760,40 L1761,40 L1762,40 L1763,40 L1764,40 L1765,40 L1766,40 L1767,39 L1768,40 L1769,40 L1770,40 L1771,39 L1772,40 L1773,39 L1774,40 L1775,40 L1776,40 L1777,39 L1778,40 L1779,40 L1780,40 L1781,40 L1782,39 L1783,40 L1784,40 L1785,40 L1786,40 L1787,40 L1788,40 L1789,39 L1790,39 L1791,40 L1792,39 L1793,40 L1794,40 L1795,40 L1796,40 L1797,40 L1798,40 L1799,40 L1800,40 L1801,39 L1802,39 L1803,40 L1804,40 L1805,40 L1806,40 L1807,39 L1808,39 L1809,39 L1810,39 L1811,40 L1812,40 L1813,40 L1814,39 L1815,40 L1816,39 L1817,39 L1818,40 L1819,40 L1820,40 L1821,39 L1822,40 L1823,40 L1824,39 L1825,40 L1826,39 L1827,40 L1828,39 L1829,39 L1830,40 L1831,40 L1832,39 L1833,40 L1834,39 L1835,39 L1836,40 L1837,39 L1838,39 L1839,40 L1840,40 L1841,40 L1842,40 L1843,40 L1844,40 L1845,39 L1846,39 L1847,39 L1848,40 L1849,40 L1850,40 L1851,39 L1852,39 L1853,39 L1854,39 L1855,39 L1856,40 L1857,40 L1858,40 L1859,40 L1860,39 L1861,40 L1862,40 L1863,40 L1864,39 L1865,40 L1866,40 L1867,40 L1868,40 L1869,39 L1870,40 L1871,39 L1872,39 L1873,39 L1874,39 L1875,39 L1876,40 L1877,40 L1878,40 L1879,40 L1880,40 L1881,40 L1882,40 L1883,40 L1884,40 L1885,40 L1886,40 L1887,39 L1888,39 L1889,39 L1890,40 L1891,39 L1892,40 L1893,40 L1894,40 L1895,39 L1896,40 L1897,40 L1898,40 L1899,40 L1900,40 L1901,39 L1902,39 L1903,40 L1904,40 L1905,40 L1906,38 L1907,39 L1908,39 L1909,39 L1910,39 L1911,39 L1912,40 L1913,40 L1914,40 L1915,40 L1916,39 L1917,40 L1918,40 L1919,40 L1920,40 L1921,40 L1922,40 L1923,40 L1924,39 L1925,39 L1926,40 L1927,39 L1928,39 L1929,39 L1930,40 L1931,40 L1932,39 L1933,40 L1934,39 L1935,39 L1936,40 L1937,40 L1938,39 L1939,39 L1940,40 L1941,39 L1942,40 L1943,39 L1944,39 L1945,39 L1946,39 L1947,40 L1948,40 L1949,40 L1950,39 L1951,39 L1952,39 L1953,39 L1954,39 L1955,40 L1956,40 L1957,40 L1958,40 L1959,40 L1960,39 L1961,39 L1962,40 L1963,39 L1964,39 L1965,39 L1966,39 L1967,39 L1968,40 L1969,39 L1970,39 L1971,39 L1972,39 L1973,40 L1974,40 L1975,39 L1976,40 L1977,40 L1978,40 L1979,39 L1980,40 L1981,39 L1982,39 L1983,40 L1984,39 L1985,40 L1986,39 L1987,39 L1988,39 L1989,39 L1990,39 L1991,39 L1992,39 L1993,40 L1994,40 L1995,40 L1996,40 L1997,39 L1998,39 L1999,39 L2000,40 L2001,40 L2002,39 L2003,40 L2004,40 L2005,39 L2006,39 L2007,39 L2008,39 L2009,39 L2010,40 L2011,40 L2012,40 L2013,40 L2014,40 L2015,39 L2016,40 L2017,39 L2018,40 L2019,39 L2020,40 L2021,39 L2022,40 L2023,39 L2024,39 L2025,39 L2026,40 L2027,39 L2028,39 L2029,39 L2030,40 L2031,39 L2032,40 L2033,39 L2034,39 L2035,39 L2036,39 L2037,39 L2038,40 L2039,40 L2040,40 L2041,40 L2042,40 L2043,39 L2044,38 L2045,39 L2046,39 L2047,39 L2048,40 L2049,40 L2050,39 L2051,39 L2052,39 L2053,39 L2054,40 L2055,39 L2056,39 L2057,39 L2058,39 L2059,40 L2060,39 L2061,40 L2062,39 L2063,39 L2064,39 L2065,39 L2066,39 L2067,40 L2068,39 L2069,39 L2070,39 L2071,39 L2072,39 L2073,39 L2074,39 L2075,40 L2076,40 L2077,40 L2078,39 L2079,40 L2080,39 L2081,39 L2082,39 L2083,39 L2084,39 L2085,39 L2086,39 L2087,39 L2088,39 L2089,40 L2090,39 L2091,39 L2092,40 L2093,39 L2094,39 L2095,39 L2096,39 L2097,39 L2098,39 L2099,39 L2100,40 L2101,39 L2102,39 L2103,39 L2104,39 L2105,40 L2106,40 L2107,39 L2108,39 L2109,39 L2110,38 L2111,39 L2112,39 L2113,38 L2114,39 L2115,39 L2116,39 L2117,39 L2118,39 L2119,39 L2120,39 L2121,39 L2122,40 L2123,39 L2124,39 L2125,40 L2126,39 L2127,39 L2128,39 L2129,39 L2130,39 L2131,39 L2132,39 L2133,39 L2134,40 L2135,40 L2136,39 L2137,39 L2138,39 L2139,38 L2140,39 L2141,40 L2142,39 L2143,40 L2144,39 L2145,39 L2146,40 L2147,39 L2148,39 L2149,39 L2150,39 L2151,38 L2152,39 L2153,39 L2154,39 L2155,39 L2156,39 L2157,39 L2158,39 L2159,39 L2160,40 L2161,39 L2162,39 L2163,40 L2164,40 L2165,39 L2166,39 L2167,39 L2168,38 L2169,40 L2170,39 L2171,40 L2172,39 L2173,39 L2174,39 L2175,39 L2176,40 L2177,39 L2178,39 L2179,39 L2180,39 L2181,39 L2182,40 L2183,39 L2184,39 L2185,40 L2186,39 L2187,39 L2188,40 L2189,39 L2190,39 L2191,39 L2192,39 L2193,39 L2194,39 L2195,39 L2196,39 L2197,38 L2198,39 L2199,39 L2200,39 L2201,40 L2202,39 L2203,39 L2204,39 L2205,39 L2206,39 L2207,39 L2208,40 L2209,39 L2210,40 L2211,39 L2212,40 L2213,39 L2214,39 L2215,39 L2216,39 L2217,39 L2218,39 L2219,40 L2220,39 L2221,39 L2222,39 L2223,39 L2224,39 L2225,38 L2226,38 L2227,39 L2228,39 L2229,39 L2230,39 L2231,40 L2232,40 L2233,39 L2234,39 L2235,39 L2236,40 L2237,39 L2238,40 L2239,39 L2240,39 L2241,39 L2242,39 L2243,39 L2244,39 L2245,39 L2246,39 L2247,39 L2248,39 L2249,40 L2250,39 L2251,39 L2252,39 L2253,39 L2254,40 L2255,39 L2256,40 L2257,40 L2258,40 L2259,39 L2260,39 L2261,39 L2262,39 L2263,39 L2264,39 L2265,39 L2266,39 L2267,39 L2268,40 L2269,40 L2270,39 L2271,38 L2272,39 L2273,39 L2274,40 L2275,39 L2276,39 L2277,40 L2278,40 L2279,40 L2280,39 L2281,39 L2282,39 L2283,39 L2284,38 L2285,39 L2286,39 L2287,39 L2288,39 L2289,39 L2290,39 L2291,39 L2292,39 L2293,39 L2294,39 L2295,40 L2296,39 L2297,39 L2298,39 L2299,39 L2300,39 L2301,39 L2302,39 L2303,40 L2304,40 L2305,39 L2306,40 L2307,39 L2308,39 L2309,39 L2310,39 L2311,39 L2312,39 L2313,39 L2314,39 L2315,39 L2316,40 L2317,39 L2318,39 L2319,39 L2320,39 L2321,39 L2322,39 L2323,39 L2324,39 L2325,39 L2326,39 L2327,39 L2328,39 L2329,39 L2330,39 L2331,39 L2332,39 L2333,38 L2334,39 L2335,39 L2336,38 L2337,38 L2338,38 L2339,39 L2340,40 L2341,39 L2342,39 L2343,39 L2344,39 L2345,39 L2346,39 L2347,39 L2348,39 L2349,39 L2350,39 L2351,39 L2352,38 L2353,38 L2354,39 L2355,39 L2356,40 L2357,39 L2358,38 L2359,38 L2360,39 L2361,39 L2362,39 L2363,39 L2364,39 L2365,40 L2366,39 L2367,39 L2368,39 L2369,39 L2370,39 L2371,38 L2372,39 L2373,39 L2374,38 L2375,39 L2376,39 L2377,38 L2378,39 L2379,39 L2380,39 L2381,39 L2382,40 L2383,39 L2384,40 L2385,40 L2386,39 L2387,38 L2388,39 L2389,40 L2390,39 L2391,39 L2392,40 L2393,39 L2394,39 L2395,39 L2396,39 L2397,39 L2398,38 L2399,39 L2400,39 L2401,39 L2402,39 L2403,39 L2404,39 L2405,39 L2406,39 L2407,38 L2408,39 L2409,39 L2410,39 L2411,39 L2412,40 L2413,39 L2414,38 L2415,39 L2416,39 L2417,38 L2418,39 L2419,39 L2420,39 L2421,40 L2422,40 L2423,39 L2424,38 L2425,38 L2426,39 L2427,39 L2428,39 L2429,39 L2430,39 L2431,40 L2432,40 L2433,39 L2434,39 L2435,39 L2436,39 L2437,39 L2438,39 L2439,39 L2440,39 L2441,39 L2442,39 L2443,39 L2444,38 L2445,39 L2446,39 L2447,39 L2448,39 L2449,39 L2450,39 L2451,39 L2452,40 L2453,39 L2454,38 L2455,38 L2456,39 L2457,39 L2458,39 L2459,39 L2460,40 L2461,39 L2462,38 L2463,39 L2464,39 L2465,39 L2466,38 L2467,39 L2468,39 L2469,38 L2470,39 L2471,39 L2472,38 L2473,39 L2474,39 L2475,39 L2476,39 L2477,39 L2478,39 L2479,39 L2480,38 L2481,38 L2482,39 L2483,39 L2484,38 L2485,38 L2486,39 L2487,39 L2488,39 L2489,39 L2490,39 L2491,38 L2492,38 L2493,39 L2494,39 L2495,39 L2496,39 L2497,40 L2498,39 L2499,38 L2500,39 L2501,38 L2502,38 L2503,39 L2504,39 L2505,39 L2506,39 L2507,39 L2508,38 L2509,38 L2510,39 L2511,39 L2512,39 L2513,39 L2514,40 L2515,39 L2516,40 L2517,39 L2518,38 L2519,39 L2520,39 L2521,38 L2522,38 L2523,39 L2524,39 L2525,38 L2526,38 L2527,39 L2528,39 L2529,39 L2530,40 L2531,41 L2532,41 L2533,43 L2534,44 L2535,46 L2536,49 L2537,51 L2538,54 L2539,56 L2540,60 L2541,63 L2542,65 L2543,68 L2544,71 L2545,73 L2546,77 L2547,79 L2548,82 L2549,85 L2550,86 L2551,89 L2552,91 L2553,93 L2554,96 L2555,97 L2556,99 L2557,101 L2558,104 L2559,105 L2560,107 L2561,108 L2562,110 L2563,111 L2564,113 L2565,114 L2566,115 L2567,117 L2568,117 L2569,118 L2570,120 L2571,120 L2572,121 L2573,123 L2574,123 L2575,124 L2576,125 L2577,126 L2578,126 L2579,127 L2580,128 L2581,128 L2582,129 L2583,129 L2584,130 L2585,130 L2586,131 L2587,131 L2588,131 L2589,132 L2590,132 L2591,133 L2592,133 L2593,133 L2594,134 L2595,134 L2596,135 L2597,134 L2598,135 L2599,136 L2600,136 L2601,136 L2602,136 L2603,136 L2604,137 L2605,137 L2606,137 L2607,137 L2608,137 L2609,137 L2610,138 L2611,138 L2612,139 L2613,139 L2614,139 L2615,139 L2616,139 L2617,139 L2618,139 L2619,140 L2620,140 L2621,140 L2622,140 L2623,140 L2624,141 L2625,141 L2626,141 L2627,141 L2628,141 L2629,141 L2630,141 L2631,141 L2632,141 L2633,141 L2634,141 L2635,142 L2636,142 L2637,142 L2638,142 L2639,142 L2640,142 L2641,142 L2642,142 L2643,142 L2644,142 L2645,142 L2646,142 L2647,142 L2648,142 L2649,143 L2650,143 L2651,143 L2652,143 L2653,142 L2654,141 L2655,138 L2656,136 L2657,134 L2658,132 L2659,129 L2660,128 L2661,126 L2662,123 L2663,121 L2664,120 L2665,118 L2666,116 L2667,114 L2668,113 L2669,111 L2670,109 L2671,108 L2672,107 L2673,105 L2674,104 L2675,103 L2676,101 L2677,101 L2678,99 L2679,98 L2680,97 L2681,96 L2682,95 L2683,94 L2684,93 L2685,92 L2686,91 L2687,90 L2688,89 L2689,88 L2690,88 L2691,87 L2692,86 L2693,85 L2694,85 L2695,84 L2696,83 L2697,83 L2698,82 L2699,81 L2700,81 L2701,80 L2702,80 L2703,79 L2704,78 L2705,78 L2706,77 L2707,77 L2708,76 L2709,76 L2710,75 L2711,75 L2712,74 L2713,74 L2714,73 L2715,73 L2716,72 L2717,72 L2718,72 L2719,71 L2720,71 L2721,70 L2722,70 L2723,70 L2724,69 L2725,69 L2726,69 L2727,69 L2728,68 L2729,68 L2730,68 L2731,67 L2732,67 L2733,66 L2734,66 L2735,66 L2736,66 L2737,65 L2738,65 L2739,65 L2740,65 L2741,65 L2742,64 L2743,64 L2744,64 L2745,64 L2746,64 L2747,63 L2748,62 L2749,62 L2750,62 L2751,62 L2752,62 L2753,61 L2754,61 L2755,61 L2756,61 L2757,61 L2758,61 L2759,60 L2760,60 L2761,60 L2762,60 L2763,60 L2764,60 L2765,60 L2766,60 L2767,60 L2768,59 L2769,59 L2770,59 L2771,58 L2772,58 L2773,58 L2774,58 L2775,57 L2776,57 L2777,57 L2778,57 L2779,57 L2780,57 L2781,57 L2782,57 L2783,57 L2784,57 L2785,57 L2786,56 L2787,57 L2788,57 L2789,56 L2790,56 L2791,56 L2792,56 L2793,56 L2794,56 L2795,55 L2796,55 L2797,55 L2798,54 L2799,54 L2800,54 L2801,54 L2802,54 L2803,54 L2804,54 L2805,54 L2806,54 L2807,54 L2808,54 L2809,54 L2810,54 L2811,54 L2812,54 L2813,54 L2814,53 L2815,53 L2816,53 L2817,53 L2818,53 L2819,53 L2820,53 L2821,53 L2822,53 L2823,53 L2824,53 L2825,53 L2826,53 L2827,52 L2828,52 L2829,52 L2830,52 L2831,52 L2832,52 L2833,52 L2834,52 L2835,52 L2836,52 L2837,52 L2838,52 L2839,51 L2840,51 L2841,52 L2842,51 L2843,51 L2844,51 L2845,51 L2846,51 L2847,51 L2848,51 L2849,51 L2850,51 L2851,51 L2852,50 L2853,51 L2854,51 L2855,50 L2856,50 L2857,50 L2858,50 L2859,51 L2860,50 L2861,50 L2862,50 L2863,50 L2864,50 L2865,50 L2866,50 L2867,50 L2868,49 L2869,50 L2870,50 L2871,50 L2872,50 L2873,49 L2874,49 L2875,49 L2876,49 L2877,49 L2878,49 L2879,49 L2880,49 L2881,49 L2882,49 L2883,49 L2884,49 L2885,49 L2886,49 L2887,49 L2888,49 L2889,49 L2890,49 L2891,49 L2892,48 L2893,48 L2894,49 L2895,49 L2896,49 L2897,49 L2898,49 L2899,49 L2900,48 L2901,48 L2902,48 L2903,48 L2904,48 L2905,48 L2906,48 L2907,48 L2908,48 L2909,48 L2910,48 L2911,48 L2912,48 L2913,48 L2914,48 L2915,48 L2916,48 L2917,48 L2918,48 L2919,48 L2920,47 L2921,46 L2922,47 L2923,47 L2924,47 L2925,47 L2926,47 L2927,47 L2928,47 L2929,47 L2930,46 L2931,47 L2932,47 L2933,46 L2934,47 L2935,46 L2936,47 L2937,47 L2938,46 L2939,46 L2940,46 L2941,46 L2942,46 L2943,46 L2944,46 L2945,46 L2946,46 L2947,46 L2948,46 L2949,46 L2950,47 L2951,46 L2952,47 L2953,46 L2954,46 L2955,46 L2956,46 L2957,46 L2958,46 L2959,46 L2960,46 L2961,46 L2962,46 L2963,46 L2964,46 L2965,46 L2966,46 L2967,46 L2968,46 L2969,46 L2970,46 L2971,46 L2972,46 L2973,46 L2974,46 L2975,46 L2976,46 L2977,45 L2978,45 L2979,46 L2980,46 L2981,46 L2982,46 L2983,46 L2984,45 L2985,45 L2986,46 L2987,45 L2988,45 L2989,45 L2990,45 L2991,45 L2992,45 L2993,45 L2994,45 L2995,45 L2996,45 L2997,45 L2998,45 L2999,45 L3000,45 L3001,45 L3002,45 L3003,45 L3004,45 L3005,45 L3006,45 L3007,45 L3008,45 L3009,45 L3010,45 L3011,45 L3012,45 L3013,45 L3014,45 L3015,45 L3016,45 L3017,45 L3018,45 L3019,45 L3020,45 L3021,45 L3022,45 L3023,45 L3024,44 L3025,45 L3026,45 L3027,44 L3028,45 L3029,45 L3030,45 L3031,45 L3032,45 L3033,45 L3034,45 L3035,44 L3036,45 L3037,45 L3038,44 L3039,45 L3040,44 L3041,45 L3042,44 L3043,44 L3044,45 L3045,44 L3046,44 L3047,44 L3048,44 L3049,45 L3050,44 L3051,44 L3052,44 L3053,44 L3054,44 L3055,44 L3056,44 L3057,44 L3058,44 L3059,44 L3060,44 L3061,44 L3062,44 L3063,44 L3064,44 L3065,44 L3066,44 L3067,44 L3068,44 L3069,44 L3070,44 L3071,44 L3072,44 L3073,44 L3074,44 L3075,44 L3076,44 L3077,44 L3078,44 L3079,44 L3080,44 L3081,44 L3082,44 L3083,44 L3084,44 L3085,44 L3086,44 L3087,44 L3088,44 L3089,44 L3090,44 L3091,44 L3092,43 L3093,44 L3094,44 L3095,44 L3096,44 L3097,44 L3098,44 L3099,43 L3100,43 L3101,43 L3102,44 L3103,44 L3104,44 L3105,44 L3106,44 L3107,44 L3108,44 L3109,43 L3110,43 L3111,43 L3112,43 L3113,43 L3114,43 L3115,43 L3116,43 L3117,43 L3118,43 L3119,43 L3120,44 L3121,43 L3122,43 L3123,43 L3124,44 L3125,43 L3126,43 L3127,43 L3128,43 L3129,43 L3130,44 L3131,43 L3132,43 L3133,43 L3134,43 L3135,43 L3136,43 L3137,43 L3138,43 L3139,43 L3140,43 L3141,43 L3142,43 L3143,43 L3144,43 L3145,43 L3146,43 L3147,43 L3148,43 L3149,44 L3150,44 L3151,44 L3152,43 L3153,43 L3154,43 L3155,43 L3156,43 L3157,43 L3158,43 L3159,43 L3160,43 L3161,43 L3162,43 L3163,43 L3164,43 L3165,43 L3166,43 L3167,43 L3168,43 L3169,43 L3170,43 L3171,43 L3172,43 L3173,43 L3174,43 L3175,43 L3176,43 L3177,43 L3178,43 L3179,43 L3180,43 L3181,42 L3182,43 L3183,43 L3184,43 L3185,43 L3186,43 L3187,43 L3188,43 L3189,43 L3190,42 L3191,43 L3192,42 L3193,42 L3194,42 L3195,43 L3196,42 L3197,43 L3198,42 L3199,42 L3200,42 L3201,43 L3202,43 L3203,43 L3204,43 L3205,43 L3206,42 L3207,43 L3208,42 L3209,42 L3210,42 L3211,43 L3212,42 L3213,42 L3214,42 L3215,42 L3216,42 L3217,42 L3218,42 L3219,42 L3220,43 L3221,42 L3222,43 L3223,42 L3224,43 L3225,42 L3226,42 L3227,42 L3228,42 L3229,42 L3230,42 L3231,42 L3232,42 L3233,42 L3234,42 L3235,42 L3236,42 L3237,42 L3238,42 L3239,42 L3240,42 L3241,43 L3242,43 L3243,43 L3244,43 L3245,43 L3246,42 L3247,42 L3248,42 L3249,42 L3250,42 L3251,42 L3252,42 L3253,42 L3254,42 L3255,42 L3256,42 L3257,42 L3258,42 L3259,42 L3260,42 L3261,42 L3262,42 L3263,43 L3264,42 L3265,42 L3266,42 L3267,42 L3268,42 L3269,42 L3270,42 L3271,42 L3272,42 L3273,42 L3274,42 L3275,42 L3276,42 L3277,42 L3278,42 L3279,42 L3280,42 L3281,42 L3282,42 L3283,42 L3284,42 L3285,42 L3286,42 L3287,42 L3288,42 L3289,42 L3290,42 L3291,42 L3292,41 L3293,42 L3294,42 L3295,42 L3296,42 L3297,42 L3298,42 L3299,42 L3300,42 L3301,42 L3302,42 L3303,41 L3304,42 L3305,42 L3306,42 L3307,41 L3308,41 L3309,41 L3310,41 L3311,41 L3312,42 L3313,41 L3314,41 L3315,42 L3316,41 L3317,42 L3318,42 L3319,41 L3320,41 L3321,41 L3322,41 L3323,42 L3324,42 L3325,41 L3326,42 L3327,41 L3328,42 L3329,41 L3330,41 L3331,42 L3332,42 L3333,41 L3334,41 L3335,41 L3336,41 L3337,42 L3338,41 L3339,42 L3340,42 L3341,42 L3342,42 L3343,42 L3344,41 L3345,41 L3346,42 L3347,41 L3348,41 L3349,41 L3350,41 L3351,41 L3352,41 L3353,41 L3354,41 L3355,41 L3356,42 L3357,41 L3358,41 L3359,42 L3360,41 L3361,42 L3362,41 L3363,41 L3364,41 L3365,41 L3366,42 L3367,42 L3368,41 L3369,41 L3370,41 L3371,41 L3372,41 L3373,41 L3374,41 L3375,41 L3376,41 L3377,41 L3378,42 L3379,41 L3380,41 L3381,41 L3382,41 L3383,41 L3384,41 L3385,41 L3386,41 L3387,41 L3388,41 L3389,41 L3390,41 L3391,41 L3392,41 L3393,41 L3394,41 L3395,41 L3396,41 L3397,41 L3398,41 L3399,41 L3400,41 L3401,41 L3402,41 L3403,41 L3404,42 L3405,41 L3406,41 L3407,41 L3408,41 L3409,41 L3410,41 L3411,41 L3412,41 L3413,41 L3414,41 L3415,41 L3416,41 L3417,41 L3418,41 L3419,41 L3420,41 L3421,41 L3422,41 L3423,42 L3424,41 L3425,41 L3426,41 L3427,41 L3428,41 L3429,41 L3430,41 L3431,41 L3432,41 L3433,41 L3434,41 L3435,41 L3436,41 L3437,41 L3438,41 L3439,41 L3440,41 L3441,41 L3442,41 L3443,41 L3444,41 L3445,41 L3446,41 L3447,41 L3448,41 L3449,41 L3450,41 L3451,41 L3452,41 L3453,41 L3454,41 L3455,41 L3456,41 L3457,41 L3458,41 L3459,41 L3460,41 L3461,41 L3462,41 L3463,41 L3464,41 L3465,41 L3466,41 L3467,41 L3468,41 L3469,41 L3470,41 L3471,41 L3472,41 L3473,41 L3474,41 L3475,41 L3476,41 L3477,41 L3478,41 L3479,41 L3480,41 L3481,41 L3482,41 L3483,41 L3484,41 L3485,41 L3486,41 L3487,41 L3488,41 L3489,41 L3490,41 L3491,41 L3492,41 L3493,41 L3494,41 L3495,41 L3496,41 L3497,41 L3498,41 L3499,41 L3500,41 L3501,41 L3502,41 L3503,41 L3504,41 L3505,41 L3506,41 L3507,41 L3508,41 L3509,41 L3510,41 L3511,41 L3512,41 L3513,41 L3514,41 L3515,41 L3516,41 L3517,41 L3518,41 L3519,41 L3520,41 L3521,41 L3522,41 L3523,41 L3524,41 L3525,41 L3526,41 L3527,41 L3528,41 L3529,41 L3530,41 L3531,41 L3532,41 L3533,41 L3534,41 L3535,41 L3536,41 L3537,41 L3538,41 L3539,41 L3540,41 L3541,41 L3542,41 L3543,41 L3544,41 L3545,41 L3546,41 L3547,41 L3548,41 L3549,41 L3550,41 L3551,41 L3552,41 L3553,41 L3554,41 L3555,40 L3556,40 L3557,41 L3558,41 L3559,41 L3560,41 L3561,41 L3562,41 L3563,41 L3564,41 L3565,41 L3566,41 L3567,41 L3568,41 L3569,41 L3570,41 L3571,41 L3572,41 L3573,41 L3574,41 L3575,41 L3576,41 L3577,41 L3578,41 L3579,41 L3580,41 L3581,41 L3582,41 L3583,41 L3584,40 L3585,41 L3586,41 L3587,41 L3588,41 L3589,41 L3590,41 L3591,41 L3592,40 L3593,41 L3594,41 L3595,41 L3596,41 L3597,41 L3598,40 L3599,41 L3600,41 L3601,41 L3602,41 L3603,41 L3604,41 L3605,41 L3606,41 L3607,41 L3608,41 L3609,40 L3610,40 L3611,40 L3612,40 L3613,40 L3614,41 L3615,40 L3616,41 L3617,41 L3618,41 L3619,41 L3620,41 L3621,40 L3622,41 L3623,41 L3624,41 L3625,41 L3626,41 L3627,40 L3628,41 L3629,41 L3630,40 L3631,41 L3632,40 L3633,40 L3634,40 L3635,40 L3636,41 L3637,40 L3638,40 L3639,40 L3640,41 L3641,41 L3642,41 L3643,41 L3644,41 L3645,41 L3646,40 L3647,40 L3648,40 L3649,40 L3650,41 L3651,40 L3652,41 L3653,41 L3654,40 L3655,40 L3656,40 L3657,41 L3658,41 L3659,40 L3660,41 L3661,40 L3662,40 L3663,40 L3664,40 L3665,40 L3666,41 L3667,40 L3668,40 L3669,40 L3670,40 L3671,41 L3672,40 L3673,40 L3674,40 L3675,41 L3676,41 L3677,40 L3678,41 L3679,41 L3680,41 L3681,40 L3682,40 L3683,40 L3684,40 L3685,40 L3686,40 L3687,40 L3688,40 L3689,40 L3690,40 L3691,40 L3692,40 L3693,41 L3694,40 L3695,41 L3696,41 L3697,40 L3698,41 L3699,40 L3700,40 L3701,40 L3702,40 L3703,40 L3704,40 L3705,40 L3706,40 L3707,40 L3708,40 L3709,40 L3710,40 L3711,40 L3712,41 L3713,41 L3714,40 L3715,41 L3716,40 L3717,40 L3718,40 L3719,40 L3720,40 L3721,40 L3722,41 L3723,41 L3724,40 L3725,40 L3726,40 L3727,40 L3728,40 L3729,40 L3730,40 L3731,40 L3732,40 L3733,40 L3734,40 L3735,40 L3736,41 L3737,40 L3738,40 L3739,41 L3740,40 L3741,41 L3742,40 L3743,40 L3744,41 L3745,40 L3746,40 L3747,40 L3748,40 L3749,41 L3750,40 L3751,41 L3752,40 L3753,40 L3754,41 L3755,41 L3756,40 L3757,40 L3758,40 L3759,40 L3760,40 L3761,40 L3762,40 L3763,40 L3764,40 L3765,40 L3766,40 L3767,40 L3768,41 L3769,40 L3770,40 L3771,40 L3772,40 L3773,40 L3774,40 L3775,40 L3776,40 L3777,40 L3778,40 L3779,40 L3780,41 L3781,40 L3782,40 L3783,40 L3784,40 L3785,40 L3786,40 L3787,40 L3788,40 L3789,40 L3790,40 L3791,40 L3792,40 L3793,40 L3794,40 L3795,41 L3796,40 L3797,40 L3798,40 L3799,40 L3800,40 L3801,40 L3802,40 L3803,40 L3804,40 L3805,40 L3806,40 L3807,40 L3808,40 L3809,40 L3810,40 L3811,40 L3812,40 L3813,40 L3814,40 L3815,40 L3816,40 L3817,40 L3818,40 L3819,40 L3820,40 L3821,40 L3822,40 L3823,40 L3824,40 L3825,40 L3826,40 L3827,40 L3828,40 L3829,40 L3830,40 L3831,40 L3832,40 L3833,40 L3834,40 L3835,40 L3836,40 L3837,40 L3838,40 L3839,40 L3840,40 L3841,40 L3842,40 L3843,40 L3844,40 L3845,40 L3846,40 L3847,40 L3848,40 L3849,40 L3850,40 L3851,40 L3852,40 L3853,40 L3854,40 L3855,40 L3856,40 L3857,40 L3858,40 L3859,40 L3860,40 L3861,40 L3862,40 L3863,40 L3864,40 L3865,40 L3866,40 L3867,40 L3868,40 L3869,40 L3870,40 L3871,40 L3872,40 L3873,40 L3874,40 L3875,40 L3876,40 L3877,40 L3878,40 L3879,40 L3880,40 L3881,40 L3882,40 L3883,40 L3884,40 L3885,40 L3886,40 L3887,40 L3888,40 L3889,40 L3890,40 L3891,40 L3892,40 L3893,40 L3894,40 L3895,40 L3896,40 L3897,40 L3898,40 L3899,40 L3900,40 L3901,40 L3902,40 L3903,40 L3904,40 L3905,40 L3906,40 L3907,40 L3908,40 L3909,40 L3910,40 L3911,40 L3912,40 L3913,40 L3914,40 L3915,40 L3916,40 L3917,40 L3918,40 L3919,40 L3920,40 L3921,40 L3922,40 L3923,40 L3924,40 L3925,40 L3926,40 L3927,40 L3928,40 L3929,40 L3930,40 L3931,40 L3932,40 L3933,40 L3934,40 L3935,40 L3936,40 L3937,40 L3938,40 L3939,40 L3940,40 L3941,40 L3942,40 L3943,40 L3944,40 L3945,40 L3946,40 L3947,40 L3948,40 L3949,40 L3950,40 L3951,40 L3952,40 L3953,40 L3954,40 L3955,40 L3956,40 L3957,40 L3958,40 L3959,40 L3960,40 L3961,40 L3962,40 L3963,40 L3964,40 L3965,40 L3966,40 L3967,40 L3968,40 L3969,40 L3970,40 L3971,40 L3972,40 L3973,40 L3974,40 L3975,40 L3976,40 L3977,40 L3978,40 L3979,40 L3980,40 L3981,40 L3982,40 L3983,40 L3984,40 L3985,40 L3986,40 L3987,39 L3988,40 L3989,40 L3990,40 L3991,40 L3992,40 L3993,39 L3994,40 L3995,40 L3996,40 L3997,40 L3998,40 L3999,40 L4000,40 L4001,40 L4002,40 L4003,40 L4004,40 L4005,40 L4006,40 L4007,40 L4008,40 L4009,40 L4010,40 L4011,40 L4012,39 L4013,40 L4014,40 L4015,40 L4016,40 L4017,40 L4018,39 L4019,40 L4020,40 L4021,40 L4022,40 L4023,40 L4024,40 L4025,40 L4026,40 L4027,40 L4028,40 L4029,40 L4030,40 L4031,39 L4032,39 L4033,39 L4034,40 L4035,40 L4036,40 L4037,40 L4038,40 L4039,40 L4040,40 L4041,40 L4042,40 L4043,40 L4044,40 L4045,40 L4046,40 L4047,40 L4048,39 L4049,40 L4050,39 L4051,40 L4052,40 L4053,40 L4054,40 L4055,40 L4056,40 L4057,40 L4058,39 L4059,40 L4060,40 L4061,40 L4062,40 L4063,40 L4064,40 L4065,40 L4066,40 L4067,40 L4068,39 L4069,40 L4070,40 L4071,39 L4072,40 L4073,40 L4074,40 L4075,40 L4076,40 L4077,40 L4078,40 L4079,40 L4080,40 L4081,40 L4082,40 L4083,40 L4084,40 L4085,40 L4086,40 L4087,39 L4088,40 L4089,39 L4090,40 L4091,40 L4092,39 L4093,40 L4094,40 L4095,40 "/>
<path stroke="cyan" fill="none" stroke-width="1" d="M0,211 L1,210 L2,211 L3,209 L4,211 L5,210 L6,210 L7,211 L8,210 L9,209 L10,208 L11,211 L12,211 L13,209 L14,211 L15,210 L16,211 L17,211 L18,211 L19,211 L20,209 L21,211 L22,211 L23,209 L24,211 L25,211 L26,211 L27,211 L28,211 L29,211 L30,211 L31,211 L32,211 L33,211 L34,211 L35,211 L36,211 L37,211 L38,209 L39,211 L40,211 L41,211 L42,211 L43,211 L44,211 L45,211 L46,209 L47,209 L48,211 L49,209 L50,211 L51,211 L52,210 L53,210 L54,211 L55,211 L56,210 L57,210 L58,210 L59,211 L60,211 L61,211 L62,211 L63,211 L64,211 L65,211 L66,210 L67,211 L68,211 L69,211 L70,210 L71,210 L72,209 L73,211 L74,209 L75,211 L76,209 L77,211 L78,211 L79,210 L80,212 L81,210 L82,211 L83,209 L84,209 L85,208 L86,209 L87,211 L88,211 L89,210 L90,210 L91,210 L92,211 L93,211 L94,211 L95,211 L96,210 L97,211 L98,211 L99,211 L100,209 L101,211 L102,211 L103,211 L104,209 L105,209 L106,211 L107,210 L108,211 L109,210 L110,211 L111,211 L112,211 L113,211 L114,211 L115,211 L116,211 L117,210 L118,210 L119,210 L120,211 L121,211 L122,211 L123,211 L124,209 L125,211 L126,208 L127,207 L128,207 L129,204 L130,201 L131,199 L132,192 L133,185 L134,179 L135,170 L136,165 L137,160 L138,155 L139,151 L140,148 L141,142 L142,141 L143,140 L144,139 L145,136 L146,134 L147,135 L148,130 L149,131 L150,129 L151,129 L152,126 L153,127 L154,125 L155,124 L156,124 L157,123 L158,121 L159,120 L160,118 L161,120 L162,118 L163,117 L164,119 L165,119 L166,119 L167,116 L168,117 L169,116 L170,116 L171,116 L172,116 L173,116 L174,116 L175,116 L176,114 L177,116 L178,116 L179,114 L180,116 L181,116 L182,116 L183,114 L184,114 L185,114 L186,114 L187,114 L188,115 L189,115 L190,114 L191,114 L192,116 L193,117 L194,114 L195,116 L196,114 L197,114 L198,116 L199,116 L200,116 L201,116 L202,115 L203,115 L204,114 L205,116 L206,116 L207,116 L208,114 L209,114 L210,116 L211,115 L212,114 L213,114 L214,114 L215,114 L216,115 L217,114 L218,116 L219,114 L220,115 L221,114 L222,115 L223,114 L224,114 L225,116 L226,114 L227,115 L228,115 L229,114 L230,114 L231,113 L232,114 L233,114 L234,116 L235,114 L236,115 L237,116 L238,116 L239,116 L240,114 L241,115 L242,115 L243,114 L244,114 L245,114 L246,114 L247,114 L248,115 L249,116 L250,117 L251,120 L252,129 L253,140 L254,153 L255,167 L256,174 L257,182 L258,189 L259,195 L260,197 L261,198 L262,203 L263,202 L264,204 L265,204 L266,204 L267,204 L268,204 L269,205 L270,205 L271,205 L272,205 L273,205 L274,207 L275,207 L276,207 L277,208 L278,208 L279,209 L280,211 L281,211 L282,209 L283,211 L284,211 L285,209 L286,211 L287,211 L288,211 L289,210 L290,210 L291,210 L292,210 L293,212 L294,210 L295,210 L296,210 L297,211 L298,211 L299,210 L300,211 L301,211 L302,211 L303,211 L304,211 L305,211 L306,211 L307,211 L308,210 L309,211 L310,210 L311,210 L312,211 L313,211 L314,211 L315,211 L316,211 L317,210 L318,210 L319,210 L320,210 L321,210 L322,210 L323,209 L324,211 L325,211 L326,209 L327,211 L328,210 L329,211 L330,211 L331,211 L332,211 L333,211 L334,211 L335,210 L336,210 L337,210 L338,210 L339,211 L340,211 L341,211 L342,209 L343,211 L344,211 L345,210 L346,211 L347,211 L348,211 L349,211 L350,211 L351,211 L352,211 L353,211 L354,211 L355,210 L356,210 L357,211 L358,211 L359,211 L360,210 L361,211 L362,210 L363,211 L364,210 L365,211 L366,211 L367,211 L368,209 L369,209 L370,211 L371,211 L372,211 L373,210 L374,211 L375,212 L376,210 L377,211 L378,211 L379,211 L380,210 L381,210 L382,211 L383,211 L384,210 L385,211 L386,211 L387,211 L388,210 L389,210 L390,211 L391,210 L392,210 L393,211 L394,211 L395,211 L396,211 L397,210 L398,210 L399,209 L400,212 L401,210 L402,211 L403,210 L404,211 L405,211 L406,211 L407,211 L408,209 L409,211 L410,211 L411,211 L412,211 L413,210 L414,211 L415,211 L416,211 L417,210 L418,211 L419,210 L420,211 L421,211 L422,211 L423,209 L424,211 L425,211 L426,211 L427,210 L428,211 L429,210 L430,210 L431,211 L432,211 L433,211 L434,211 L435,211 L436,211 L437,210 L438,211 L439,211 L440,211 L441,209 L442,211 L443,209 L444,211 L445,210 L446,211 L447,210 L448,209 L449,211 L450,210 L451,211 L452,211 L453,211 L454,210 L455,210 L456,211 L457,211 L458,211 L459,211 L460,211 L461,210 L462,211 L463,211 L464,209 L465,209 L466,211 L467,211 L468,211 L469,211 L470,210 L471,211 L472,210 L473,210 L474,210 L475,211 L476,211 L477,209 L478,209 L479,211 L480,211 L481,211 L482,211 L483,210 L484,211 L485,211 L486,210 L487,210 L488,211 L489,210 L490,210 L491,211 L492,211 L493,211 L494,211 L495,211 L496,208 L497,211 L498,210 L499,211 L500,210 L501,211 L502,211 L503,211 L504,211 L505,211 L506,210 L507,210 L508,210 L509,211 L510,211 L511,211 L512,211 L513,211 L514,211 L515,210 L516,210 L517,211 L518,211 L519,211 L520,209 L521,211 L522,211 L523,211 L524,211 L525,210 L526,210 L527,210 L528,210 L529,211 L530,210 L531,211 L532,210 L533,210 L534,211 L535,211 L536,211 L537,211 L538,211 L539,211 L540,210 L541,211 L542,210 L543,211 L544,210 L545,211 L546,211 L547,211 L548,211 L549,210 L550,210 L551,212 L552,211 L553,211 L554,210 L555,211 L556,211 L557,211 L558,211 L559,211 L560,210 L561,211 L562,210 L563,212 L564,211 L565,211 L566,210 L567,210 L568,210 L569,212 L570,210 L571,210 L572,211 L573,211 L574,209 L575,209 L576,211 L577,210 L578,211 L579,210 L580,210 L581,211 L582,210 L583,210 L584,210 L585,210 L586,210 L587,209 L588,211 L589,210 L590,211 L591,211 L592,210 L593,211 L594,210 L595,210 L596,210 L597,210 L598,210 L599,211 L600,211 L601,211 L602,211 L603,210 L604,210 L605,210 L606,210 L607,211 L608,211 L609,211 L610,211 L611,211 L612,210 L613,210 L614,211 L615,210 L616,210 L617,211 L618,211 L619,210 L620,210 L621,212 L622,210 L623,211 L624,210 L625,210 L626,211 L627,211 L628,210 L629,211 L630,211 L631,210 L632,210 L633,211 L634,211 L635,210 L636,210 L637,210 L638,210 L639,211 L640,210 L641,211 L642,211 L643,211 L644,209 L645,210 L646,210 L647,210 L648,211 L649,211 L650,211 L651,211 L652,210 L653,209 L654,211 L655,210 L656,211 L657,211 L658,211 L659,211 L660,211 L661,211 L662,211 L663,210 L664,211 L665,211 L666,210 L667,211 L668,209 L669,211 L670,211 L671,211 L672,211 L673,210 L674,210 L675,210 L676,210 L677,210 L678,210 L679,211 L680,211 L681,211 L682,211 L683,211 L684,211 L685,209 L686,211 L687,211 L688,210 L689,211 L690,210 L691,210 L692,212 L693,211 L694,211 L695,211 L696,211 L697,209 L698,209 L699,210 L700,210 L701,211 L702,211 L703,211 L704,210 L705,210 L706,210 L707,211 L708,211 L709,210 L710,210 L711,210 L712,210 L713,211 L714,211 L715,211 L716,211 L717,210 L718,211 L719,211 L720,211 L721,211 L722,211 L723,211 L724,210 L725,210 L726,210 L727,212 L728,210 L729,210 L730,210 L731,211 L732,211 L733,209 L734,211 L735,211 L736,211 L737,209 L738,211 L739,211 L740,211 L741,210 L742,210 L743,212 L744,212 L745,211 L746,211 L747,209 L748,209 L749,209 L750,211 L751,210 L752,211 L753,211 L754,211 L755,211 L756,210 L757,210 L758,210 L759,211 L760,211 L761,210 L762,210 L763,211 L764,210 L765,211 L766,211 L767,209 L768,212 L769,210 L770,211 L771,210 L772,211 L773,209 L774,209 L775,211 L776,210 L777,210 L778,210 L779,210 L780,210 L781,210 L782,210 L783,210 L784,211 L785,210 L786,210 L787,210 L788,211 L789,211 L790,211 L791,209 L792,211 L793,210 L794,210 L795,210 L796,210 L797,210 L798,212 L799,211 L800,211 L801,211 L802,210 L803,211 L804,210 L805,210 L806,211 L807,211 L808,210 L809,211 L810,211 L811,210 L812,211 L813,210 L814,211 L815,211 L816,210 L817,211 L818,211 L819,211 L820,210 L821,210 L822,210 L823,210 L824,210 L825,210 L826,209 L827,211 L828,211 L829,211 L830,211 L831,211 L832,211 L833,210 L834,212 L835,210 L836,210 L837,211 L838,210 L839,210 L840,210 L841,210 L842,210 L843,210 L844,211 L845,211 L846,211 L847,210 L848,210 L849,210 L850,210 L851,211 L852,210 L853,211 L854,211 L855,211 L856,211 L857,210 L858,210 L859,210 L860,210 L861,210 L862,210 L863,211 L864,211 L865,211 L866,210 L867,211 L868,211 L869,211 L870,211 L871,210 L872,210 L873,211 L874,210 L875,210 L876,210 L877,210 L878,210 L879,211 L880,211 L881,211 L882,211 L883,211 L884,211 L885,210 L886,211 L887,211 L888,210 L889,211 L890,210 L891,211 L892,211 L893,211 L894,211 L895,211 L896,210 L897,210 L898,210 L899,211 L900,210 L901,211 L902,211 L903,212 L904,210 L905,211 L906,211 L907,209 L908,211 L909,211 L910,211 L911,211 L912,210 L913,210 L914,210 L915,212 L916,210 L917,210 L918,211 L919,211 L920,211 L921,210 L922,211 L923,210 L924,210 L925,211 L926,211 L927,211 L928,211 L929,210 L930,212 L931,211 L932,210 L933,212 L934,211 L935,211 L936,211 L937,211 L938,210 L939,210 L940,210 L941,210 L942,210 L943,210 L944,210 L945,211 L946,211 L947,211 L948,211 L949,211 L950,210 L951,211 L952,211 L953,210 L954,210 L955,210 L956,210 L957,212 L958,210 L959,210 L960,211 L961,211 L962,211 L963,211 L964,209 L965,211 L966,211 L967,210 L968,210 L969,210 L970,210 L971,210 L972,211 L973,211 L974,211 L975,210 L976,211 L977,211 L978,210 L979,210 L980,211 L981,210 L982,211 L983,211 L984,211 L985,210 L986,210 L987,211 L988,210 L989,209 L990,209 L991,211 L992,211 L993,210 L994,210 L995,210 L996,210 L997,210 L998,211 L999,210 L1000,211 L1001,209 L1002,211 L1003,211 L1004,211 L1005,211 L1006,211 L1007,209 L1008,211 L1009,211 L1010,210 L1011,210 L1012,210 L1013,211 L1014,210 L1015,210 L1016,211 L1017,210 L1018,211 L1019,211 L1020,211 L1021,210 L1022,210 L1023,210 L1024,210 L1025,211 L1026,211 L1027,211 L1028,210 L1029,211 L1030,211 L1031,210 L1032,210 L1033,210 L1034,211 L1035,211 L1036,210 L1037,211 L1038,210 L1039,212 L1040,210 L1041,210 L1042,211 L1043,210 L1044,209 L1045,211 L1046,211 L1047,211 L1048,210 L1049,211 L1050,210 L1051,211 L1052,212 L1053,211 L1054,210 L1055,210 L1056,210 L1057,211 L1058,210 L1059,211 L1060,211 L1061,211 L1062,209 L1063,211 L1064,210 L1065,210 L1066,210 L1067,211 L1068,212 L1069,210 L1070,212 L1071,210 L1072,211 L1073,210 L1074,211 L1075,210 L1076,210 L1077,211 L1078,211 L1079,210 L1080,211 L1081,211 L1082,210 L1083,211 L1084,210 L1085,210 L1086,210 L1087,211 L1088,210 L1089,211 L1090,210 L1091,211 L1092,210 L1093,211 L1094,210 L1095,210 L1096,210 L1097,211 L1098,210 L1099,211 L1100,211 L1101,211 L1102,211 L1103,211 L1104,211 L1105,210 L1106,211 L1107,211 L1108,210 L1109,210 L1110,210 L1111,210 L1112,212 L1113,212 L1114,210 L1115,211 L1116,210 L1117,211 L1118,211 L1119,211 L1120,210 L1121,210 L1122,211 L1123,210 L1124,211 L1125,210 L1126,210 L1127,210 L1128,210 L1129,211 L1130,210 L1131,210 L1132,211 L1133,211 L1134,211 L1135,211 L1136,211 L1137,209 L1138,210 L1139,211 L1140,210 L1141,211 L1142,211 L1143,209 L1144,211 L1145,211 L1146,211 L1147,211 L1148,210 L1149,210 L1150,212 L1151,211 L1152,210 L1153,210 L1154,210 L1155,211 L1156,212 L1157,211 L1158,210 L1159,211 L1160,209 L1161,211 L1162,209 L1163,211 L1164,211 L1165,210 L1166,211 L1167,212 L1168,210 L1169,210 L1170,211 L1171,210 L1172,210 L1173,210 L1174,210 L1175,211 L1176,211 L1177,211 L1178,211 L1179,211 L1180,209 L1181,210 L1182,211 L1183,210 L1184,210 L1185,211 L1186,210 L1187,210 L1188,211 L1189,211 L1190,210 L1191,211 L1192,210 L1193,210 L1194,210 L1195,210 L1196,210 L1197,211 L1198,211 L1199,211 L1200,210 L1201,211 L1202,211 L1203,210 L1204,210 L1205,210 L1206,211 L1207,210 L1208,211 L1209,210 L1210,212 L1211,210 L1212,210 L1213,210 L1214,211 L1215,210 L1216,209 L1217,211 L1218,211 L1219,211 L1220,210 L1221,211 L1222,210 L1223,210 L1224,211 L1225,210 L1226,210 L1227,211 L1228,210 L1229,211 L1230,210 L1231,210 L1232,210 L1233,211 L1234,211 L1235,211 L1236,211 L1237,210 L1238,211 L1239,211 L1240,212 L1241,211 L1242,211 L1243,211 L1244,211 L1245,211 L1246,211 L1247,211 L1248,210 L1249,210 L1250,211 L1251,210 L1252,210 L1253,210 L1254,211 L1255,211 L1256,210 L1257,211 L1258,211 L1259,211 L1260,211 L1261,211 L1262,209 L1263,211 L1264,211 L1265,210 L1266,210 L1267,210 L1268,210 L1269,210 L1270,210 L1271,211 L1272,211 L1273,211 L1274,211 L1275,212 L1276,211 L1277,211 L1278,211 L1279,211 L1280,211 L1281,210 L1282,211 L1283,210 L1284,210 L1285,210 L1286,210 L1287,210 L1288,211 L1289,209 L1290,211 L1291,211 L1292,210 L1293,210 L1294,210 L1295,210 L1296,210 L1297,210 L1298,211 L1299,211 L1300,210 L1301,211 L1302,211 L1303,211 L1304,211 L1305,212 L1306,211 L1307,210 L1308,211 L1309,210 L1310,210 L1311,210 L1312,210 L1313,210 L1314,210 L1315,211 L1316,209 L1317,211 L1318,211 L1319,211 L1320,210 L1321,210 L1322,210 L1323,210 L1324,210 L1325,210 L1326,210 L1327,210 L1328,210 L1329,211 L1330,211 L1331,211 L1332,211 L1333,211 L1334,211 L1335,211 L1336,211 L1337,210 L1338,211 L1339,210 L1340,210 L1341,211 L1342,209 L1343,209 L1344,211 L1345,210 L1346,211 L1347,211 L1348,210 L1349,210 L1350,211 L1351,210 L1352,211 L1353,210 L1354,209 L1355,211 L1356,211 L1357,209 L1358,211 L1359,209 L1360,209 L1361,208 L1362,209 L1363,210 L1364,210 L1365,210 L1366,210 L1367,210 L1368,212 L1369,210 L1370,211 L1371,211 L1372,211 L1373,211 L1374,209 L1375,210 L1376,210 L1377,211 L1378,209 L1379,210 L1380,210 L1381,211 L1382,211 L1383,211 L1384,211 L1385,211 L1386,211 L1387,211 L1388,209 L1389,210 L1390,210 L1391,211 L1392,211 L1393,210 L1394,211 L1395,210 L1396,210 L1397,211 L1398,208 L1399,209 L1400,210 L1401,210 L1402,211 L1403,210 L1404,210 L1405,210 L1406,210 L1407,210 L1408,211 L1409,211 L1410,211 L1411,211 L1412,210 L1413,209 L1414,211 L1415,211 L1416,211 L1417,211 L1418,210 L1419,210 L1420,210 L1421,211 L1422,211 L1423,210 L1424,210 L1425,211 L1426,211 L1427,211 L1428,210 L1429,210 L1430,212 L1431,211 L1432,211 L1433,211 L1434,211 L1435,210 L1436,211 L1437,211 L1438,209 L1439,211 L1440,211 L1441,211 L1442,211 L1443,211 L1444,211 L1445,211 L1446,211 L1447,210 L1448,210 L1449,210 L1450,211 L1451,211 L1452,211 L1453,211 L1454,209 L1455,211 L1456,211 L1457,210 L1458,210 L1459,210 L1460,211 L1461,211 L1462,211 L1463,211 L1464,211 L1465,211 L1466,211 L1467,210 L1468,210 L1469,210 L1470,210 L1471,210 L1472,210 L1473,211 L1474,209 L1475,211 L1476,211 L1477,211 L1478,211 L1479,209 L1480,211 L1481,210 L1482,210 L1483,211 L1484,210 L1485,211 L1486,210 L1487,210 L1488,211 L1489,211 L1490,211 L1491,209 L1492,209 L1493,211 L1494,211 L1495,211 L1496,210 L1497,210 L1498,209 L1499,211 L1500,210 L1501,210 L1502,211 L1503,211 L1504,210 L1505,212 L1506,210 L1507,209 L1508,211 L1509,210 L1510,211 L1511,212 L1512,210 L1513,211 L1514,211 L1515,211 L1516,211 L1517,211 L1518,209 L1519,211 L1520,211 L1521,211 L1522,210 L1523,210 L1524,210 L1525,210 L1526,210 L1527,211 L1528,211 L1529,211 L1530,210 L1531,210 L1532,211 L1533,211 L1534,211 L1535,211 L1536,211 L1537,210 L1538,211 L1539,210 L1540,210 L1541,210 L1542,210 L1543,210 L1544,211 L1545,211 L1546,211 L1547,211 L1548,210 L1549,210 L1550,210 L1551,210 L1552,211 L1553,211 L1554,211 L1555,211 L1556,211 L1557,211 L1558,211 L1559,211 L1560,211 L1561,211 L1562,211 L1563,211 L1564,210 L1565,210 L1566,210 L1567,211 L1568,211 L1569,210 L1570,211 L1571,211 L1572,211 L1573,209 L1574,209 L1575,211 L1576,210 L1577,210 L1578,210 L1579,210 L1580,211 L1581,211 L1582,211 L1583,211 L1584,211 L1585,211 L1586,210 L1587,211 L1588,210 L1589,211 L1590,210 L1591,210 L1592,211 L1593,211 L1594,210 L1595,210 L1596,211 L1597,211 L1598,209 L1599,209 L1600,210 L1601,211 L1602,211 L1603,211 L1604,211 L1605,212 L1606,212 L1607,211 L1608,211 L1609,210 L1610,211 L1611,209 L1612,210 L1613,211 L1614,210 L1615,211 L1616,211 L1617,211 L1618,211 L1619,210 L1620,210 L1621,210 L1622,210 L1623,210 L1624,211 L1625,210 L1626,211 L1627,209 L1628,211 L1629,211 L1630,211 L1631,210 L1632,210 L1633,211 L1634,210 L1635,210 L1636,210 L1637,211 L1638,211 L1639,211 L1640,211 L1641,211 L1642,211 L1643,211 L1644,212 L1645,210 L1646,211 L1647,210 L1648,210 L1649,210 L1650,210 L1651,210 L1652,210 L1653,211 L1654,211 L1655,209 L1656,209 L1657,210 L1658,211 L1659,211 L1660,210 L1661,210 L1662,211 L1663,211 L1664,210 L1665,210 L1666,211 L1667,210 L1668,210 L1669,210 L1670,211 L1671,210 L1672,210 L1673,209 L1674,209 L1675,211 L1676,210 L1677,210 L1678,210 L1679,211 L1680,211 L1681,210 L1682,211 L1683,209 L1684,209 L1685,210 L1686,210 L1687,210 L1688,211 L1689,211 L1690,210 L1691,210 L1692,211 L1693,209 L1694,209 L1695,211 L1696,211 L1697,211 L1698,211 L1699,208 L1700,209 L1701,211 L1702,211 L1703,210 L1704,210 L1705,212 L1706,210 L1707,211 L1708,210 L1709,211 L1710,211 L1711,208 L1712,209 L1713,211 L1714,211 L1715,210 L1716,210 L1717,211 L1718,211 L1719,211 L1720,210 L1721,210 L1722,210 L1723,210 L1724,210 L1725,212 L1726,211 L1727,211 L1728,210 L1729,210 L1730,212 L1731,210 L1732,210 L1733,210 L1734,210 L1735,211 L1736,211 L1737,209 L1738,209 L1739,211 L1740,211 L1741,211 L1742,210 L1743,210 L1744,210 L1745,210 L1746,210 L1747,211 L1748,211 L1749,210 L1750,210 L1751,211 L1752,211 L1753,209 L1754,211 L1755,211 L1756,209 L1757,211 L1758,211 L1759,210 L1760,210 L1761,210 L1762,210 L1763,212 L1764,211 L1765,211 L1766,211 L1767,211 L1768,211 L1769,210 L1770,210 L1771,210 L1772,210 L1773,211 L1774,211 L1775,210 L1776,211 L1777,211 L1778,211 L1779,211 L1780,210 L1781,210 L1782,211 L1783,210 L1784,211 L1785,210 L1786,210 L1787,210 L1788,211 L1789,211 L1790,211 L1791,211 L1792,209 L1793,211 L1794,211 L1795,211 L1796,211 L1797,211 L1798,211 L1799,211 L1800,211 L1801,211 L1802,211 L1803,211 L1804,211 L1805,210 L1806,211 L1807,211 L1808,209 L1809,209 L1810,211 L1811,211 L1812,210 L1813,211 L1814,211 L1815,210 L1816,211 L1817,211 L1818,211 L1819,211 L1820,211 L1821,211 L1822,211 L1823,211 L1824,210 L1825,211 L1826,211 L1827,210 L1828,211 L1829,209 L1830,210 L1831,210 L1832,211 L1833,211 L1834,209 L1835,211 L1836,211 L1837,210 L1838,211 L1839,211 L1840,210 L1841,210 L1842,210 L1843,211 L1844,210 L1845,211 L1846,211 L1847,211 L1848,211 L1849,211 L1850,211 L1851,211 L1852,211 L1853,211 L1854,211 L1855,211 L1856,210 L1857,211 L1858,210 L1859,211 L1860,211 L1861,210 L1862,209 L1863,211 L1864,211 L1865,211 L1866,210 L1867,212 L1868,211 L1869,211 L1870,210 L1871,211 L1872,211 L1873,211 L1874,211 L1875,211 L1876,211 L1877,210 L1878,210 L1879,210 L1880,211 L1881,211 L1882,211 L1883,211 L1884,210 L1885,211 L1886,211 L1887,211 L1888,209 L1889,211 L1890,209 L1891,209 L1892,211 L1893,211 L1894,211 L1895,210 L1896,210 L1897,210 L1898,210 L1899,211 L1900,211 L1901,211 L1902,211 L1903,211 L1904,210 L1905,211 L1906,211 L1907,211 L1908,211 L1909,209 L1910,211 L1911,211 L1912,211 L1913,211 L1914,211 L1915,210 L1916,209 L1917,211 L1918,211 L1919,211 L1920,211 L1921,211 L1922,210 L1923,212 L1924,211 L1925,210 L1926,211 L1927,211 L1928,211 L1929,209 L1930,211 L1931,211 L1932,211 L1933,210 L1934,211 L1935,209 L1936,211 L1937,210 L1938,211 L1939,211 L1940,211 L1941,211 L1942,211 L1943,211 L1944,209 L1945,210 L1946,211 L1947,210 L1948,211 L1949,210 L1950,210 L1951,211 L1952,211 L1953,211 L1954,211 L1955,210 L1956,211 L1957,211 L1958,211 L1959,210 L1960,211 L1961,210 L1962,210 L1963,210 L1964,211 L1965,211 L1966,210 L1967,210 L1968,211 L1969,211 L1970,210 L1971,211 L1972,211 L1973,211 L1974,211 L1975,211 L1976,211 L1977,210 L1978,210 L1979,211 L1980,211 L1981,211 L1982,211 L1983,211 L1984,211 L1985,210 L1986,210 L1987,210 L1988,211 L1989,211 L1990,211 L1991,208 L1992,211 L1993,210 L1994,211 L1995,211 L1996,210 L1997,210 L1998,212 L1999,210 L2000,210 L2001,210 L2002,211 L2003,210 L2004,210 L2005,211 L2006,211 L2007,211 L2008,211 L2009,211 L2010,211 L2011,210 L2012,211 L2013,210 L2014,211 L2015,211 L2016,211 L2017,211 L2018,211 L2019,211 L2020,210 L2021,211 L2022,211 L2023,211 L2024,211 L2025,211 L2026,210 L2027,211 L2028,210 L2029,210 L2030,211 L2031,211 L2032,211 L2033,211 L2034,209 L2035,211 L2036,209 L2037,211 L2038,210 L2039,211 L2040,212 L2041,212 L2042,210 L2043,211 L2044,211 L2045,211 L2046,211 L2047,209 L2048,209 L2049,209 L2050,211 L2051,210 L2052,211 L2053,211 L2054,211 L2055,211 L2056,211 L2057,211 L2058,211 L2059,211 L2060,209 L2061,210 L2062,211 L2063,210 L2064,210 L2065,210 L2066,211 L2067,212 L2068,210 L2069,210 L2070,211 L2071,211 L2072,209 L2073,211 L2074,209 L2075,209 L2076,211 L2077,210 L2078,210 L2079,211 L2080,210 L2081,210 L2082,211 L2083,209 L2084,211 L2085,211 L2086,211 L2087,211 L2088,210 L2089,211 L2090,211 L2091,210 L2092,210 L2093,209 L2094,209 L2095,211 L2096,211 L2097,211 L2098,209 L2099,211 L2100,210 L2101,209 L2102,211 L2103,210 L2104,211 L2105,210 L2106,210 L2107,211 L2108,210 L2109,211 L2110,211 L2111,211 L2112,211 L2113,209 L2114,211 L2115,209 L2116,210 L2117,211 L2118,210 L2119,211 L2120,211 L2121,211 L2122,210 L2123,211 L2124,211 L2125,211 L2126,211 L2127,210 L2128,210 L2129,210 L2130,211 L2131,210 L2132,211 L2133,211 L2134,211 L2135,211 L2136,210 L2137,211 L2138,211 L2139,209 L2140,209 L2141,211 L2142,211 L2143,210 L2144,210 L2145,210 L2146,210 L2147,210 L2148,211 L2149,210 L2150,209 L2151,211 L2152,211 L2153,211 L2154,210 L2155,211 L2156,210 L2157,211 L2158,211 L2159,210 L2160,211 L2161,210 L2162,211 L2163,211 L2164,211 L2165,210 L2166,211 L2167,211 L2168,211 L2169,210 L2170,210 L2171,210 L2172,210 L2173,212 L2174,210 L2175,211 L2176,211 L2177,209 L2178,209 L2179,209 L2180,211 L2181,211 L2182,211 L2183,210 L2184,210 L2185,210 L2186,211 L2187,210 L2188,211 L2189,211 L2190,209 L2191,210 L2192,211 L2193,210 L2194,211 L2195,211 L2196,210 L2197,211 L2198,211 L2199,211 L2200,210 L2201,210 L2202,211 L2203,211 L2204,211 L2205,211 L2206,211 L2207,211 L2208,210 L2209,211 L2210,210 L2211,210 L2212,210 L2213,210 L2214,210 L2215,211 L2216,211 L2217,211 L2218,211 L2219,210 L2220,211 L2221,211 L2222,210 L2223,211 L2224,211 L2225,211 L2226,209 L2227,210 L2228,209 L2229,211 L2230,211 L2231,210 L2232,210 L2233,211 L2234,211 L2235,210 L2236,210 L2237,210 L2238,210 L2239,210 L2240,211 L2241,211 L2242,211 L2243,211 L2244,211 L2245,211 L2246,211 L2247,210 L2248,211 L2249,211 L2250,211 L2251,212 L2252,210 L2253,211 L2254,211 L2255,211 L2256,211 L2257,210 L2258,210 L2259,210 L2260,210 L2261,210 L2262,211 L2263,211 L2264,211 L2265,209 L2266,211 L2267,211 L2268,209 L2269,211 L2270,211 L2271,209 L2272,211 L2273,211 L2274,210 L2275,210 L2276,210 L2277,210 L2278,210 L2279,210 L2280,211 L2281,211 L2282,210 L2283,211 L2284,209 L2285,211 L2286,211 L2287,211 L2288,210 L2289,211 L2290,211 L2291,211 L2292,211 L2293,209 L2294,209 L2295,211 L2296,211 L2297,211 L2298,210 L2299,210 L2300,210 L2301,211 L2302,210 L2303,210 L2304,211 L2305,210 L2306,210 L2307,211 L2308,211 L2309,211 L2310,211 L2311,209 L2312,209 L2313,211 L2314,210 L2315,210 L2316,210 L2317,210 L2318,210 L2319,210 L2320,211 L2321,209 L2322,211 L2323,211 L2324,211 L2325,210 L2326,210 L2327,210 L2328,210 L2329,211 L2330,210 L2331,211 L2332,209 L2333,211 L2334,211 L2335,209 L2336,211 L2337,211 L2338,211 L2339,211 L2340,210 L2341,211 L2342,210 L2343,211 L2344,210 L2345,211 L2346,210 L2347,210 L2348,211 L2349,211 L2350,211 L2351,211 L2352,211 L2353,211 L2354,210 L2355,210 L2356,210 L2357,211 L2358,211 L2359,211 L2360,209 L2361,211 L2362,211 L2363,211 L2364,210 L2365,210 L2366,210 L2367,210 L2368,210 L2369,210 L2370,211 L2371,210 L2372,210 L2373,210 L2374,211 L2375,211 L2376,211 L2377,211 L2378,211 L2379,211 L2380,210 L2381,211 L2382,210 L2383,211 L2384,211 L2385,210 L2386,211 L2387,209 L2388,211 L2389,211 L2390,211 L2391,210 L2392,210 L2393,212 L2394,210 L2395,211 L2396,211 L2397,209 L2398,211 L2399,209 L2400,210 L2401,211 L2402,211 L2403,210 L2404,211 L2405,211 L2406,211 L2407,211 L2408,210 L2409,211 L2410,210 L2411,211 L2412,210 L2413,211 L2414,211 L2415,211 L2416,211 L2417,211 L2418,211 L2419,211 L2420,210 L2421,211 L2422,210 L2423,211 L2424,211 L2425,211 L2426,209 L2427,211 L2428,211 L2429,211 L2430,211 L2431,210 L2432,210 L2433,210 L2434,211 L2435,210 L2436,210 L2437,211 L2438,209 L2439,210 L2440,211 L2441,211 L2442,211 L2443,211 L2444,209 L2445,211 L2446,211 L2447,211 L2448,210 L2449,210 L2450,211 L2451,210 L2452,210 L2453,211 L2454,211 L2455,211 L2456,210 L2457,211 L2458,210 L2459,210 L2460,210 L2461,210 L2462,211 L2463,211 L2464,211 L2465,209 L2466,211 L2467,211 L2468,211 L2469,211 L2470,211 L2471,211 L2472,211 L2473,209 L2474,210 L2475,211 L2476,210 L2477,210 L2478,210 L2479,210 L2480,210 L2481,211 L2482,211 L2483,211 L2484,209 L2485,211 L2486,211 L2487,211 L2488,210 L2489,211 L2490,210 L2491,209 L2492,210 L2493,211 L2494,211 L2495,211 L2496,211 L2497,210 L2498,211 L2499,211 L2500,211 L2501,211 L2502,209 L2503,211 L2504,211 L2505,210 L2506,210 L2507,211 L2508,211 L2509,211 L2510,211 L2511,211 L2512,211 L2513,211 L2514,211 L2515,211 L2516,212 L2517,211 L2518,210 L2519,211 L2520,210 L2521,209 L2522,211 L2523,211 L2524,209 L2525,211 L2526,208 L2527,206 L2528,205 L2529,204 L2530,202 L2531,199 L2532,195 L2533,188 L2534,180 L2535,174 L2536,166 L2537,160 L2538,156 L2539,152 L2540,149 L2541,147 L2542,142 L2543,140 L2544,138 L2545,137 L2546,134 L2547,133 L2548,133 L2549,132 L2550,132 L2551,130 L2552,129 L2553,128 L2554,125 L2555,124 L2556,122 L2557,121 L2558,121 L2559,121 L2560,120 L2561,120 L2562,119 L2563,119 L2564,117 L2565,119 L2566,116 L2567,117 L2568,116 L2569,116 L2570,117 L2571,114 L2572,116 L2573,114 L2574,114 L2575,116 L2576,114 L2577,116 L2578,114 L2579,116 L2580,114 L2581,116 L2582,115 L2583,115 L2584,114 L2585,115 L2586,113 L2587,114 L2588,115 L2589,114 L2590,115 L2591,116 L2592,115 L2593,114 L2594,115 L2595,115 L2596,115 L2597,115 L2598,115 L2599,115 L2600,114 L2601,115 L2602,114 L2603,115 L2604,115 L2605,115 L2606,113 L2607,114 L2608,115 L2609,114 L2610,115 L2611,115 L2612,113 L2613,115 L2614,115 L2615,115 L2616,115 L2617,115 L2618,115 L2619,115 L2620,114 L2621,115 L2622,115 L2623,115 L2624,115 L2625,114 L2626,114 L2627,114 L2628,113 L2629,113 L2630,115 L2631,113 L2632,113 L2633,115 L2634,115 L2635,115 L2636,115 L2637,115 L2638,115 L2639,114 L2640,114 L2641,113 L2642,115 L2643,115 L2644,115 L2645,115 L2646,115 L2647,115 L2648,115 L2649,115 L2650,115 L2651,118 L2652,127 L2653,137 L2654,150 L2655,162 L2656,173 L2657,182 L2658,188 L2659,192 L2660,196 L2661,199 L2662,200 L2663,203 L2664,204 L2665,204 L2666,204 L2667,204 L2668,205 L2669,207 L2670,204 L2671,205 L2672,205 L2673,205 L2674,205 L2675,205 L2676,207 L2677,207 L2678,208 L2679,208 L2680,211 L2681,209 L2682,210 L2683,211 L2684,211 L2685,212 L2686,211 L2687,209 L2688,211 L2689,209 L2690,211 L2691,210 L2692,210 L2693,211 L2694,210 L2695,210 L2696,211 L2697,211 L2698,211 L2699,210 L2700,211 L2701,211 L2702,210 L2703,210 L2704,211 L2705,210 L2706,209 L2707,210 L2708,211 L2709,210 L2710,210 L2711,212 L2712,210 L2713,210 L2714,211 L2715,211 L2716,211 L2717,210 L2718,211 L2719,210 L2720,211 L2721,211 L2722,211 L2723,210 L2724,211 L2725,211 L2726,210 L2727,210 L2728,210 L2729,210 L2730,212 L2731,210 L2732,211 L2733,211 L2734,211 L2735,211 L2736,211 L2737,211 L2738,211 L2739,211 L2740,211 L2741,210 L2742,211 L2743,211 L2744,210 L2745,211 L2746,210 L2747,210 L2748,210 L2749,210 L2750,211 L2751,211 L2752,211 L2753,211 L2754,209 L2755,209 L2756,209 L2757,211 L2758,211 L2759,210 L2760,211 L2761,210 L2762,211 L2763,210 L2764,210 L2765,211 L2766,210 L2767,211 L2768,211 L2769,210 L2770,209 L2771,211 L2772,211 L2773,211 L2774,211 L2775,209 L2776,210 L2777,210 L2778,210 L2779,210 L2780,211 L2781,211 L2782,211 L2783,211 L2784,210 L2785,211 L2786,211 L2787,210 L2788,211 L2789,210 L2790,211 L2791,210 L2792,211 L2793,210 L2794,210 L2795,211 L2796,211 L2797,211 L2798,211 L2799,211 L2800,209 L2801,211 L2802,211 L2803,211 L2804,211 L2805,210 L2806,210 L2807,210 L2808,211 L2809,211 L2810,210 L2811,210 L2812,210 L2813,210 L2814,212 L2815,210 L2816,211 L2817,211 L2818,209 L2819,211 L2820,211 L2821,211 L2822,211 L2823,211 L2824,210 L2825,210 L2826,210 L2827,210 L2828,210 L2829,211 L2830,211 L2831,210 L2832,210 L2833,210 L2834,211 L2835,211 L2836,211 L2837,211 L2838,211 L2839,211 L2840,211 L2841,210 L2842,210 L2843,209 L2844,211 L2845,210 L2846,211 L2847,211 L2848,211 L2849,210 L2850,210 L2851,210 L2852,210 L2853,211 L2854,210 L2855,210 L2856,209 L2857,211 L2858,210 L2859,211 L2860,211 L2861,211 L2862,209 L2863,211 L2864,211 L2865,210 L2866,211 L2867,211 L2868,210 L2869,210 L2870,210 L2871,210 L2872,210 L2873,210 L2874,211 L2875,211 L2876,209 L2877,211 L2878,211 L2879,211 L2880,211 L2881,211 L2882,211 L2883,211 L2884,210 L2885,210 L2886,210 L2887,211 L2888,210 L2889,210 L2890,210 L2891,211 L2892,211 L2893,211 L2894,210 L2895,210 L2896,210 L2897,210 L2898,210 L2899,211 L2900,210 L2901,210 L2902,209 L2903,211 L2904,211 L2905,211 L2906,211 L2907,211 L2908,210 L2909,211 L2910,210 L2911,211 L2912,211 L2913,211 L2914,210 L2915,211 L2916,210 L2917,210 L2918,211 L2919,209 L2920,211 L2921,211 L2922,211 L2923,211 L2924,210 L2925,210 L2926,211 L2927,210 L2928,211 L2929,211 L2930,211 L2931,210 L2932,209 L2933,211 L2934,210 L2935,211 L2936,210 L2937,211 L2938,210 L2939,210 L2940,211 L2941,211 L2942,211 L2943,211 L2944,211 L2945,211 L2946,211 L2947,208 L2948,209 L2949,210 L2950,211 L2951,210 L2952,210 L2953,211 L2954,210 L2955,210 L2956,210 L2957,211 L2958,211 L2959,211 L2960,211 L2961,211 L2962,210 L2963,210 L2964,211 L2965,211 L2966,210 L2967,211 L2968,211 L2969,211 L2970,210 L2971,210 L2972,211 L2973,211 L2974,210 L2975,211 L2976,210 L2977,211 L2978,211 L2979,211 L2980,211 L2981,210 L2982,210 L2983,210 L2984,210 L2985,211 L2986,210 L2987,211 L2988,211 L2989,211 L2990,211 L2991,210 L2992,211 L2993,209 L2994,210 L2995,211 L2996,211 L2997,211 L2998,210 L2999,211 L3000,211 L3001,210 L3002,210 L3003,210 L3004,211 L3005,211 L3006,211 L3007,211 L3008,211 L3009,211 L3010,210 L3011,210 L3012,211 L3013,210 L3014,211 L3015,211 L3016,211 L3017,211 L3018,211 L3019,211 L3020,210 L3021,210 L3022,211 L3023,210 L3024,211 L3025,210 L3026,210 L3027,211 L3028,211 L3029,210 L3030,211 L3031,211 L3032,211 L3033,211 L3034,209 L3035,211 L3036,211 L3037,210 L3038,211 L3039,212 L3040,210 L3041,210 L3042,210 L3043,211 L3044,211 L3045,211 L3046,211 L3047,211 L3048,211 L3049,210 L3050,211 L3051,211 L3052,211 L3053,211 L3054,211 L3055,209 L3056,211 L3057,211 L3058,209 L3059,210 L3060,210 L3061,211 L3062,210 L3063,210 L3064,211 L3065,210 L3066,211 L3067,211 L3068,210 L3069,209 L3070,211 L3071,211 L3072,209 L3073,209 L3074,209 L3075,211 L3076,211 L3077,211 L3078,210 L3079,211 L3080,211 L3081,211 L3082,211 L3083,211 L3084,209 L3085,210 L3086,211 L3087,209 L3088,210 L3089,210 L3090,211 L3091,211 L3092,211 L3093,211 L3094,210 L3095,211 L3096,211 L3097,211 L3098,211 L3099,209 L3100,211 L3101,211 L3102,209 L3103,211 L3104,210 L3105,210 L3106,210 L3107,210 L3108,211 L3109,211 L3110,211 L3111,209 L3112,211 L3113,211 L3114,211 L3115,209 L3116,211 L3117,211 L3118,210 L3119,211 L3120,210 L3121,211 L3122,210 L3123,211 L3124,210 L3125,211 L3126,211 L3127,209 L3128,211 L3129,211 L3130,211 L3131,210 L3132,210 L3133,210 L3134,211 L3135,210 L3136,211 L3137,211 L3138,211 L3139,211 L3140,211 L3141,211 L3142,211 L3143,211 L3144,211 L3145,212 L3146,211 L3147,211 L3148,210 L3149,210 L3150,210 L3151,210 L3152,211 L3153,211 L3154,211 L3155,209 L3156,209 L3157,211 L3158,211 L3159,210 L3160,211 L3161,211 L3162,210 L3163,210 L3164,211 L3165,211 L3166,211 L3167,211 L3168,211 L3169,211 L3170,210 L3171,211 L3172,211 L3173,211 L3174,209 L3175,211 L3176,210 L3177,210 L3178,210 L3179,210 L3180,210 L3181,209 L3182,211 L3183,211 L3184,211 L3185,211 L3186,210 L3187,212 L3188,210 L3189,211 L3190,210 L3191,211 L3192,211 L3193,211 L3194,208 L3195,211 L3196,211 L3197,210 L3198,211 L3199,211 L3200,211 L3201,211 L3202,210 L3203,211 L3204,210 L3205,210 L3206,210 L3207,210 L3208,211 L3209,211 L3210,211 L3211,211 L3212,211 L3213,211 L3214,211 L3215,210 L3216,211 L3217,210 L3218,211 L3219,211 L3220,210 L3221,211 L3222,211 L3223,211 L3224,211 L3225,210 L3226,210 L3227,210 L3228,211 L3229,210 L3230,211 L3231,210 L3232,210 L3233,211 L3234,211 L3235,211 L3236,211 L3237,211 L3238,211 L3239,210 L3240,210 L3241,211 L3242,210 L3243,210 L3244,210 L3245,210 L3246,210 L3247,211 L3248,211 L3249,211 L3250,210 L3251,211 L3252,211 L3253,211 L3254,211 L3255,211 L3256,211 L3257,210 L3258,210 L3259,210 L3260,211 L3261,210 L3262,211 L3263,212 L3264,211 L3265,211 L3266,211 L3267,210 L3268,210 L3269,210 L3270,210 L3271,211 L3272,210 L3273,211 L3274,211 L3275,211 L3276,211 L3277,211 L3278,211 L3279,210 L3280,210 L3281,210 L3282,211 L3283,211 L3284,210 L3285,210 L3286,212 L3287,210 L3288,210 L3289,211 L3290,210 L3291,210 L3292,211 L3293,209 L3294,211 L3295,210 L3296,210 L3297,210 L3298,212 L3299,211 L3300,211 L3301,210 L3302,210 L3303,211 L3304,211 L3305,211 L3306,210 L3307,209 L3308,211 L3309,211 L3310,211 L3311,210 L3312,210 L3313,211 L3314,210 L3315,210 L3316,211 L3317,211 L3318,211 L3319,211 L3320,210 L3321,210 L3322,211 L3323,210 L3324,210 L3325,211 L3326,210 L3327,211 L3328,211 L3329,211 L3330,211 L3331,211 L3332,211 L3333,211 L3334,210 L3335,209 L3336,209 L3337,211 L3338,210 L3339,210 L3340,211 L3341,210 L3342,210 L3343,210 L3344,211 L3345,210 L3346,211 L3347,211 L3348,211 L3349,211 L3350,210 L3351,210 L3352,210 L3353,210 L3354,211 L3355,209 L3356,210 L3357,210 L3358,211 L3359,211 L3360,209 L3361,211 L3362,210 L3363,211 L3364,210 L3365,210 L3366,210 L3367,212 L3368,212 L3369,211 L3370,210 L3371,211 L3372,211 L3373,211 L3374,211 L3375,210 L3376,211 L3377,210 L3378,210 L3379,210 L3380,212 L3381,210 L3382,210 L3383,210 L3384,211 L3385,210 L3386,210 L3387,210 L3388,211 L3389,210 L3390,211 L3391,211 L3392,211 L3393,211 L3394,210 L3395,210 L3396,211 L3397,210 L3398,210 L3399,210 L3400,211 L3401,210 L3402,211 L3403,210 L3404,210 L3405,210 L3406,210 L3407,211 L3408,210 L3409,211 L3410,211 L3411,211 L3412,211 L3413,210 L3414,211 L3415,210 L3416,211 L3417,211 L3418,210 L3419,210 L3420,210 L3421,210 L3422,210 L3423,212 L3424,210 L3425,210 L3426,210 L3427,211 L3428,210 L3429,211 L3430,211 L3431,211 L3432,210 L3433,211 L3434,210 L3435,210 L3436,211 L3437,211 L3438,210 L3439,210 L3440,210 L3441,211 L3442,210 L3443,210 L3444,210 L3445,211 L3446,211 L3447,211 L3448,211 L3449,210 L3450,210 L3451,210 L3452,210 L3453,210 L3454,211 L3455,211 L3456,211 L3457,211 L3458,211 L3459,210 L3460,211 L3461,210 L3462,212 L3463,211 L3464,210 L3465,210 L3466,211 L3467,211 L3468,210 L3469,210 L3470,211 L3471,211 L3472,210 L3473,209 L3474,211 L3475,211 L3476,210 L3477,210 L3478,210 L3479,210 L3480,210 L3481,212 L3482,210 L3483,211 L3484,210 L3485,210 L3486,210 L3487,210 L3488,211 L3489,211 L3490,210 L3491,211 L3492,211 L3493,211 L3494,211 L3495,210 L3496,210 L3497,210 L3498,210 L3499,210 L3500,210 L3501,210 L3502,211 L3503,211 L3504,210 L3505,210 L3506,212 L3507,211 L3508,210 L3509,211 L3510,210 L3511,211 L3512,211 L3513,210 L3514,211 L3515,211 L3516,211 L3517,211 L3518,211 L3519,211 L3520,210 L3521,210 L3522,210 L3523,210 L3524,212 L3525,210 L3526,210 L3527,211 L3528,211 L3529,211 L3530,211 L3531,209 L3532,211 L3533,210 L3534,210 L3535,210 L3536,211 L3537,210 L3538,210 L3539,210 L3540,210 L3541,211 L3542,211 L3543,211 L3544,210 L3545,210 L3546,211 L3547,210 L3548,210 L3549,211 L3550,211 L3551,210 L3552,210 L3553,211 L3554,211 L3555,211 L3556,211 L3557,211 L3558,211 L3559,210 L3560,210 L3561,211 L3562,212 L3563,210 L3564,210 L3565,210 L3566,211 L3567,211 L3568,211 L3569,210 L3570,212 L3571,211 L3572,211 L3573,210 L3574,211 L3575,211 L3576,210 L3577,210 L3578,211 L3579,210 L3580,210 L3581,209 L3582,210 L3583,211 L3584,209 L3585,211 L3586,210 L3587,211 L3588,210 L3589,212 L3590,210 L3591,212 L3592,211 L3593,211 L3594,211 L3595,210 L3596,211 L3597,211 L3598,211 L3599,210 L3600,210 L3601,210 L3602,210 L3603,211 L3604,210 L3605,212 L3606,211 L3607,210 L3608,210 L3609,210 L3610,211 L3611,210 L3612,211 L3613,209 L3614,211 L3615,211 L3616,210 L3617,211 L3618,212 L3619,211 L3620,210 L3621,210 L3622,211 L3623,210 L3624,210 L3625,210 L3626,210 L3627,210 L3628,210 L3629,210 L3630,210 L3631,210 L3632,211 L3633,211 L3634,211 L3635,211 L3636,210 L3637,211 L3638,211 L3639,211 L3640,210 L3641,211 L3642,211 L3643,210 L3644,210 L3645,212 L3646,210 L3647,211 L3648,210 L3649,211 L3650,209 L3651,211 L3652,210 L3653,211 L3654,211 L3655,211 L3656,211 L3657,210 L3658,210 L3659,211 L3660,210 L3661,211 L3662,211 L3663,211 L3664,211 L3665,210 L3666,210 L3667,211 L3668,211 L3669,211 L3670,210 L3671,211 L3672,210 L3673,211 L3674,209 L3675,211 L3676,210 L3677,211 L3678,211 L3679,211 L3680,210 L3681,210 L3682,211 L3683,211 L3684,210 L3685,211 L3686,211 L3687,211 L3688,211 L3689,211 L3690,211 L3691,211 L3692,209 L3693,210 L3694,211 L3695,211 L3696,211 L3697,210 L3698,210 L3699,211 L3700,210 L3701,210 L3702,210 L3703,211 L3704,210 L3705,211 L3706,211 L3707,211 L3708,210 L3709,209 L3710,211 L3711,211 L3712,210 L3713,211 L3714,211 L3715,211 L3716,210 L3717,210 L3718,210 L3719,211 L3720,211 L3721,211 L3722,210 L3723,211 L3724,211 L3725,210 L3726,210 L3727,211 L3728,211 L3729,211 L3730,210 L3731,211 L3732,211 L3733,211 L3734,211 L3735,210 L3736,212 L3737,211 L3738,211 L3739,211 L3740,210 L3741,212 L3742,212 L3743,211 L3744,210 L3745,210 L3746,211 L3747,211 L3748,211 L3749,210 L3750,211 L3751,210 L3752,210 L3753,210 L3754,210 L3755,210 L3756,211 L3757,211 L3758,211 L3759,211 L3760,210 L3761,212 L3762,211 L3763,211 L3764,211 L3765,211 L3766,211 L3767,211 L3768,210 L3769,211 L3770,210 L3771,211 L3772,211 L3773,209 L3774,211 L3775,211 L3776,211 L3777,210 L3778,211 L3779,210 L3780,210 L3781,210 L3782,211 L3783,210 L3784,210 L3785,211 L3786,209 L3787,211 L3788,211 L3789,211 L3790,211 L3791,211 L3792,211 L3793,210 L3794,210 L3795,211 L3796,210 L3797,211 L3798,210 L3799,212 L3800,211 L3801,211 L3802,211 L3803,211 L3804,211 L3805,210 L3806,210 L3807,211 L3808,210 L3809,210 L3810,211 L3811,210 L3812,210 L3813,211 L3814,211 L3815,210 L3816,211 L3817,210 L3818,210 L3819,210 L3820,211 L3821,210 L3822,210 L3823,210 L3824,212 L3825,211 L3826,211 L3827,210 L3828,211 L3829,211 L3830,210 L3831,211 L3832,210 L3833,210 L3834,210 L3835,210 L3836,211 L3837,210 L3838,211 L3839,211 L3840,210 L3841,211 L3842,210 L3843,210 L3844,210 L3845,210 L3846,210 L3847,211 L3848,211 L3849,210 L3850,210 L3851,211 L3852,210 L3853,210 L3854,211 L3855,210 L3856,211 L3857,211 L3858,210 L3859,210 L3860,210 L3861,210 L3862,210 L3863,211 L3864,210 L3865,211 L3866,209 L3867,209 L3868,211 L3869,211 L3870,211 L3871,211 L3872,210 L3873,211 L3874,211 L3875,210 L3876,210 L3877,210 L3878,211 L3879,210 L3880,210 L3881,209 L3882,211 L3883,211 L3884,211 L3885,210 L3886,211 L3887,210 L3888,210 L3889,211 L3890,210 L3891,211 L3892,209 L3893,211 L3894,211 L3895,211 L3896,211 L3897,211 L3898,210 L3899,212 L3900,210 L3901,210 L3902,210 L3903,211 L3904,211 L3905,210 L3906,210 L3907,211 L3908,211 L3909,209 L3910,211 L3911,211 L3912,210 L3913,211 L3914,210 L3915,210 L3916,210 L3917,212 L3918,211 L3919,210 L3920,211 L3921,211 L3922,211 L3923,210 L3924,210 L3925,211 L3926,211 L3927,211 L3928,210 L3929,210 L3930,211 L3931,210 L3932,210 L3933,211 L3934,210 L3935,210 L3936,210 L3937,211 L3938,210 L3939,210 L3940,210 L3941,210 L3942,210 L3943,212 L3944,210 L3945,210 L3946,210 L3947,211 L3948,211 L3949,211 L3950,211 L3951,211 L3952,210 L3953,210 L3954,210 L3955,210 L3956,212 L3957,210 L3958,210 L3959,210 L3960,210 L3961,210 L3962,211 L3963,210 L3964,210 L3965,211 L3966,211 L3967,210 L3968,210 L3969,211 L3970,210 L3971,210 L3972,210 L3973,210 L3974,211 L3975,209 L3976,211 L3977,209 L3978,211 L3979,210 L3980,211 L3981,211 L3982,210 L3983,212 L3984,210 L3985,210 L3986,210 L3987,211 L3988,211 L3989,211 L3990,211 L3991,211 L3992,210 L3993,211 L3994,211 L3995,211 L3996,211 L3997,210 L3998,212 L3999,211 L4000,210 L4001,212 L4002,210 L4003,211 L4004,211 L4005,211 L4006,211 L4007,211 L4008,212 L4009,210 L4010,210 L4011,211 L4012,210 L4013,211 L4014,211 L4015,211 L4016,210 L4017,210 L4018,211 L4019,210 L4020,210 L4021,211 L4022,210 L4023,210 L4024,210 L4025,212 L4026,210 L4027,210 L4028,210 L4029,210 L4030,210 L4031,211 L4032,209 L4033,211 L4034,210 L4035,210 L4036,210 L4037,210 L4038,210 L4039,212 L4040,210 L4041,210 L4042,210 L4043,210 L4044,210 L4045,210 L4046,210 L4047,210 L4048,211 L4049,210 L4050,211 L4051,211 L4052,210 L4053,210 L4054,210 L4055,210 L4056,210 L4057,210 L4058,211 L4059,211 L4060,211 L4061,211 L4062,210 L4063,211 L4064,210 L4065,212 L4066,209 L4067,210 L4068,210 L4069,211 L4070,210 L4071,211 L4072,210 L4073,210 L4074,211 L4075,211 L4076,211 L4077,211 L4078,211 L4079,210 L4080,210 L4081,210 L4082,210 L4083,210 L4084,212 L4085,210 L4086,211 L4087,210 L4088,211 L4089,211 L4090,210 L4091,211 L4092,211 L4093,210 L4094,210 L4095,211 "/>
<text font-family="Arial" x="638" y="230" fill="yellow" font-size="20" text-anchor="end" id="CH1s">CH1: 200mV/div (1 x) 20ms/div</text>
<text font-family="Arial" x="2" y="230" fill="yellow" font-size="20" text-anchor="start" id="CH1"> </text>
<text font-family="Arial" x="638" y="250" fill="cyan" font-size="20" text-anchor="end" id="CH2s">CH2: 50mV/div (10 x) 20ms/div</text>
<text font-family="Arial" x="2" y="250" fill="cyan" font-size="20" text-anchor="start" id="CH2"> </text>
<script type="text/ecmascript"><![CDATA[
function init(evt) { if ( window.svgDocument == null ) svgDocument = evt.target.ownerDocument; }
function fmtT(val, div) {
 if (div > 100) return Math.floor(val*div/32) + " ms";
if (div > 0.025) return Math.floor(val*div*1000/32)/1000 + " ms";
 return Math.floor(val*div*1000*1000/32)/1000 + " us";
}
function fmtU(val, div, shift) { return Math.floor((shift-val)*div/32) + " mV"; }
function msMove (evt)
{
	var x = evt.clientX;
	var y = evt.clientY;
	if (x < 0 || y < 0 || x >= 4096 || y >= 256)
		return;
	var hscroll = (document.all ? document.scrollLeft : window.pageXOffset);
	var width = window.innerWidth;

	svgDocument.getElementById("CH1").setAttribute("x", hscroll+20);
	svgDocument.getElementById("CH2").setAttribute("x", hscroll+20);
	svgDocument.getElementById("CH1s").setAttribute("x", hscroll+width-20);
	svgDocument.getElementById("CH2s").setAttribute("x", hscroll+width-20);

	svgDocument.getElementById("CH1").firstChild.data = "CH1: "+fmtU(y, 200.000, 189) + " " + fmtT(x, 20.000);
	svgDocument.getElementById("CH2").firstChild.data = "CH2: "+fmtU(y, 500.000, 223) + " " + fmtT(x, 20.000);
}
]]></script>
</svg>
