<?xml version="1.0" encoding="iso-8859-1"?>
<!DOCTYPE svg PUBLIC "-//W3C//DTD SVG 1.0//EN" "http://www.w3.org/TR/2001/REC-SVG-20010904/DTD/svg10.dtd">
<svg width="4096" height="256" xmlns="http://www.w3.org/2000/svg" xmlns:xlink="http://www.w3.org/1999/xlink" onload="init(evt)" onmousemove="msMove(evt)">
<path stroke="none" fill="black" d="M0,0 H4096 V256 H0 V0"/>
<path stroke="none" fill="#000040" d="M94,0 H394 V256 H94 V0"/>
<path stroke="none" fill="#400000" d="M0,0 H30 V256 H0 V0"/>
<path stroke="#404040" d="M0,0 H4096"/>
<path stroke="#404040" d="M0,32 H4096"/>
<path stroke="#404040" d="M0,64 H4096"/>
<path stroke="#404040" d="M0,96 H4096"/>
<path stroke="#404040" d="M0,128 H4096"/>
<path stroke="#404040" d="M0,160 H4096"/>
<path stroke="#404040" d="M0,192 H4096"/>
<path stroke="#404040" d="M0,224 H4096"/>
<path stroke="#404040" d="M0,256 H4096"/>
<path stroke="#404040" d="M0,0 V256"/>
<path stroke="#404040" d="M32,0 V256"/>
<path stroke="#404040" d="M64,0 V256"/>
<path stroke="#404040" d="M96,0 V256"/>
<path stroke="#404040" d="M128,0 V256"/>
<path stroke="#404040" d="M160,0 V256"/>
<path stroke="#404040" d="M192,0 V256"/>
<path stroke="#404040" d="M224,0 V256"/>
<path stroke="#404040" d="M256,0 V256"/>
<path stroke="#404040" d="M288,0 V256"/>
<path stroke="#404040" d="M320,0 V256"/>
<path stroke="#404040" d="M352,0 V256"/>
<path stroke="#404040" d="M384,0 V256"/>
<path stroke="#404040" d="M416,0 V256"/>
<path stroke="#404040" d="M448,0 V256"/>
<path stroke="#404040" d="M480,0 V256"/>
<path stroke="#404040" d="M512,0 V256"/>
<path stroke="#404040" d="M544,0 V256"/>
<path stroke="#404040" d="M576,0 V256"/>
<path stroke="#404040" d="M608,0 V256"/>
<path stroke="#404040" d="M640,0 V256"/>
<path stroke="#404040" d="M672,0 V256"/>
<path stroke="#404040" d="M704,0 V256"/>
<path stroke="#404040" d="M736,0 V256"/>
<path stroke="#404040" d="M768,0 V256"/>
<path stroke="#404040" d="M800,0 V256"/>
<path stroke="#404040" d="M832,0 V256"/>
<path stroke="#404040" d="M864,0 V256"/>
<path stroke="#404040" d="M896,0 V256"/>
<path stroke="#404040" d="M928,0 V256"/>
<path stroke="#404040" d="M960,0 V256"/>
<path stroke="#404040" d="M992,0 V256"/>
<path stroke="#404040" d="M1024,0 V256"/>
<path stroke="#404040" d="M1056,0 V256"/>
<path stroke="#404040" d="M1088,0 V256"/>
<path stroke="#404040" d="M1120,0 V256"/>
<path stroke="#404040" d="M1152,0 V256"/>
<path stroke="#404040" d="M1184,0 V256"/>
<path stroke="#404040" d="M1216,0 V256"/>
<path stroke="#404040" d="M1248,0 V256"/>
<path stroke="#404040" d="M1280,0 V256"/>
<path stroke="#404040" d="M1312,0 V256"/>
<path stroke="#404040" d="M1344,0 V256"/>
<path stroke="#404040" d="M1376,0 V256"/>
<path stroke="#404040" d="M1408,0 V256"/>
<path stroke="#404040" d="M1440,0 V256"/>
<path stroke="#404040" d="M1472,0 V256"/>
<path stroke="#404040" d="M1504,0 V256"/>
<path stroke="#404040" d="M1536,0 V256"/>
<path stroke="#404040" d="M1568,0 V256"/>
<path stroke="#404040" d="M1600,0 V256"/>
<path stroke="#404040" d="M1632,0 V256"/>
<path stroke="#404040" d="M1664,0 V256"/>
<path stroke="#404040" d="M1696,0 V256"/>
<path stroke="#404040" d="M1728,0 V256"/>
<path stroke="#404040" d="M1760,0 V256"/>
<path stroke="#404040" d="M1792,0 V256"/>
<path stroke="#404040" d="M1824,0 V256"/>
<path stroke="#404040" d="M1856,0 V256"/>
<path stroke="#404040" d="M1888,0 V256"/>
<path stroke="#404040" d="M1920,0 V256"/>
<path stroke="#404040" d="M1952,0 V256"/>
<path stroke="#404040" d="M1984,0 V256"/>
<path stroke="#404040" d="M2016,0 V256"/>
<path stroke="#404040" d="M2048,0 V256"/>
<path stroke="#404040" d="M2080,0 V256"/>
<path stroke="#404040" d="M2112,0 V256"/>
<path stroke="#404040" d="M2144,0 V256"/>
<path stroke="#404040" d="M2176,0 V256"/>
<path stroke="#404040" d="M2208,0 V256"/>
<path stroke="#404040" d="M2240,0 V256"/>
<path stroke="#404040" d="M2272,0 V256"/>
<path stroke="#404040" d="M2304,0 V256"/>
<path stroke="#404040" d="M2336,0 V256"/>
<path stroke="#404040" d="M2368,0 V256"/>
<path stroke="#404040" d="M2400,0 V256"/>
<path stroke="#404040" d="M2432,0 V256"/>
<path stroke="#404040" d="M2464,0 V256"/>
<path stroke="#404040" d="M2496,0 V256"/>
<path stroke="#404040" d="M2528,0 V256"/>
<path stroke="#404040" d="M2560,0 V256"/>
<path stroke="#404040" d="M2592,0 V256"/>
<path stroke="#404040" d="M2624,0 V256"/>
<path stroke="#404040" d="M2656,0 V256"/>
<path stroke="#404040" d="M2688,0 V256"/>
<path stroke="#404040" d="M2720,0 V256"/>
<path stroke="#404040" d="M2752,0 V256"/>
<path stroke="#404040" d="M2784,0 V256"/>
<path stroke="#404040" d="M2816,0 V256"/>
<path stroke="#404040" d="M2848,0 V256"/>
<path stroke="#404040" d="M2880,0 V256"/>
<path stroke="#404040" d="M2912,0 V256"/>
<path stroke="#404040" d="M2944,0 V256"/>
<path stroke="#404040" d="M2976,0 V256"/>
<path stroke="#404040" d="M3008,0 V256"/>
<path stroke="#404040" d="M3040,0 V256"/>
<path stroke="#404040" d="M3072,0 V256"/>
<path stroke="#404040" d="M3104,0 V256"/>
<path stroke="#404040" d="M3136,0 V256"/>
<path stroke="#404040" d="M3168,0 V256"/>
<path stroke="#404040" d="M3200,0 V256"/>
<path stroke="#404040" d="M3232,0 V256"/>
<path stroke="#404040" d="M3264,0 V256"/>
<path stroke="#404040" d="M3296,0 V256"/>
<path stroke="#404040" d="M3328,0 V256"/>
<path stroke="#404040" d="M3360,0 V256"/>
<path stroke="#404040" d="M3392,0 V256"/>
<path stroke="#404040" d="M3424,0 V256"/>
<path stroke="#404040" d="M3456,0 V256"/>
<path stroke="#404040" d="M3488,0 V256"/>
<path stroke="#404040" d="M3520,0 V256"/>
<path stroke="#404040" d="M3552,0 V256"/>
<path stroke="#404040" d="M3584,0 V256"/>
<path stroke="#404040" d="M3616,0 V256"/>
<path stroke="#404040" d="M3648,0 V256"/>
<path stroke="#404040" d="M3680,0 V256"/>
<path stroke="#404040" d="M3712,0 V256"/>
<path stroke="#404040" d="M3744,0 V256"/>
<path stroke="#404040" d="M3776,0 V256"/>
<path stroke="#404040" d="M3808,0 V256"/>
<path stroke="#404040" d="M3840,0 V256"/>
<path stroke="#404040" d="M3872,0 V256"/>
<path stroke="#404040" d="M3904,0 V256"/>
<path stroke="#404040" d="M3936,0 V256"/>
<path stroke="#404040" d="M3968,0 V256"/>
<path stroke="#404040" d="M4000,0 V256"/>
<path stroke="#404040" d="M4032,0 V256"/>
<path stroke="#404040" d="M4064,0 V256"/>
<path stroke="yellow" fill="none" stroke-width="1" d="M0,77 L1,142 L2,139 L3,134 L4,137 L5,167 L6,167 L7,165 L8,162 L9,160 L10,157 L11,156 L12,153 L13,150 L14,149 L15,146 L16,144 L17,142 L18,140 L19,137 L20,134 L21,133 L22,131 L23,128 L24,126 L25,123 L26,121 L27,119 L28,117 L29,114 L30,111 L31,109 L32,108 L33,105 L34,102 L35,100 L36,98 L37,96 L38,93 L39,92 L40,89 L41,86 L42,85 L43,82 L44,80 L45,77 L46,75 L47,73 L48,70 L49,68 L50,65 L51,64 L52,62 L53,59 L54,57 L55,54 L56,52 L57,50 L58,47 L59,45 L60,42 L61,41 L62,41 L63,41 L64,137 L65,167 L66,167 L67,165 L68,162 L69,161 L70,157 L71,155 L72,154 L73,150 L74,149 L75,146 L76,144 L77,142 L78,139 L79,137 L80,134 L81,132 L82,131 L83,128 L84,126 L85,123 L86,121 L87,119 L88,116 L89,115 L90,111 L91,109 L92,107 L93,105 L94,102 L95,100 L96,98 L97,96 L98,93 L99,92 L100,88 L101,86 L102,85 L103,82 L104,80 L105,77 L106,75 L107,73 L108,70 L109,68 L110,65 L111,64 L112,61 L113,59 L114,57 L115,54 L116,52 L117,50 L118,47 L119,45 L120,42 L121,41 L122,40 L123,40 L124,137 L125,167 L126,167 L127,165 L128,161 L129,160 L130,157 L131,155 L132,153 L133,150 L134,149 L135,146 L136,144 L137,142 L138,139 L139,137 L140,134 L141,132 L142,131 L143,128 L144,126 L145,123 L146,121 L147,120 L148,116 L149,114 L150,111 L151,109 L152,108 L153,105 L154,103 L155,100 L156,98 L157,96 L158,93 L159,91 L160,88 L161,86 L162,85 L163,82 L164,80 L165,77 L166,75 L167,73 L168,70 L169,68 L170,65 L171,64 L172,62 L173,59 L174,57 L175,54 L176,52 L177,50 L178,47 L179,45 L180,42 L181,41 L182,41 L183,41 L184,137 L185,167 L186,167 L187,165 L188,162 L189,160 L190,157 L191,155 L192,154 L193,150 L194,149 L195,146 L196,144 L197,142 L198,140 L199,137 L200,134 L201,132 L202,131 L203,128 L204,126 L205,123 L206,121 L207,119 L208,116 L209,114 L210,111 L211,109 L212,108 L213,105 L214,102 L215,100 L216,98 L217,96 L218,93 L219,92 L220,88 L221,86 L222,85 L223,82 L224,80 L225,77 L226,75 L227,73 L228,70 L229,69 L230,65 L231,64 L232,62 L233,59 L234,57 L235,54 L236,52 L237,50 L238,46 L239,45 L240,43 L241,41 L242,41 L243,41 L244,137 L245,167 L246,167 L247,165 L248,162 L249,160 L250,157 L251,156 L252,153 L253,151 L254,149 L255,146 L256,144 L257,142 L258,140 L259,137 L260,134 L261,132 L262,131 L263,128 L264,126 L265,123 L266,121 L267,119 L268,117 L269,115 L270,111 L271,109 L272,108 L273,105 L274,102 L275,100 L276,98 L277,96 L278,93 L279,92 L280,89 L281,87 L282,85 L283,82 L284,80 L285,77 L286,75 L287,73 L288,70 L289,68 L290,66 L291,64 L292,62 L293,59 L294,57 L295,54 L296,52 L297,50 L298,47 L299,45 L300,42 L301,41 L302,40 L303,40 L304,137 L305,167 L306,167 L307,164 L308,162 L309,161 L310,157 L311,155 L312,153 L313,150 L314,149 L315,146 L316,144 L317,142 L318,139 L319,137 L320,134 L321,132 L322,131 L323,128 L324,126 L325,123 L326,121 L327,119 L328,116 L329,114 L330,111 L331,109 L332,107 L333,104 L334,102 L335,100 L336,98 L337,96 L338,93 L339,92 L340,89 L341,86 L342,85 L343,82 L344,80 L345,77 L346,75 L347,73 L348,70 L349,68 L350,65 L351,64 L352,61 L353,59 L354,57 L355,54 L356,52 L357,50 L358,46 L359,45 L360,43 L361,41 L362,41 L363,41 L364,137 L365,167 L366,168 L367,165 L368,162 L369,160 L370,157 L371,155 L372,153 L373,150 L374,149 L375,146 L376,144 L377,142 L378,139 L379,137 L380,134 L381,132 L382,131 L383,128 L384,125 L385,123 L386,121 L387,119 L388,116 L389,115 L390,112 L391,109 L392,107 L393,104 L394,103 L395,100 L396,98 L397,96 L398,93 L399,91 L400,89 L401,86 L402,85 L403,82 L404,80 L405,77 L406,75 L407,73 L408,70 L409,68 L410,65 L411,64 L412,61 L413,59 L414,57 L415,54 L416,52 L417,50 L418,46 L419,45 L420,42 L421,41 L422,41 L423,41 L424,137 L425,167 L426,167 L427,165 L428,162 L429,160 L430,157 L431,156 L432,153 L433,150 L434,149 L435,146 L436,144 L437,142 L438,139 L439,137 L440,134 L441,133 L442,131 L443,128 L444,126 L445,123 L446,121 L447,119 L448,116 L449,114 L450,111 L451,110 L452,107 L453,104 L454,102 L455,100 L456,98 L457,96 L458,93 L459,91 L460,89 L461,86 L462,85 L463,82 L464,80 L465,77 L466,75 L467,73 L468,70 L469,68 L470,66 L471,64 L472,62 L473,58 L474,57 L475,54 L476,52 L477,50 L478,47 L479,45 L480,43 L481,41 L482,40 L483,41 L484,137 L485,168 L486,167 L487,164 L488,162 L489,160 L490,157 L491,155 L492,154 L493,150 L494,149 L495,146 L496,144 L497,142 L498,139 L499,137 L500,134 L501,132 L502,130 L503,128 L504,126 L505,123 L506,121 L507,119 L508,116 L509,115 L510,111 L511,109 L512,108 L513,104 L514,102 L515,100 L516,97 L517,96 L518,93 L519,92 L520,88 L521,86 L522,85 L523,82 L524,80 L525,77 L526,75 L527,73 L528,70 L529,68 L530,65 L531,64 L532,61 L533,59 L534,57 L535,54 L536,52 L537,50 L538,47 L539,45 L540,42 L541,41 L542,41 L543,40 L544,137 L545,167 L546,167 L547,165 L548,161 L549,160 L550,157 L551,156 L552,153 L553,151 L554,149 L555,146 L556,144 L557,142 L558,139 L559,137 L560,134 L561,132 L562,130 L563,128 L564,126 L565,123 L566,121 L567,119 L568,116 L569,115 L570,111 L571,109 L572,108 L573,105 L574,102 L575,100 L576,98 L577,96 L578,93 L579,92 L580,88 L581,86 L582,85 L583,82 L584,80 L585,77 L586,75 L587,73 L588,70 L589,68 L590,65 L591,64 L592,61 L593,59 L594,57 L595,54 L596,52 L597,50 L598,47 L599,45 L600,43 L601,41 L602,41 L603,41 L604,137 L605,168 L606,167 L607,165 L608,162 L609,160 L610,157 L611,156 L612,154 L613,150 L614,149 L615,146 L616,144 L617,142 L618,139 L619,137 L620,134 L621,133 L622,131 L623,128 L624,126 L625,124 L626,121 L627,119 L628,116 L629,115 L630,111 L631,109 L632,107 L633,105 L634,102 L635,100 L636,98 L637,96 L638,93 L639,91 L640,88 L641,86 L642,85 L643,82 L644,80 L645,77 L646,75 L647,73 L648,70 L649,68 L650,65 L651,64 L652,61 L653,59 L654,57 L655,54 L656,52 L657,50 L658,47 L659,45 L660,42 L661,41 L662,41 L663,40 L664,137 L665,167 L666,167 L667,164 L668,162 L669,160 L670,157 L671,156 L672,153 L673,150 L674,149 L675,146 L676,144 L677,142 L678,139 L679,137 L680,134 L681,133 L682,131 L683,128 L684,126 L685,124 L686,121 L687,119 L688,116 L689,115 L690,112 L691,109 L692,108 L693,105 L694,102 L695,100 L696,98 L697,96 L698,93 L699,92 L700,89 L701,86 L702,85 L703,82 L704,80 L705,77 L706,75 L707,73 L708,70 L709,68 L710,65 L711,64 L712,61 L713,59 L714,57 L715,54 L716,52 L717,50 L718,47 L719,45 L720,43 L721,41 L722,41 L723,40 L724,137 L725,167 L726,167 L727,165 L728,162 L729,160 L730,157 L731,156 L732,153 L733,151 L734,149 L735,146 L736,144 L737,142 L738,139 L739,137 L740,135 L741,132 L742,131 L743,128 L744,126 L745,123 L746,121 L747,119 L748,116 L749,114 L750,111 L751,109 L752,108 L753,105 L754,102 L755,100 L756,98 L757,96 L758,93 L759,92 L760,88 L761,86 L762,85 L763,82 L764,80 L765,77 L766,75 L767,73 L768,70 L769,68 L770,65 L771,63 L772,61 L773,59 L774,57 L775,54 L776,52 L777,50 L778,47 L779,45 L780,43 L781,41 L782,40 L783,40 L784,137 L785,167 L786,167 L787,165 L788,162 L789,161 L790,157 L791,155 L792,153 L793,150 L794,149 L795,146 L796,144 L797,142 L798,139 L799,137 L800,134 L801,132 L802,131 L803,128 L804,125 L805,123 L806,121 L807,119 L808,116 L809,115 L810,111 L811,109 L812,108 L813,104 L814,103 L815,100 L816,98 L817,96 L818,93 L819,91 L820,88 L821,86 L822,84 L823,82 L824,80 L825,77 L826,75 L827,73 L828,70 L829,68 L830,65 L831,64 L832,62 L833,59 L834,57 L835,54 L836,52 L837,50 L838,47 L839,45 L840,42 L841,41 L842,40 L843,40 L844,137 L845,167 L846,167 L847,165 L848,162 L849,160 L850,157 L851,155 L852,154 L853,150 L854,149 L855,146 L856,144 L857,142 L858,139 L859,137 L860,134 L861,132 L862,131 L863,128 L864,126 L865,123 L866,121 L867,120 L868,116 L869,114 L870,111 L871,109 L872,108 L873,105 L874,102 L875,100 L876,98 L877,96 L878,93 L879,91 L880,89 L881,86 L882,85 L883,82 L884,80 L885,77 L886,75 L887,73 L888,70 L889,68 L890,65 L891,64 L892,62 L893,59 L894,57 L895,54 L896,52 L897,50 L898,47 L899,45 L900,42 L901,41 L902,41 L903,41 L904,137 L905,168 L906,167 L907,165 L908,162 L909,160 L910,157 L911,156 L912,153 L913,150 L914,149 L915,146 L916,144 L917,142 L918,139 L919,137 L920,134 L921,132 L922,131 L923,128 L924,126 L925,123 L926,121 L927,118 L928,116 L929,114 L930,111 L931,109 L932,107 L933,104 L934,102 L935,100 L936,98 L937,96 L938,93 L939,92 L940,88 L941,86 L942,85 L943,82 L944,80 L945,77 L946,75 L947,73 L948,70 L949,68 L950,65 L951,64 L952,61 L953,59 L954,57 L955,54 L956,52 L957,50 L958,47 L959,45 L960,43 L961,41 L962,40 L963,41 L964,137 L965,167 L966,167 L967,165 L968,162 L969,160 L970,157 L971,156 L972,154 L973,150 L974,149 L975,145 L976,144 L977,142 L978,139 L979,137 L980,134 L981,133 L982,131 L983,128 L984,126 L985,123 L986,121 L987,119 L988,116 L989,115 L990,112 L991,109 L992,107 L993,104 L994,102 L995,100 L996,97 L997,96 L998,93 L999,92 L1000,88 L1001,86 L1002,85 L1003,82 L1004,80 L1005,77 L1006,75 L1007,73 L1008,70 L1009,68 L1010,65 L1011,64 L1012,62 L1013,59 L1014,57 L1015,54 L1016,52 L1017,50 L1018,47 L1019,45 L1020,42 L1021,41 L1022,40 L1023,41 L1024,137 L1025,167 L1026,167 L1027,165 L1028,162 L1029,160 L1030,157 L1031,155 L1032,153 L1033,150 L1034,149 L1035,146 L1036,144 L1037,142 L1038,140 L1039,137 L1040,134 L1041,132 L1042,131 L1043,128 L1044,125 L1045,123 L1046,121 L1047,119 L1048,116 L1049,114 L1050,111 L1051,109 L1052,107 L1053,104 L1054,102 L1055,100 L1056,98 L1057,96 L1058,93 L1059,92 L1060,88 L1061,86 L1062,85 L1063,82 L1064,80 L1065,77 L1066,75 L1067,73 L1068,70 L1069,68 L1070,65 L1071,64 L1072,62 L1073,59 L1074,57 L1075,54 L1076,52 L1077,50 L1078,47 L1079,45 L1080,42 L1081,41 L1082,41 L1083,40 L1084,137 L1085,167 L1086,167 L1087,165 L1088,162 L1089,161 L1090,157 L1091,155 L1092,153 L1093,150 L1094,149 L1095,146 L1096,144 L1097,142 L1098,139 L1099,137 L1100,134 L1101,132 L1102,131 L1103,127 L1104,126 L1105,124 L1106,121 L1107,119 L1108,116 L1109,115 L1110,112 L1111,109 L1112,107 L1113,105 L1114,102 L1115,100 L1116,98 L1117,96 L1118,93 L1119,91 L1120,89 L1121,86 L1122,85 L1123,82 L1124,80 L1125,77 L1126,75 L1127,73 L1128,70 L1129,69 L1130,65 L1131,63 L1132,62 L1133,59 L1134,57 L1135,54 L1136,52 L1137,50 L1138,47 L1139,45 L1140,42 L1141,41 L1142,41 L1143,41 L1144,136 L1145,167 L1146,167 L1147,165 L1148,162 L1149,160 L1150,157 L1151,156 L1152,154 L1153,151 L1154,149 L1155,146 L1156,144 L1157,142 L1158,139 L1159,137 L1160,135 L1161,132 L1162,131 L1163,128 L1164,126 L1165,123 L1166,121 L1167,119 L1168,116 L1169,114 L1170,111 L1171,109 L1172,107 L1173,105 L1174,102 L1175,100 L1176,97 L1177,96 L1178,93 L1179,91 L1180,88 L1181,86 L1182,85 L1183,82 L1184,80 L1185,77 L1186,75 L1187,73 L1188,70 L1189,68 L1190,65 L1191,63 L1192,62 L1193,59 L1194,57 L1195,54 L1196,52 L1197,50 L1198,47 L1199,45 L1200,43 L1201,41 L1202,41 L1203,41 L1204,137 L1205,167 L1206,167 L1207,165 L1208,162 L1209,160 L1210,157 L1211,156 L1212,153 L1213,151 L1214,149 L1215,146 L1216,144 L1217,142 L1218,139 L1219,137 L1220,134 L1221,132 L1222,131 L1223,128 L1224,126 L1225,123 L1226,121 L1227,119 L1228,116 L1229,114 L1230,111 L1231,109 L1232,108 L1233,105 L1234,103 L1235,100 L1236,98 L1237,96 L1238,93 L1239,92 L1240,88 L1241,86 L1242,85 L1243,82 L1244,80 L1245,77 L1246,75 L1247,73 L1248,70 L1249,68 L1250,65 L1251,64 L1252,61 L1253,59 L1254,57 L1255,54 L1256,52 L1257,50 L1258,47 L1259,45 L1260,42 L1261,41 L1262,40 L1263,41 L1264,137 L1265,167 L1266,167 L1267,165 L1268,162 L1269,160 L1270,157 L1271,156 L1272,153 L1273,150 L1274,149 L1275,146 L1276,144 L1277,142 L1278,140 L1279,137 L1280,134 L1281,132 L1282,130 L1283,128 L1284,126 L1285,123 L1286,121 L1287,119 L1288,116 L1289,115 L1290,111 L1291,109 L1292,107 L1293,104 L1294,102 L1295,100 L1296,98 L1297,96 L1298,93 L1299,92 L1300,88 L1301,86 L1302,85 L1303,82 L1304,80 L1305,77 L1306,75 L1307,73 L1308,70 L1309,68 L1310,65 L1311,63 L1312,62 L1313,59 L1314,57 L1315,54 L1316,52 L1317,50 L1318,47 L1319,45 L1320,42 L1321,41 L1322,40 L1323,41 L1324,136 L1325,167 L1326,167 L1327,165 L1328,162 L1329,160 L1330,157 L1331,155 L1332,153 L1333,151 L1334,149 L1335,146 L1336,145 L1337,142 L1338,139 L1339,137 L1340,134 L1341,133 L1342,131 L1343,128 L1344,126 L1345,123 L1346,121 L1347,119 L1348,116 L1349,115 L1350,111 L1351,109 L1352,107 L1353,104 L1354,102 L1355,100 L1356,98 L1357,96 L1358,93 L1359,92 L1360,88 L1361,86 L1362,85 L1363,82 L1364,80 L1365,77 L1366,75 L1367,73 L1368,70 L1369,68 L1370,65 L1371,64 L1372,62 L1373,59 L1374,57 L1375,54 L1376,52 L1377,50 L1378,47 L1379,45 L1380,42 L1381,41 L1382,41 L1383,41 L1384,137 L1385,167 L1386,167 L1387,164 L1388,162 L1389,160 L1390,157 L1391,155 L1392,153 L1393,151 L1394,149 L1395,146 L1396,144 L1397,142 L1398,139 L1399,137 L1400,134 L1401,132 L1402,131 L1403,128 L1404,126 L1405,123 L1406,121 L1407,119 L1408,116 L1409,114 L1410,112 L1411,109 L1412,108 L1413,105 L1414,102 L1415,100 L1416,98 L1417,96 L1418,93 L1419,92 L1420,88 L1421,86 L1422,85 L1423,82 L1424,80 L1425,77 L1426,75 L1427,73 L1428,70 L1429,68 L1430,65 L1431,63 L1432,62 L1433,59 L1434,56 L1435,54 L1436,52 L1437,50 L1438,47 L1439,45 L1440,43 L1441,41 L1442,41 L1443,40 L1444,137 L1445,167 L1446,166 L1447,165 L1448,162 L1449,160 L1450,157 L1451,155 L1452,153 L1453,151 L1454,149 L1455,146 L1456,144 L1457,142 L1458,139 L1459,137 L1460,135 L1461,132 L1462,130 L1463,128 L1464,126 L1465,123 L1466,121 L1467,119 L1468,116 L1469,114 L1470,111 L1471,109 L1472,107 L1473,104 L1474,102 L1475,100 L1476,98 L1477,96 L1478,93 L1479,91 L1480,89 L1481,87 L1482,85 L1483,82 L1484,80 L1485,77 L1486,75 L1487,73 L1488,70 L1489,68 L1490,65 L1491,64 L1492,61 L1493,59 L1494,57 L1495,54 L1496,52 L1497,50 L1498,47 L1499,45 L1500,43 L1501,41 L1502,41 L1503,41 L1504,137 L1505,166 L1506,167 L1507,165 L1508,162 L1509,160 L1510,157 L1511,156 L1512,153 L1513,150 L1514,149 L1515,146 L1516,144 L1517,142 L1518,139 L1519,137 L1520,134 L1521,132 L1522,131 L1523,128 L1524,126 L1525,123 L1526,121 L1527,119 L1528,116 L1529,114 L1530,111 L1531,109 L1532,108 L1533,104 L1534,102 L1535,100 L1536,98 L1537,96 L1538,93 L1539,91 L1540,88 L1541,86 L1542,85 L1543,82 L1544,80 L1545,77 L1546,75 L1547,73 L1548,70 L1549,68 L1550,65 L1551,64 L1552,62 L1553,59 L1554,57 L1555,54 L1556,52 L1557,50 L1558,47 L1559,45 L1560,42 L1561,41 L1562,41 L1563,40 L1564,137 L1565,167 L1566,167 L1567,165 L1568,162 L1569,160 L1570,157 L1571,155 L1572,154 L1573,150 L1574,149 L1575,146 L1576,144 L1577,142 L1578,139 L1579,137 L1580,134 L1581,132 L1582,131 L1583,128 L1584,126 L1585,123 L1586,121 L1587,119 L1588,116 L1589,114 L1590,111 L1591,109 L1592,107 L1593,105 L1594,102 L1595,100 L1596,98 L1597,96 L1598,93 L1599,92 L1600,88 L1601,86 L1602,85 L1603,82 L1604,80 L1605,77 L1606,75 L1607,73 L1608,70 L1609,68 L1610,65 L1611,63 L1612,62 L1613,59 L1614,57 L1615,54 L1616,52 L1617,50 L1618,47 L1619,45 L1620,42 L1621,41 L1622,41 L1623,41 L1624,137 L1625,167 L1626,167 L1627,165 L1628,162 L1629,160 L1630,157 L1631,155 L1632,153 L1633,151 L1634,149 L1635,146 L1636,144 L1637,142 L1638,139 L1639,137 L1640,134 L1641,133 L1642,131 L1643,128 L1644,126 L1645,123 L1646,121 L1647,119 L1648,116 L1649,115 L1650,111 L1651,109 L1652,107 L1653,105 L1654,102 L1655,100 L1656,98 L1657,96 L1658,93 L1659,91 L1660,88 L1661,87 L1662,85 L1663,82 L1664,80 L1665,77 L1666,75 L1667,73 L1668,70 L1669,68 L1670,65 L1671,64 L1672,62 L1673,59 L1674,57 L1675,54 L1676,52 L1677,50 L1678,47 L1679,45 L1680,42 L1681,41 L1682,41 L1683,41 L1684,137 L1685,167 L1686,167 L1687,165 L1688,161 L1689,160 L1690,157 L1691,156 L1692,154 L1693,150 L1694,149 L1695,146 L1696,144 L1697,142 L1698,139 L1699,137 L1700,134 L1701,132 L1702,131 L1703,128 L1704,126 L1705,123 L1706,121 L1707,120 L1708,116 L1709,114 L1710,111 L1711,109 L1712,107 L1713,105 L1714,102 L1715,100 L1716,98 L1717,96 L1718,93 L1719,92 L1720,88 L1721,87 L1722,85 L1723,82 L1724,80 L1725,77 L1726,75 L1727,73 L1728,70 L1729,68 L1730,66 L1731,64 L1732,61 L1733,59 L1734,57 L1735,54 L1736,52 L1737,50 L1738,47 L1739,45 L1740,43 L1741,41 L1742,40 L1743,41 L1744,137 L1745,167 L1746,168 L1747,165 L1748,162 L1749,160 L1750,157 L1751,155 L1752,153 L1753,151 L1754,149 L1755,146 L1756,144 L1757,142 L1758,139 L1759,137 L1760,134 L1761,132 L1762,131 L1763,128 L1764,126 L1765,123 L1766,121 L1767,119 L1768,116 L1769,114 L1770,111 L1771,109 L1772,108 L1773,105 L1774,103 L1775,100 L1776,98 L1777,96 L1778,93 L1779,92 L1780,89 L1781,86 L1782,85 L1783,82 L1784,80 L1785,77 L1786,75 L1787,73 L1788,70 L1789,68 L1790,65 L1791,64 L1792,61 L1793,58 L1794,57 L1795,54 L1796,52 L1797,50 L1798,47 L1799,45 L1800,43 L1801,41 L1802,41 L1803,40 L1804,137 L1805,166 L1806,167 L1807,165 L1808,162 L1809,161 L1810,158 L1811,155 L1812,153 L1813,151 L1814,148 L1815,146 L1816,144 L1817,142 L1818,139 L1819,137 L1820,134 L1821,132 L1822,131 L1823,128 L1824,126 L1825,123 L1826,121 L1827,119 L1828,116 L1829,114 L1830,111 L1831,109 L1832,107 L1833,104 L1834,103 L1835,100 L1836,98 L1837,96 L1838,93 L1839,92 L1840,88 L1841,86 L1842,85 L1843,82 L1844,80 L1845,77 L1846,75 L1847,73 L1848,70 L1849,68 L1850,65 L1851,64 L1852,62 L1853,59 L1854,57 L1855,54 L1856,52 L1857,50 L1858,47 L1859,45 L1860,42 L1861,41 L1862,41 L1863,41 L1864,137 L1865,167 L1866,167 L1867,165 L1868,162 L1869,160 L1870,157 L1871,155 L1872,153 L1873,150 L1874,149 L1875,146 L1876,144 L1877,142 L1878,139 L1879,137 L1880,135 L1881,132 L1882,131 L1883,128 L1884,126 L1885,123 L1886,121 L1887,119 L1888,116 L1889,114 L1890,111 L1891,109 L1892,107 L1893,104 L1894,103 L1895,100 L1896,98 L1897,96 L1898,93 L1899,91 L1900,88 L1901,86 L1902,85 L1903,82 L1904,80 L1905,77 L1906,75 L1907,73 L1908,70 L1909,68 L1910,65 L1911,64 L1912,62 L1913,59 L1914,57 L1915,54 L1916,52 L1917,50 L1918,47 L1919,45 L1920,42 L1921,41 L1922,41 L1923,40 L1924,137 L1925,167 L1926,166 L1927,165 L1928,161 L1929,160 L1930,157 L1931,156 L1932,153 L1933,150 L1934,149 L1935,146 L1936,144 L1937,142 L1938,139 L1939,137 L1940,135 L1941,133 L1942,131 L1943,128 L1944,126 L1945,123 L1946,121 L1947,119 L1948,116 L1949,115 L1950,112 L1951,109 L1952,108 L1953,105 L1954,102 L1955,100 L1956,98 L1957,96 L1958,93 L1959,92 L1960,89 L1961,86 L1962,85 L1963,82 L1964,80 L1965,77 L1966,75 L1967,73 L1968,70 L1969,68 L1970,65 L1971,63 L1972,61 L1973,59 L1974,57 L1975,53 L1976,52 L1977,50 L1978,47 L1979,45 L1980,43 L1981,41 L1982,41 L1983,41 L1984,137 L1985,167 L1986,167 L1987,165 L1988,161 L1989,160 L1990,157 L1991,156 L1992,153 L1993,150 L1994,149 L1995,146 L1996,144 L1997,142 L1998,139 L1999,137 L2000,134 L2001,132 L2002,130 L2003,128 L2004,126 L2005,123 L2006,121 L2007,119 L2008,116 L2009,115 L2010,112 L2011,109 L2012,107 L2013,105 L2014,102 L2015,100 L2016,98 L2017,96 L2018,93 L2019,92 L2020,88 L2021,86 L2022,85 L2023,82 L2024,80 L2025,77 L2026,75 L2027,73 L2028,70 L2029,68 L2030,65 L2031,63 L2032,62 L2033,59 L2034,57 L2035,53 L2036,52 L2037,50 L2038,47 L2039,45 L2040,43 L2041,41 L2042,41 L2043,41 L2044,137 L2045,167 L2046,167 L2047,165 L2048,162 L2049,160 L2050,157 L2051,156 L2052,153 L2053,150 L2054,149 L2055,146 L2056,144 L2057,142 L2058,139 L2059,137 L2060,134 L2061,132 L2062,130 L2063,128 L2064,125 L2065,124 L2066,121 L2067,119 L2068,116 L2069,114 L2070,111 L2071,109 L2072,107 L2073,104 L2074,102 L2075,100 L2076,98 L2077,96 L2078,93 L2079,91 L2080,88 L2081,86 L2082,85 L2083,82 L2084,80 L2085,77 L2086,75 L2087,73 L2088,70 L2089,68 L2090,65 L2091,63 L2092,61 L2093,58 L2094,57 L2095,54 L2096,52 L2097,50 L2098,47 L2099,45 L2100,42 L2101,41 L2102,40 L2103,40 L2104,137 L2105,167 L2106,167 L2107,165 L2108,162 L2109,160 L2110,157 L2111,155 L2112,154 L2113,151 L2114,149 L2115,146 L2116,144 L2117,142 L2118,139 L2119,137 L2120,135 L2121,132 L2122,131 L2123,128 L2124,126 L2125,123 L2126,121 L2127,119 L2128,116 L2129,115 L2130,111 L2131,109 L2132,107 L2133,105 L2134,102 L2135,100 L2136,98 L2137,96 L2138,93 L2139,91 L2140,88 L2141,86 L2142,85 L2143,82 L2144,80 L2145,77 L2146,75 L2147,73 L2148,70 L2149,68 L2150,65 L2151,64 L2152,62 L2153,59 L2154,57 L2155,54 L2156,52 L2157,50 L2158,47 L2159,45 L2160,42 L2161,41 L2162,41 L2163,41 L2164,137 L2165,167 L2166,167 L2167,165 L2168,162 L2169,160 L2170,157 L2171,156 L2172,153 L2173,150 L2174,149 L2175,146 L2176,144 L2177,142 L2178,139 L2179,137 L2180,134 L2181,132 L2182,131 L2183,128 L2184,126 L2185,123 L2186,121 L2187,119 L2188,116 L2189,114 L2190,111 L2191,109 L2192,108 L2193,105 L2194,102 L2195,100 L2196,98 L2197,96 L2198,93 L2199,91 L2200,88 L2201,87 L2202,85 L2203,82 L2204,80 L2205,77 L2206,75 L2207,73 L2208,70 L2209,68 L2210,65 L2211,64 L2212,61 L2213,59 L2214,57 L2215,54 L2216,52 L2217,50 L2218,47 L2219,45 L2220,43 L2221,41 L2222,40 L2223,41 L2224,137 L2225,167 L2226,167 L2227,165 L2228,162 L2229,160 L2230,157 L2231,155 L2232,154 L2233,151 L2234,149 L2235,146 L2236,144 L2237,142 L2238,139 L2239,137 L2240,134 L2241,132 L2242,131 L2243,128 L2244,126 L2245,123 L2246,121 L2247,119 L2248,116 L2249,115 L2250,111 L2251,109 L2252,108 L2253,105 L2254,102 L2255,100 L2256,98 L2257,96 L2258,93 L2259,91 L2260,89 L2261,86 L2262,85 L2263,82 L2264,80 L2265,77 L2266,75 L2267,73 L2268,70 L2269,69 L2270,65 L2271,63 L2272,62 L2273,58 L2274,57 L2275,53 L2276,52 L2277,50 L2278,47 L2279,45 L2280,42 L2281,41 L2282,40 L2283,40 L2284,137 L2285,167 L2286,167 L2287,165 L2288,162 L2289,160 L2290,157 L2291,156 L2292,153 L2293,151 L2294,149 L2295,146 L2296,144 L2297,142 L2298,139 L2299,137 L2300,134 L2301,132 L2302,130 L2303,128 L2304,126 L2305,123 L2306,121 L2307,119 L2308,116 L2309,114 L2310,112 L2311,109 L2312,108 L2313,105 L2314,102 L2315,100 L2316,98 L2317,96 L2318,93 L2319,91 L2320,88 L2321,86 L2322,85 L2323,81 L2324,80 L2325,77 L2326,75 L2327,73 L2328,70 L2329,68 L2330,65 L2331,63 L2332,61 L2333,59 L2334,57 L2335,54 L2336,52 L2337,50 L2338,47 L2339,45 L2340,42 L2341,41 L2342,41 L2343,40 L2344,137 L2345,167 L2346,167 L2347,165 L2348,162 L2349,161 L2350,157 L2351,156 L2352,153 L2353,150 L2354,149 L2355,146 L2356,144 L2357,142 L2358,139 L2359,137 L2360,135 L2361,132 L2362,130 L2363,128 L2364,126 L2365,123 L2366,121 L2367,119 L2368,116 L2369,114 L2370,111 L2371,109 L2372,107 L2373,104 L2374,102 L2375,100 L2376,99 L2377,96 L2378,93 L2379,92 L2380,89 L2381,86 L2382,85 L2383,82 L2384,80 L2385,77 L2386,75 L2387,73 L2388,70 L2389,68 L2390,65 L2391,63 L2392,62 L2393,59 L2394,57 L2395,54 L2396,52 L2397,50 L2398,47 L2399,45 L2400,43 L2401,41 L2402,41 L2403,41 L2404,137 L2405,167 L2406,167 L2407,165 L2408,162 L2409,160 L2410,157 L2411,155 L2412,154 L2413,150 L2414,149 L2415,146 L2416,144 L2417,142 L2418,139 L2419,137 L2420,134 L2421,132 L2422,131 L2423,128 L2424,126 L2425,123 L2426,121 L2427,119 L2428,116 L2429,114 L2430,111 L2431,109 L2432,108 L2433,105 L2434,102 L2435,99 L2436,98 L2437,96 L2438,93 L2439,91 L2440,89 L2441,86 L2442,85 L2443,82 L2444,80 L2445,77 L2446,75 L2447,73 L2448,70 L2449,68 L2450,65 L2451,64 L2452,62 L2453,59 L2454,57 L2455,54 L2456,52 L2457,50 L2458,47 L2459,45 L2460,42 L2461,41 L2462,40 L2463,41 L2464,137 L2465,167 L2466,167 L2467,165 L2468,162 L2469,160 L2470,157 L2471,155 L2472,153 L2473,150 L2474,149 L2475,146 L2476,144 L2477,142 L2478,139 L2479,137 L2480,134 L2481,133 L2482,131 L2483,128 L2484,126 L2485,123 L2486,121 L2487,119 L2488,116 L2489,115 L2490,111 L2491,109 L2492,108 L2493,105 L2494,102 L2495,100 L2496,98 L2497,96 L2498,93 L2499,92 L2500,88 L2501,86 L2502,85 L2503,82 L2504,80 L2505,77 L2506,75 L2507,73 L2508,70 L2509,68 L2510,65 L2511,64 L2512,62 L2513,59 L2514,57 L2515,54 L2516,52 L2517,50 L2518,47 L2519,45 L2520,42 L2521,41 L2522,40 L2523,40 L2524,137 L2525,167 L2526,167 L2527,165 L2528,162 L2529,160 L2530,157 L2531,156 L2532,154 L2533,151 L2534,149 L2535,146 L2536,144 L2537,142 L2538,139 L2539,137 L2540,134 L2541,132 L2542,131 L2543,128 L2544,126 L2545,123 L2546,121 L2547,119 L2548,116 L2549,115 L2550,112 L2551,109 L2552,108 L2553,105 L2554,102 L2555,100 L2556,98 L2557,96 L2558,93 L2559,91 L2560,89 L2561,86 L2562,85 L2563,82 L2564,80 L2565,77 L2566,75 L2567,73 L2568,70 L2569,68 L2570,66 L2571,64 L2572,62 L2573,59 L2574,57 L2575,54 L2576,52 L2577,50 L2578,47 L2579,45 L2580,42 L2581,41 L2582,40 L2583,40 L2584,137 L2585,168 L2586,167 L2587,165 L2588,162 L2589,160 L2590,157 L2591,156 L2592,153 L2593,150 L2594,149 L2595,146 L2596,144 L2597,142 L2598,139 L2599,137 L2600,134 L2601,133 L2602,131 L2603,128 L2604,126 L2605,123 L2606,121 L2607,119 L2608,116 L2609,115 L2610,111 L2611,109 L2612,108 L2613,104 L2614,102 L2615,100 L2616,98 L2617,96 L2618,93 L2619,92 L2620,88 L2621,86 L2622,85 L2623,82 L2624,80 L2625,77 L2626,75 L2627,73 L2628,70 L2629,69 L2630,65 L2631,64 L2632,62 L2633,59 L2634,57 L2635,54 L2636,52 L2637,50 L2638,47 L2639,45 L2640,42 L2641,41 L2642,41 L2643,40 L2644,137 L2645,168 L2646,167 L2647,165 L2648,162 L2649,160 L2650,157 L2651,156 L2652,153 L2653,150 L2654,149 L2655,146 L2656,144 L2657,142 L2658,139 L2659,137 L2660,134 L2661,132 L2662,131 L2663,128 L2664,126 L2665,123 L2666,121 L2667,119 L2668,116 L2669,115 L2670,112 L2671,109 L2672,108 L2673,105 L2674,102 L2675,100 L2676,98 L2677,96 L2678,93 L2679,92 L2680,88 L2681,86 L2682,84 L2683,82 L2684,80 L2685,77 L2686,75 L2687,73 L2688,70 L2689,68 L2690,65 L2691,64 L2692,61 L2693,59 L2694,57 L2695,54 L2696,52 L2697,50 L2698,47 L2699,45 L2700,43 L2701,41 L2702,41 L2703,41 L2704,137 L2705,167 L2706,167 L2707,165 L2708,162 L2709,160 L2710,158 L2711,155 L2712,153 L2713,151 L2714,149 L2715,146 L2716,144 L2717,142 L2718,139 L2719,137 L2720,134 L2721,132 L2722,130 L2723,128 L2724,126 L2725,124 L2726,121 L2727,119 L2728,116 L2729,114 L2730,112 L2731,109 L2732,108 L2733,105 L2734,103 L2735,100 L2736,98 L2737,96 L2738,93 L2739,91 L2740,88 L2741,87 L2742,85 L2743,82 L2744,80 L2745,77 L2746,75 L2747,73 L2748,70 L2749,68 L2750,65 L2751,64 L2752,61 L2753,59 L2754,57 L2755,53 L2756,52 L2757,50 L2758,46 L2759,45 L2760,43 L2761,41 L2762,41 L2763,41 L2764,137 L2765,167 L2766,167 L2767,165 L2768,162 L2769,160 L2770,157 L2771,156 L2772,153 L2773,150 L2774,149 L2775,146 L2776,144 L2777,142 L2778,139 L2779,137 L2780,134 L2781,133 L2782,131 L2783,128 L2784,126 L2785,123 L2786,121 L2787,119 L2788,116 L2789,114 L2790,112 L2791,109 L2792,107 L2793,105 L2794,102 L2795,99 L2796,98 L2797,96 L2798,93 L2799,92 L2800,89 L2801,86 L2802,85 L2803,82 L2804,80 L2805,77 L2806,75 L2807,73 L2808,70 L2809,68 L2810,65 L2811,64 L2812,61 L2813,59 L2814,57 L2815,54 L2816,52 L2817,50 L2818,47 L2819,45 L2820,43 L2821,41 L2822,41 L2823,41 L2824,137 L2825,167 L2826,167 L2827,165 L2828,162 L2829,160 L2830,157 L2831,156 L2832,153 L2833,150 L2834,149 L2835,146 L2836,144 L2837,142 L2838,140 L2839,137 L2840,135 L2841,133 L2842,130 L2843,128 L2844,126 L2845,123 L2846,121 L2847,119 L2848,116 L2849,114 L2850,111 L2851,109 L2852,107 L2853,105 L2854,102 L2855,100 L2856,98 L2857,96 L2858,93 L2859,91 L2860,88 L2861,86 L2862,85 L2863,82 L2864,80 L2865,77 L2866,75 L2867,73 L2868,70 L2869,68 L2870,65 L2871,64 L2872,62 L2873,59 L2874,57 L2875,54 L2876,52 L2877,50 L2878,47 L2879,45 L2880,43 L2881,41 L2882,40 L2883,41 L2884,137 L2885,167 L2886,167 L2887,165 L2888,162 L2889,161 L2890,157 L2891,155 L2892,154 L2893,150 L2894,149 L2895,146 L2896,144 L2897,142 L2898,139 L2899,137 L2900,134 L2901,133 L2902,131 L2903,128 L2904,126 L2905,123 L2906,121 L2907,119 L2908,116 L2909,115 L2910,111 L2911,109 L2912,107 L2913,105 L2914,103 L2915,100 L2916,98 L2917,97 L2918,94 L2919,91 L2920,89 L2921,86 L2922,84 L2923,82 L2924,80 L2925,77 L2926,75 L2927,73 L2928,70 L2929,68 L2930,65 L2931,64 L2932,61 L2933,58 L2934,57 L2935,54 L2936,52 L2937,50 L2938,47 L2939,45 L2940,43 L2941,41 L2942,40 L2943,41 L2944,137 L2945,167 L2946,167 L2947,165 L2948,162 L2949,160 L2950,157 L2951,156 L2952,153 L2953,150 L2954,149 L2955,146 L2956,144 L2957,142 L2958,140 L2959,137 L2960,134 L2961,132 L2962,131 L2963,128 L2964,126 L2965,124 L2966,121 L2967,119 L2968,116 L2969,115 L2970,111 L2971,109 L2972,107 L2973,105 L2974,102 L2975,100 L2976,98 L2977,96 L2978,93 L2979,91 L2980,88 L2981,86 L2982,85 L2983,82 L2984,80 L2985,77 L2986,75 L2987,73 L2988,70 L2989,68 L2990,65 L2991,63 L2992,62 L2993,59 L2994,57 L2995,54 L2996,52 L2997,50 L2998,47 L2999,45 L3000,42 L3001,41 L3002,41 L3003,41 L3004,137 L3005,167 L3006,167 L3007,165 L3008,162 L3009,161 L3010,157 L3011,156 L3012,154 L3013,150 L3014,149 L3015,146 L3016,144 L3017,142 L3018,139 L3019,137 L3020,134 L3021,132 L3022,130 L3023,128 L3024,126 L3025,123 L3026,121 L3027,119 L3028,116 L3029,115 L3030,111 L3031,109 L3032,107 L3033,104 L3034,102 L3035,100 L3036,98 L3037,96 L3038,93 L3039,91 L3040,88 L3041,86 L3042,85 L3043,81 L3044,80 L3045,77 L3046,75 L3047,73 L3048,70 L3049,68 L3050,65 L3051,64 L3052,61 L3053,59 L3054,57 L3055,54 L3056,52 L3057,50 L3058,47 L3059,45 L3060,43 L3061,41 L3062,41 L3063,40 L3064,137 L3065,167 L3066,166 L3067,165 L3068,162 L3069,160 L3070,158 L3071,155 L3072,153 L3073,150 L3074,149 L3075,146 L3076,144 L3077,142 L3078,139 L3079,137 L3080,135 L3081,132 L3082,131 L3083,128 L3084,126 L3085,123 L3086,121 L3087,119 L3088,116 L3089,115 L3090,112 L3091,109 L3092,107 L3093,105 L3094,102 L3095,100 L3096,98 L3097,96 L3098,93 L3099,91 L3100,88 L3101,86 L3102,85 L3103,82 L3104,80 L3105,77 L3106,75 L3107,73 L3108,70 L3109,68 L3110,65 L3111,64 L3112,61 L3113,59 L3114,57 L3115,54 L3116,52 L3117,50 L3118,47 L3119,45 L3120,42 L3121,41 L3122,41 L3123,40 L3124,137 L3125,167 L3126,167 L3127,164 L3128,161 L3129,160 L3130,157 L3131,155 L3132,153 L3133,151 L3134,149 L3135,146 L3136,144 L3137,142 L3138,139 L3139,137 L3140,134 L3141,132 L3142,131 L3143,128 L3144,126 L3145,124 L3146,121 L3147,119 L3148,116 L3149,115 L3150,111 L3151,109 L3152,108 L3153,105 L3154,102 L3155,100 L3156,98 L3157,96 L3158,93 L3159,91 L3160,88 L3161,87 L3162,85 L3163,82 L3164,80 L3165,77 L3166,75 L3167,73 L3168,70 L3169,68 L3170,65 L3171,63 L3172,61 L3173,59 L3174,57 L3175,54 L3176,52 L3177,50 L3178,47 L3179,45 L3180,42 L3181,41 L3182,40 L3183,40 L3184,137 L3185,167 L3186,167 L3187,164 L3188,162 L3189,160 L3190,157 L3191,155 L3192,153 L3193,151 L3194,149 L3195,146 L3196,144 L3197,142 L3198,139 L3199,137 L3200,134 L3201,132 L3202,131 L3203,128 L3204,126 L3205,123 L3206,121 L3207,119 L3208,116 L3209,114 L3210,111 L3211,109 L3212,107 L3213,105 L3214,103 L3215,100 L3216,98 L3217,96 L3218,93 L3219,91 L3220,88 L3221,86 L3222,85 L3223,82 L3224,80 L3225,77 L3226,75 L3227,73 L3228,70 L3229,68 L3230,66 L3231,64 L3232,62 L3233,59 L3234,57 L3235,54 L3236,52 L3237,50 L3238,47 L3239,45 L3240,43 L3241,41 L3242,41 L3243,41 L3244,137 L3245,167 L3246,167 L3247,164 L3248,162 L3249,160 L3250,157 L3251,155 L3252,153 L3253,150 L3254,149 L3255,146 L3256,144 L3257,142 L3258,139 L3259,137 L3260,134 L3261,132 L3262,131 L3263,128 L3264,126 L3265,123 L3266,121 L3267,119 L3268,116 L3269,114 L3270,112 L3271,109 L3272,107 L3273,104 L3274,102 L3275,100 L3276,98 L3277,96 L3278,93 L3279,92 L3280,88 L3281,86 L3282,85 L3283,81 L3284,80 L3285,77 L3286,75 L3287,73 L3288,70 L3289,68 L3290,66 L3291,64 L3292,61 L3293,59 L3294,57 L3295,54 L3296,52 L3297,50 L3298,47 L3299,45 L3300,43 L3301,41 L3302,41 L3303,41 L3304,137 L3305,167 L3306,166 L3307,164 L3308,162 L3309,160 L3310,157 L3311,156 L3312,153 L3313,150 L3314,149 L3315,146 L3316,144 L3317,142 L3318,139 L3319,137 L3320,134 L3321,132 L3322,131 L3323,128 L3324,126 L3325,123 L3326,121 L3327,119 L3328,116 L3329,114 L3330,112 L3331,109 L3332,108 L3333,104 L3334,103 L3335,100 L3336,98 L3337,96 L3338,93 L3339,91 L3340,88 L3341,86 L3342,85 L3343,82 L3344,80 L3345,77 L3346,75 L3347,73 L3348,70 L3349,68 L3350,66 L3351,64 L3352,61 L3353,59 L3354,57 L3355,54 L3356,52 L3357,50 L3358,47 L3359,45 L3360,43 L3361,41 L3362,41 L3363,41 L3364,137 L3365,167 L3366,167 L3367,165 L3368,162 L3369,160 L3370,157 L3371,156 L3372,153 L3373,151 L3374,149 L3375,146 L3376,144 L3377,142 L3378,139 L3379,138 L3380,134 L3381,132 L3382,131 L3383,128 L3384,126 L3385,124 L3386,121 L3387,119 L3388,116 L3389,115 L3390,112 L3391,109 L3392,107 L3393,105 L3394,102 L3395,100 L3396,98 L3397,96 L3398,93 L3399,91 L3400,88 L3401,86 L3402,85 L3403,82 L3404,80 L3405,77 L3406,75 L3407,73 L3408,70 L3409,68 L3410,65 L3411,63 L3412,61 L3413,59 L3414,57 L3415,54 L3416,52 L3417,50 L3418,47 L3419,45 L3420,42 L3421,41 L3422,41 L3423,40 L3424,137 L3425,167 L3426,167 L3427,165 L3428,161 L3429,160 L3430,157 L3431,155 L3432,154 L3433,150 L3434,149 L3435,146 L3436,144 L3437,142 L3438,139 L3439,138 L3440,134 L3441,132 L3442,131 L3443,128 L3444,126 L3445,123 L3446,121 L3447,119 L3448,116 L3449,115 L3450,111 L3451,109 L3452,108 L3453,105 L3454,102 L3455,100 L3456,98 L3457,96 L3458,93 L3459,92 L3460,88 L3461,86 L3462,85 L3463,82 L3464,80 L3465,77 L3466,75 L3467,73 L3468,70 L3469,68 L3470,65 L3471,63 L3472,61 L3473,59 L3474,57 L3475,54 L3476,52 L3477,50 L3478,47 L3479,45 L3480,42 L3481,41 L3482,41 L3483,41 L3484,137 L3485,167 L3486,167 L3487,165 L3488,162 L3489,160 L3490,157 L3491,155 L3492,153 L3493,150 L3494,149 L3495,146 L3496,144 L3497,142 L3498,140 L3499,137 L3500,134 L3501,132 L3502,131 L3503,128 L3504,126 L3505,124 L3506,121 L3507,120 L3508,116 L3509,114 L3510,111 L3511,109 L3512,108 L3513,104 L3514,103 L3515,100 L3516,98 L3517,96 L3518,93 L3519,92 L3520,88 L3521,87 L3522,85 L3523,82 L3524,81 L3525,77 L3526,75 L3527,73 L3528,70 L3529,68 L3530,66 L3531,64 L3532,62 L3533,59 L3534,57 L3535,54 L3536,52 L3537,50 L3538,47 L3539,45 L3540,43 L3541,41 L3542,40 L3543,41 L3544,137 L3545,167 L3546,168 L3547,165 L3548,162 L3549,160 L3550,157 L3551,156 L3552,153 L3553,150 L3554,149 L3555,146 L3556,144 L3557,142 L3558,139 L3559,137 L3560,134 L3561,133 L3562,131 L3563,128 L3564,126 L3565,123 L3566,121 L3567,119 L3568,116 L3569,114 L3570,112 L3571,109 L3572,108 L3573,105 L3574,102 L3575,100 L3576,98 L3577,96 L3578,93 L3579,92 L3580,89 L3581,87 L3582,85 L3583,82 L3584,80 L3585,77 L3586,75 L3587,73 L3588,70 L3589,68 L3590,65 L3591,64 L3592,61 L3593,59 L3594,57 L3595,54 L3596,52 L3597,50 L3598,47 L3599,45 L3600,43 L3601,41 L3602,41 L3603,41 L3604,137 L3605,167 L3606,167 L3607,165 L3608,162 L3609,160 L3610,158 L3611,156 L3612,153 L3613,150 L3614,149 L3615,146 L3616,144 L3617,142 L3618,140 L3619,137 L3620,134 L3621,132 L3622,130 L3623,128 L3624,126 L3625,123 L3626,121 L3627,119 L3628,116 L3629,114 L3630,111 L3631,109 L3632,107 L3633,104 L3634,102 L3635,100 L3636,98 L3637,96 L3638,93 L3639,92 L3640,88 L3641,86 L3642,84 L3643,82 L3644,80 L3645,77 L3646,75 L3647,73 L3648,70 L3649,68 L3650,65 L3651,64 L3652,62 L3653,59 L3654,57 L3655,54 L3656,52 L3657,51 L3658,47 L3659,45 L3660,43 L3661,41 L3662,41 L3663,41 L3664,137 L3665,167 L3666,166 L3667,165 L3668,162 L3669,160 L3670,157 L3671,156 L3672,153 L3673,150 L3674,149 L3675,146 L3676,144 L3677,142 L3678,139 L3679,137 L3680,134 L3681,132 L3682,131 L3683,128 L3684,126 L3685,123 L3686,121 L3687,119 L3688,116 L3689,115 L3690,112 L3691,109 L3692,108 L3693,105 L3694,102 L3695,100 L3696,98 L3697,96 L3698,93 L3699,91 L3700,89 L3701,86 L3702,85 L3703,82 L3704,80 L3705,77 L3706,75 L3707,73 L3708,70 L3709,68 L3710,65 L3711,64 L3712,62 L3713,58 L3714,57 L3715,54 L3716,52 L3717,50 L3718,47 L3719,45 L3720,43 L3721,41 L3722,40 L3723,41 L3724,137 L3725,167 L3726,167 L3727,165 L3728,162 L3729,160 L3730,157 L3731,156 L3732,154 L3733,151 L3734,149 L3735,146 L3736,144 L3737,142 L3738,139 L3739,137 L3740,134 L3741,132 L3742,130 L3743,128 L3744,126 L3745,123 L3746,121 L3747,119 L3748,116 L3749,114 L3750,111 L3751,109 L3752,107 L3753,104 L3754,103 L3755,100 L3756,98 L3757,96 L3758,93 L3759,91 L3760,88 L3761,86 L3762,85 L3763,82 L3764,80 L3765,77 L3766,75 L3767,73 L3768,70 L3769,68 L3770,65 L3771,64 L3772,62 L3773,59 L3774,57 L3775,54 L3776,52 L3777,50 L3778,47 L3779,45 L3780,42 L3781,41 L3782,41 L3783,41 L3784,137 L3785,167 L3786,167 L3787,164 L3788,162 L3789,160 L3790,157 L3791,156 L3792,153 L3793,151 L3794,149 L3795,146 L3796,144 L3797,142 L3798,139 L3799,137 L3800,134 L3801,132 L3802,131 L3803,128 L3804,126 L3805,123 L3806,121 L3807,119 L3808,116 L3809,114 L3810,112 L3811,109 L3812,108 L3813,105 L3814,102 L3815,100 L3816,98 L3817,96 L3818,93 L3819,91 L3820,88 L3821,87 L3822,85 L3823,82 L3824,80 L3825,77 L3826,75 L3827,73 L3828,70 L3829,68 L3830,65 L3831,64 L3832,62 L3833,59 L3834,57 L3835,54 L3836,52 L3837,50 L3838,47 L3839,45 L3840,42 L3841,41 L3842,41 L3843,40 L3844,137 L3845,167 L3846,167 L3847,164 L3848,162 L3849,160 L3850,158 L3851,155 L3852,153 L3853,151 L3854,149 L3855,146 L3856,144 L3857,142 L3858,139 L3859,137 L3860,135 L3861,132 L3862,131 L3863,128 L3864,126 L3865,123 L3866,121 L3867,119 L3868,116 L3869,114 L3870,112 L3871,109 L3872,108 L3873,105 L3874,102 L3875,100 L3876,98 L3877,96 L3878,93 L3879,92 L3880,89 L3881,86 L3882,85 L3883,82 L3884,80 L3885,77 L3886,75 L3887,73 L3888,70 L3889,68 L3890,65 L3891,63 L3892,61 L3893,58 L3894,57 L3895,53 L3896,52 L3897,50 L3898,47 L3899,45 L3900,43 L3901,41 L3902,41 L3903,41 L3904,137 L3905,167 L3906,167 L3907,165 L3908,162 L3909,160 L3910,157 L3911,156 L3912,153 L3913,151 L3914,149 L3915,146 L3916,144 L3917,142 L3918,139 L3919,137 L3920,134 L3921,132 L3922,130 L3923,128 L3924,126 L3925,123 L3926,121 L3927,119 L3928,116 L3929,115 L3930,112 L3931,109 L3932,107 L3933,105 L3934,102 L3935,100 L3936,98 L3937,97 L3938,93 L3939,92 L3940,89 L3941,86 L3942,85 L3943,82 L3944,80 L3945,77 L3946,75 L3947,73 L3948,70 L3949,68 L3950,65 L3951,64 L3952,62 L3953,59 L3954,57 L3955,54 L3956,52 L3957,50 L3958,47 L3959,45 L3960,42 L3961,41 L3962,41 L3963,41 L3964,137 L3965,168 L3966,167 L3967,165 L3968,162 L3969,160 L3970,157 L3971,155 L3972,154 L3973,150 L3974,149 L3975,146 L3976,144 L3977,142 L3978,139 L3979,137 L3980,134 L3981,132 L3982,131 L3983,128 L3984,126 L3985,123 L3986,121 L3987,119 L3988,116 L3989,115 L3990,112 L3991,109 L3992,107 L3993,105 L3994,102 L3995,100 L3996,98 L3997,96 L3998,93 L3999,92 L4000,88 L4001,86 L4002,85 L4003,82 L4004,80 L4005,77 L4006,75 L4007,73 L4008,70 L4009,68 L4010,65 L4011,63 L4012,61 L4013,59 L4014,57 L4015,54 L4016,52 L4017,50 L4018,46 L4019,45 L4020,42 L4021,41 L4022,41 L4023,41 L4024,137 L4025,167 L4026,167 L4027,165 L4028,162 L4029,160 L4030,157 L4031,155 L4032,153 L4033,150 L4034,149 L4035,146 L4036,144 L4037,142 L4038,139 L4039,137 L4040,134 L4041,132 L4042,131 L4043,128 L4044,126 L4045,123 L4046,121 L4047,119 L4048,116 L4049,114 L4050,111 L4051,109 L4052,107 L4053,105 L4054,102 L4055,100 L4056,98 L4057,96 L4058,93 L4059,91 L4060,89 L4061,86 L4062,85 L4063,82 L4064,80 L4065,78 L4066,75 L4067,73 L4068,70 L4069,68 L4070,65 L4071,63 L4072,62 L4073,59 L4074,57 L4075,54 L4076,52 L4077,50 L4078,47 L4079,45 L4080,42 L4081,41 L4082,41 L4083,41 L4084,137 L4085,167 L4086,167 L4087,165 L4088,162 L4089,160 L4090,157 L4091,156 L4092,153 L4093,150 L4094,149 L4095,146 "/>
<path stroke="cyan" fill="none" stroke-width="1" d="M0,159 L1,156 L2,157 L3,157 L4,159 L5,157 L6,156 L7,157 L8,159 L9,156 L10,159 L11,158 L12,156 L13,156 L14,159 L15,156 L16,156 L17,159 L18,157 L19,156 L20,158 L21,157 L22,156 L23,159 L24,159 L25,156 L26,156 L27,159 L28,156 L29,159 L30,159 L31,159 L32,159 L33,157 L34,157 L35,157 L36,156 L37,156 L38,159 L39,159 L40,156 L41,157 L42,159 L43,156 L44,156 L45,159 L46,156 L47,156 L48,158 L49,157 L50,156 L51,159 L52,159 L53,154 L54,157 L55,157 L56,156 L57,159 L58,158 L59,157 L60,159 L61,159 L62,157 L63,156 L64,159 L65,156 L66,157 L67,159 L68,159 L69,156 L70,159 L71,157 L72,156 L73,156 L74,156 L75,157 L76,159 L77,157 L78,157 L79,159 L80,159 L81,156 L82,159 L83,156 L84,156 L85,159 L86,157 L87,156 L88,158 L89,159 L90,156 L91,159 L92,157 L93,156 L94,156 L95,159 L96,157 L97,156 L98,159 L99,157 L100,156 L101,157 L102,156 L103,156 L104,157 L105,157 L106,157 L107,157 L108,159 L109,157 L110,159 L111,157 L112,157 L113,159 L114,157 L115,157 L116,158 L117,157 L118,157 L119,159 L120,157 L121,154 L122,157 L123,159 L124,156 L125,157 L126,158 L127,156 L128,156 L129,159 L130,156 L131,154 L132,159 L133,157 L134,156 L135,158 L136,159 L137,156 L138,157 L139,159 L140,156 L141,156 L142,157 L143,157 L144,159 L145,159 L146,157 L147,159 L148,157 L149,156 L150,157 L151,156 L152,156 L153,159 L154,159 L155,156 L156,157 L157,159 L158,156 L159,156 L160,159 L161,156 L162,156 L163,158 L164,159 L165,156 L166,158 L167,159 L168,156 L169,159 L170,159 L171,156 L172,159 L173,158 L174,157 L175,157 L176,159 L177,156 L178,156 L179,156 L180,157 L181,157 L182,159 L183,157 L184,157 L185,159 L186,157 L187,156 L188,157 L189,156 L190,157 L191,159 L192,157 L193,157 L194,159 L195,159 L196,156 L197,159 L198,159 L199,154 L200,158 L201,158 L202,157 L203,157 L204,159 L205,157 L206,156 L207,157 L208,156 L209,156 L210,157 L211,157 L212,157 L213,157 L214,157 L215,157 L216,159 L217,154 L218,156 L219,159 L220,157 L221,156 L222,158 L223,159 L224,156 L225,159 L226,159 L227,154 L228,159 L229,159 L230,157 L231,159 L232,158 L233,157 L234,157 L235,159 L236,156 L237,156 L238,157 L239,157 L240,157 L241,157 L242,157 L243,157 L244,159 L245,156 L246,157 L247,159 L248,156 L249,157 L250,159 L251,159 L252,156 L253,159 L254,157 L255,156 L256,157 L257,159 L258,156 L259,159 L260,158 L261,157 L262,157 L263,159 L264,156 L265,156 L266,157 L267,157 L268,156 L269,159 L270,157 L271,157 L272,157 L273,156 L274,157 L275,157 L276,156 L277,157 L278,158 L279,159 L280,157 L281,159 L282,157 L283,156 L284,159 L285,157 L286,156 L287,159 L288,158 L289,156 L290,159 L291,158 L292,156 L293,156 L294,159 L295,156 L296,156 L297,159 L298,157 L299,156 L300,159 L301,157 L302,156 L303,157 L304,157 L305,156 L306,157 L307,158 L308,157 L309,157 L310,157 L311,157 L312,157 L313,157 L314,156 L315,159 L316,157 L317,157 L318,158 L319,159 L320,156 L321,159 L322,157 L323,154 L324,156 L325,159 L326,157 L327,157 L328,159 L329,157 L330,156 L331,159 L332,157 L333,154 L334,159 L335,158 L336,156 L337,159 L338,159 L339,156 L340,157 L341,157 L342,156 L343,157 L344,157 L345,159 L346,159 L347,159 L348,157 L349,157 L350,157 L351,156 L352,157 L353,157 L354,156 L355,159 L356,159 L357,156 L358,156 L359,158 L360,156 L361,156 L362,159 L363,159 L364,156 L365,158 L366,158 L367,156 L368,159 L369,159 L370,156 L371,157 L372,159 L373,156 L374,157 L375,158 L376,157 L377,157 L378,157 L379,157 L380,156 L381,157 L382,157 L383,157 L384,159 L385,159 L386,157 L387,157 L388,156 L389,156 L390,157 L391,157 L392,156 L393,159 L394,159 L395,156 L396,159 L397,159 L398,154 L399,159 L400,157 L401,156 L402,159 L403,158 L404,156 L405,159 L406,159 L407,156 L408,156 L409,157 L410,156 L411,156 L412,159 L413,159 L414,157 L415,159 L416,157 L417,156 L418,157 L419,159 L420,156 L421,157 L422,159 L423,157 L424,159 L425,157 L426,157 L427,159 L428,157 L429,156 L430,159 L431,157 L432,156 L433,159 L434,159 L435,156 L436,157 L437,159 L438,156 L439,156 L440,159 L441,157 L442,156 L443,158 L444,159 L445,156 L446,157 L447,159 L448,154 L449,157 L450,159 L451,159 L452,157 L453,159 L454,157 L455,157 L456,157 L457,157 L458,156 L459,157 L460,157 L461,159 L462,157 L463,157 L464,157 L465,159 L466,156 L467,156 L468,159 L469,156 L470,157 L471,158 L472,157 L473,156 L474,159 L475,159 L476,156 L477,157 L478,159 L479,156 L480,159 L481,158 L482,156 L483,157 L484,159 L485,156 L486,156 L487,157 L488,157 L489,157 L490,159 L491,157 L492,157 L493,157 L494,156 L495,156 L496,157 L497,156 L498,157 L499,159 L500,157 L501,157 L502,159 L503,159 L504,156 L505,157 L506,156 L507,156 L508,159 L509,159 L510,156 L511,158 L512,159 L513,156 L514,157 L515,159 L516,154 L517,157 L518,158 L519,156 L520,156 L521,159 L522,157 L523,156 L524,159 L525,157 L526,156 L527,159 L528,159 L529,157 L530,159 L531,159 L532,157 L533,157 L534,159 L535,156 L536,157 L537,159 L538,157 L539,159 L540,157 L541,156 L542,159 L543,157 L544,154 L545,159 L546,158 L547,156 L548,159 L549,158 L550,156 L551,156 L552,159 L553,156 L554,156 L555,159 L556,157 L557,156 L558,159 L559,158 L560,156 L561,157 L562,159 L563,156 L564,157 L565,159 L566,157 L567,159 L568,159 L569,157 L570,157 L571,157 L572,156 L573,157 L574,156 L575,157 L576,157 L577,159 L578,156 L579,157 L580,159 L581,156 L582,157 L583,159 L584,156 L585,157 L586,158 L587,159 L588,156 L589,159 L590,159 L591,154 L592,157 L593,159 L594,156 L595,159 L596,158 L597,157 L598,159 L599,159 L600,157 L601,156 L602,157 L603,156 L604,157 L605,159 L606,157 L607,159 L608,159 L609,156 L610,156 L611,159 L612,156 L613,156 L614,158 L615,159 L616,156 L617,159 L618,157 L619,156 L620,159 L621,157 L622,156 L623,156 L624,157 L625,159 L626,156 L627,157 L628,159 L629,157 L630,156 L631,157 L632,157 L633,156 L634,158 L635,159 L636,156 L637,158 L638,159 L639,154 L640,156 L641,159 L642,156 L643,159 L644,158 L645,157 L646,157 L647,159 L648,157 L649,156 L650,157 L651,157 L652,157 L653,159 L654,159 L655,157 L656,157 L657,159 L658,157 L659,156 L660,156 L661,156 L662,159 L663,159 L664,159 L665,158 L666,159 L667,156 L668,159 L669,156 L670,156 L671,159 L672,157 L673,156 L674,159 L675,159 L676,156 L677,156 L678,159 L679,156 L680,156 L681,159 L682,157 L683,156 L684,158 L685,159 L686,156 L687,159 L688,159 L689,156 L690,157 L691,158 L692,157 L693,159 L694,159 L695,157 L696,157 L697,157 L698,157 L699,157 L700,159 L701,157 L702,159 L703,157 L704,157 L705,157 L706,159 L707,154 L708,156 L709,159 L710,156 L711,157 L712,158 L713,157 L714,156 L715,159 L716,159 L717,154 L718,159 L719,159 L720,156 L721,158 L722,159 L723,156 L724,157 L725,159 L726,156 L727,156 L728,157 L729,157 L730,157 L731,159 L732,157 L733,157 L734,157 L735,157 L736,156 L737,157 L738,156 L739,159 L740,159 L741,157 L742,157 L743,159 L744,157 L745,156 L746,159 L747,157 L748,156 L749,158 L750,159 L751,157 L752,159 L753,157 L754,156 L755,157 L756,157 L757,154 L758,157 L759,158 L760,157 L761,156 L762,158 L763,156 L764,156 L765,159 L766,156 L767,156 L768,158 L769,159 L770,156 L771,159 L772,158 L773,156 L774,156 L775,159 L776,156 L777,159 L778,159 L779,157 L780,157 L781,157 L782,157 L783,157 L784,157 L785,156 L786,159 L787,159 L788,157 L789,157 L790,159 L791,156 L792,156 L793,159 L794,154 L795,156 L796,159 L797,159 L798,156 L799,158 L800,158 L801,156 L802,159 L803,159 L804,156 L805,157 L806,159 L807,157 L808,157 L809,159 L810,157 L811,157 L812,157 L813,156 L814,157 L815,157 L816,159 L817,157 L818,157 L819,157 L820,157 L821,157 L822,156 L823,156 L824,159 L825,157 L826,157 L827,158 L828,159 L829,156 L830,159 L831,157 L832,154 L833,159 L834,159 L835,157 L836,159 L837,159 L838,156 L839,156 L840,159 L841,156 L842,156 L843,157 L844,157 L845,157 L846,159 L847,157 L848,156 L849,157 L850,156 L851,156 L852,157 L853,156 L854,157 L855,158 L856,159 L857,157 L858,159 L859,157 L860,154 L861,159 L862,159 L863,156 L864,159 L865,158 L866,156 L867,157 L868,159 L869,156 L870,156 L871,159 L872,157 L873,156 L874,159 L875,157 L876,157 L877,156 L878,156 L879,157 L880,157 L881,156 L882,157 L883,158 L884,159 L885,157 L886,159 L887,157 L888,156 L889,159 L890,159 L891,156 L892,159 L893,158 L894,156 L895,157 L896,159 L897,156 L898,156 L899,157 L900,156 L901,156 L902,158 L903,157 L904,157 L905,159 L906,157 L907,156 L908,157 L909,156 L910,156 L911,157 L912,159 L913,157 L914,159 L915,157 L916,157 L917,159 L918,157 L919,156 L920,159 L921,157 L922,157 L923,159 L924,159 L925,156 L926,157 L927,159 L928,154 L929,156 L930,158 L931,157 L932,157 L933,159 L934,156 L935,156 L936,159 L937,157 L938,156 L939,157 L940,159 L941,157 L942,159 L943,159 L944,156 L945,157 L946,157 L947,156 L948,157 L949,159 L950,159 L951,159 L952,159 L953,157 L954,157 L955,157 L956,156 L957,157 L958,157 L959,156 L960,157 L961,159 L962,156 L963,156 L964,159 L965,156 L966,156 L967,159 L968,157 L969,157 L970,158 L971,159 L972,156 L973,159 L974,157 L975,156 L976,156 L977,159 L978,156 L979,159 L980,158 L981,157 L982,156 L983,159 L984,156 L985,156 L986,157 L987,156 L988,156 L989,159 L990,157 L991,157 L992,157 L993,157 L994,156 L995,157 L996,157 L997,157 L998,159 L999,159 L1000,157 L1001,159 L1002,157 L1003,156 L1004,159 L1005,156 L1006,156 L1007,159 L1008,158 L1009,156 L1010,157 L1011,158 L1012,156 L1013,156 L1014,159 L1015,156 L1016,156 L1017,159 L1018,157 L1019,156 L1020,159 L1021,159 L1022,156 L1023,157 L1024,159 L1025,156 L1026,157 L1027,159 L1028,159 L1029,159 L1030,159 L1031,157 L1032,157 L1033,157 L1034,156 L1035,157 L1036,159 L1037,157 L1038,159 L1039,159 L1040,156 L1041,157 L1042,157 L1043,154 L1044,156 L1045,159 L1046,156 L1047,157 L1048,158 L1049,157 L1050,156 L1051,159 L1052,157 L1053,154 L1054,159 L1055,159 L1056,156 L1057,159 L1058,159 L1059,157 L1060,157 L1061,159 L1062,156 L1063,157 L1064,157 L1065,157 L1066,159 L1067,159 L1068,159 L1069,156 L1070,159 L1071,156 L1072,157 L1073,157 L1074,156 L1075,157 L1076,159 L1077,157 L1078,157 L1079,159 L1080,157 L1081,156 L1082,159 L1083,157 L1084,156 L1085,158 L1086,159 L1087,156 L1088,159 L1089,159 L1090,154 L1091,156 L1092,159 L1093,154 L1094,157 L1095,158 L1096,157 L1097,156 L1098,159 L1099,157 L1100,156 L1101,159 L1102,157 L1103,156 L1104,159 L1105,158 L1106,157 L1107,159 L1108,159 L1109,156 L1110,157 L1111,157 L1112,156 L1113,158 L1114,159 L1115,157 L1116,158 L1117,157 L1118,156 L1119,159 L1120,156 L1121,154 L1122,159 L1123,158 L1124,157 L1125,157 L1126,158 L1127,156 L1128,156 L1129,159 L1130,156 L1131,156 L1132,158 L1133,159 L1134,156 L1135,158 L1136,158 L1137,156 L1138,159 L1139,159 L1140,156 L1141,157 L1142,159 L1143,157 L1144,159 L1145,159 L1146,157 L1147,157 L1148,157 L1149,156 L1150,156 L1151,157 L1152,157 L1153,157 L1154,159 L1155,157 L1156,157 L1157,159 L1158,156 L1159,156 L1160,159 L1161,156 L1162,157 L1163,158 L1164,159 L1165,157 L1166,159 L1167,157 L1168,156 L1169,158 L1170,159 L1171,156 L1172,159 L1173,159 L1174,156 L1175,157 L1176,158 L1177,156 L1178,156 L1179,159 L1180,156 L1181,156 L1182,158 L1183,159 L1184,156 L1185,159 L1186,157 L1187,156 L1188,159 L1189,157 L1190,157 L1191,159 L1192,158 L1193,157 L1194,157 L1195,159 L1196,156 L1197,157 L1198,157 L1199,156 L1200,159 L1201,159 L1202,157 L1203,159 L1204,159 L1205,156 L1206,159 L1207,157 L1208,154 L1209,157 L1210,159 L1211,156 L1212,157 L1213,158 L1214,156 L1215,156 L1216,159 L1217,157 L1218,156 L1219,158 L1220,158 L1221,156 L1222,159 L1223,158 L1224,156 L1225,157 L1226,159 L1227,156 L1228,157 L1229,159 L1230,157 L1231,157 L1232,159 L1233,157 L1234,156 L1235,157 L1236,156 L1237,156 L1238,157 L1239,157 L1240,159 L1241,159 L1242,156 L1243,157 L1244,159 L1245,156 L1246,156 L1247,159 L1248,159 L1249,156 L1250,158 L1251,159 L1252,156 L1253,159 L1254,159 L1255,154 L1256,156 L1257,159 L1258,156 L1259,157 L1260,159 L1261,157 L1262,157 L1263,159 L1264,157 L1265,156 L1266,159 L1267,157 L1268,157 L1269,159 L1270,159 L1271,156 L1272,157 L1273,157 L1274,156 L1275,157 L1276,157 L1277,157 L1278,158 L1279,159 L1280,159 L1281,159 L1282,157 L1283,156 L1284,159 L1285,157 L1286,157 L1287,159 L1288,159 L1289,156 L1290,157 L1291,159 L1292,156 L1293,156 L1294,157 L1295,156 L1296,157 L1297,159 L1298,157 L1299,156 L1300,157 L1301,159 L1302,157 L1303,156 L1304,159 L1305,157 L1306,157 L1307,159 L1308,159 L1309,156 L1310,157 L1311,159 L1312,156 L1313,156 L1314,159 L1315,159 L1316,156 L1317,158 L1318,159 L1319,156 L1320,159 L1321,159 L1322,154 L1323,157 L1324,159 L1325,157 L1326,159 L1327,159 L1328,157 L1329,157 L1330,157 L1331,157 L1332,156 L1333,156 L1334,157 L1335,159 L1336,159 L1337,157 L1338,157 L1339,157 L1340,156 L1341,156 L1342,157 L1343,156 L1344,157 L1345,158 L1346,159 L1347,156 L1348,159 L1349,159 L1350,156 L1351,159 L1352,157 L1353,156 L1354,158 L1355,159 L1356,156 L1357,157 L1358,159 L1359,156 L1360,156 L1361,157 L1362,157 L1363,157 L1364,158 L1365,159 L1366,156 L1367,159 L1368,157 L1369,154 L1370,157 L1371,157 L1372,157 L1373,157 L1374,159 L1375,157 L1376,159 L1377,157 L1378,157 L1379,159 L1380,156 L1381,156 L1382,159 L1383,159 L1384,159 L1385,159 L1386,159 L1387,156 L1388,157 L1389,159 L1390,154 L1391,156 L1392,159 L1393,156 L1394,156 L1395,158 L1396,157 L1397,154 L1398,159 L1399,159 L1400,156 L1401,159 L1402,158 L1403,157 L1404,159 L1405,159 L1406,156 L1407,157 L1408,157 L1409,156 L1410,157 L1411,159 L1412,159 L1413,159 L1414,159 L1415,156 L1416,157 L1417,156 L1418,156 L1419,156 L1420,157 L1421,157 L1422,159 L1423,159 L1424,156 L1425,157 L1426,159 L1427,157 L1428,156 L1429,159 L1430,159 L1431,157 L1432,158 L1433,159 L1434,156 L1435,158 L1436,159 L1437,154 L1438,157 L1439,159 L1440,156 L1441,159 L1442,159 L1443,157 L1444,156 L1445,159 L1446,157 L1447,156 L1448,157 L1449,157 L1450,157 L1451,159 L1452,157 L1453,157 L1454,159 L1455,157 L1456,156 L1457,157 L1458,156 L1459,157 L1460,159 L1461,159 L1462,156 L1463,159 L1464,159 L1465,156 L1466,157 L1467,159 L1468,156 L1469,159 L1470,159 L1471,156 L1472,156 L1473,159 L1474,156 L1475,156 L1476,157 L1477,157 L1478,156 L1479,159 L1480,157 L1481,157 L1482,157 L1483,159 L1484,156 L1485,157 L1486,159 L1487,157 L1488,159 L1489,159 L1490,159 L1491,159 L1492,157 L1493,156 L1494,159 L1495,157 L1496,156 L1497,159 L1498,159 L1499,156 L1500,159 L1501,159 L1502,156 L1503,156 L1504,159 L1505,154 L1506,156 L1507,159 L1508,157 L1509,156 L1510,159 L1511,159 L1512,156 L1513,157 L1514,157 L1515,156 L1516,157 L1517,159 L1518,157 L1519,159 L1520,159 L1521,157 L1522,157 L1523,157 L1524,156 L1525,157 L1526,157 L1527,157 L1528,157 L1529,157 L1530,156 L1531,157 L1532,157 L1533,156 L1534,156 L1535,157 L1536,156 L1537,157 L1538,159 L1539,157 L1540,156 L1541,159 L1542,157 L1543,156 L1544,159 L1545,159 L1546,156 L1547,158 L1548,158 L1549,156 L1550,157 L1551,159 L1552,156 L1553,156 L1554,159 L1555,157 L1556,157 L1557,159 L1558,157 L1559,157 L1560,159 L1561,156 L1562,156 L1563,156 L1564,156 L1565,157 L1566,159 L1567,159 L1568,157 L1569,157 L1570,157 L1571,156 L1572,157 L1573,156 L1574,156 L1575,158 L1576,159 L1577,157 L1578,159 L1579,159 L1580,156 L1581,159 L1582,159 L1583,156 L1584,157 L1585,158 L1586,156 L1587,156 L1588,159 L1589,156 L1590,156 L1591,159 L1592,156 L1593,154 L1594,159 L1595,158 L1596,157 L1597,157 L1598,158 L1599,156 L1600,156 L1601,159 L1602,156 L1603,159 L1604,159 L1605,159 L1606,159 L1607,157 L1608,157 L1609,159 L1610,157 L1611,156 L1612,157 L1613,159 L1614,157 L1615,159 L1616,159 L1617,156 L1618,157 L1619,159 L1620,156 L1621,156 L1622,159 L1623,157 L1624,157 L1625,158 L1626,159 L1627,156 L1628,159 L1629,159 L1630,154 L1631,159 L1632,159 L1633,157 L1634,159 L1635,159 L1636,157 L1637,156 L1638,159 L1639,156 L1640,156 L1641,157 L1642,157 L1643,157 L1644,159 L1645,157 L1646,157 L1647,157 L1648,156 L1649,157 L1650,157 L1651,157 L1652,157 L1653,159 L1654,159 L1655,157 L1656,159 L1657,156 L1658,156 L1659,159 L1660,157 L1661,156 L1662,158 L1663,159 L1664,156 L1665,159 L1666,159 L1667,154 L1668,157 L1669,159 L1670,156 L1671,156 L1672,158 L1673,157 L1674,156 L1675,159 L1676,157 L1677,156 L1678,157 L1679,159 L1680,156 L1681,159 L1682,158 L1683,157 L1684,157 L1685,159 L1686,157 L1687,157 L1688,156 L1689,157 L1690,159 L1691,157 L1692,157 L1693,159 L1694,157 L1695,156 L1696,157 L1697,157 L1698,154 L1699,156 L1700,158 L1701,157 L1702,157 L1703,158 L1704,156 L1705,156 L1706,159 L1707,157 L1708,154 L1709,157 L1710,158 L1711,157 L1712,157 L1713,159 L1714,157 L1715,157 L1716,159 L1717,156 L1718,157 L1719,159 L1720,157 L1721,157 L1722,159 L1723,157 L1724,159 L1725,156 L1726,156 L1727,157 L1728,157 L1729,157 L1730,159 L1731,159 L1732,156 L1733,159 L1734,159 L1735,156 L1736,156 L1737,159 L1738,159 L1739,157 L1740,159 L1741,159 L1742,156 L1743,159 L1744,159 L1745,154 L1746,157 L1747,159 L1748,156 L1749,159 L1750,158 L1751,156 L1752,157 L1753,159 L1754,156 L1755,156 L1756,157 L1757,157 L1758,156 L1759,157 L1760,157 L1761,157 L1762,157 L1763,157 L1764,157 L1765,157 L1766,159 L1767,157 L1768,159 L1769,157 L1770,157 L1771,159 L1772,157 L1773,156 L1774,157 L1775,157 L1776,156 L1777,159 L1778,158 L1779,156 L1780,159 L1781,159 L1782,156 L1783,156 L1784,159 L1785,156 L1786,156 L1787,158 L1788,157 L1789,156 L1790,159 L1791,159 L1792,156 L1793,156 L1794,159 L1795,156 L1796,157 L1797,159 L1798,157 L1799,159 L1800,159 L1801,157 L1802,157 L1803,156 L1804,156 L1805,159 L1806,159 L1807,157 L1808,159 L1809,159 L1810,156 L1811,156 L1812,159 L1813,156 L1814,156 L1815,159 L1816,157 L1817,156 L1818,158 L1819,157 L1820,156 L1821,157 L1822,159 L1823,154 L1824,157 L1825,158 L1826,157 L1827,159 L1828,159 L1829,157 L1830,157 L1831,157 L1832,157 L1833,156 L1834,159 L1835,159 L1836,157 L1837,159 L1838,157 L1839,156 L1840,156 L1841,156 L1842,157 L1843,159 L1844,157 L1845,159 L1846,158 L1847,157 L1848,157 L1849,159 L1850,159 L1851,156 L1852,159 L1853,157 L1854,156 L1855,158 L1856,159 L1857,156 L1858,157 L1859,159 L1860,154 L1861,156 L1862,159 L1863,156 L1864,157 L1865,160 L1866,157 L1867,156 L1868,159 L1869,157 L1870,156 L1871,157 L1872,156 L1873,156 L1874,159 L1875,159 L1876,157 L1877,157 L1878,159 L1879,157 L1880,157 L1881,157 L1882,157 L1883,159 L1884,159 L1885,157 L1886,159 L1887,157 L1888,157 L1889,157 L1890,156 L1891,156 L1892,159 L1893,159 L1894,156 L1895,157 L1896,159 L1897,156 L1898,157 L1899,157 L1900,156 L1901,157 L1902,158 L1903,157 L1904,157 L1905,158 L1906,159 L1907,156 L1908,159 L1909,159 L1910,156 L1911,159 L1912,158 L1913,157 L1914,157 L1915,158 L1916,156 L1917,157 L1918,159 L1919,156 L1920,157 L1921,159 L1922,157 L1923,156 L1924,159 L1925,157 L1926,157 L1927,157 L1928,156 L1929,157 L1930,157 L1931,159 L1932,159 L1933,159 L1934,159 L1935,157 L1936,157 L1937,157 L1938,156 L1939,157 L1940,157 L1941,157 L1942,158 L1943,157 L1944,156 L1945,159 L1946,159 L1947,154 L1948,157 L1949,159 L1950,156 L1951,157 L1952,158 L1953,156 L1954,156 L1955,159 L1956,157 L1957,154 L1958,159 L1959,157 L1960,156 L1961,159 L1962,158 L1963,157 L1964,157 L1965,159 L1966,157 L1967,157 L1968,159 L1969,157 L1970,159 L1971,159 L1972,157 L1973,159 L1974,157 L1975,156 L1976,157 L1977,156 L1978,157 L1979,159 L1980,157 L1981,159 L1982,159 L1983,156 L1984,157 L1985,159 L1986,156 L1987,157 L1988,157 L1989,157 L1990,157 L1991,157 L1992,157 L1993,157 L1994,157 L1995,156 L1996,156 L1997,159 L1998,157 L1999,157 L2000,158 L2001,157 L2002,159 L2003,159 L2004,157 L2005,156 L2006,157 L2007,157 L2008,156 L2009,158 L2010,158 L2011,156 L2012,157 L2013,159 L2014,156 L2015,156 L2016,159 L2017,156 L2018,157 L2019,158 L2020,157 L2021,156 L2022,159 L2023,157 L2024,156 L2025,156 L2026,156 L2027,157 L2028,159 L2029,159 L2030,157 L2031,159 L2032,159 L2033,157 L2034,157 L2035,156 L2036,157 L2037,158 L2038,159 L2039,157 L2040,159 L2041,159 L2042,156 L2043,157 L2044,157 L2045,154 L2046,159 L2047,158 L2048,157 L2049,157 L2050,159 L2051,156 L2052,156 L2053,159 L2054,156 L2055,156 L2056,159 L2057,159 L2058,156 L2059,157 L2060,159 L2061,157 L2062,156 L2063,159 L2064,157 L2065,157 L2066,159 L2067,157 L2068,157 L2069,157 L2070,157 L2071,159 L2072,156 L2073,156 L2074,157 L2075,159 L2076,156 L2077,157 L2078,159 L2079,156 L2080,157 L2081,159 L2082,156 L2083,156 L2084,159 L2085,156 L2086,157 L2087,158 L2088,158 L2089,156 L2090,157 L2091,159 L2092,156 L2093,157 L2094,159 L2095,157 L2096,157 L2097,158 L2098,157 L2099,157 L2100,157 L2101,156 L2102,156 L2103,156 L2104,157 L2105,159 L2106,159 L2107,157 L2108,157 L2109,159 L2110,156 L2111,156 L2112,159 L2113,156 L2114,157 L2115,158 L2116,159 L2117,157 L2118,159 L2119,159 L2120,156 L2121,159 L2122,159 L2123,156 L2124,158 L2125,158 L2126,156 L2127,157 L2128,159 L2129,156 L2130,156 L2131,159 L2132,156 L2133,156 L2134,159 L2135,159 L2136,156 L2137,159 L2138,157 L2139,156 L2140,157 L2141,156 L2142,156 L2143,159 L2144,159 L2145,159 L2146,159 L2147,157 L2148,157 L2149,159 L2150,157 L2151,156 L2152,158 L2153,159 L2154,157 L2155,159 L2156,159 L2157,156 L2158,157 L2159,159 L2160,156 L2161,154 L2162,159 L2163,159 L2164,156 L2165,159 L2166,157 L2167,157 L2168,157 L2169,157 L2170,156 L2171,157 L2172,159 L2173,159 L2174,159 L2175,159 L2176,157 L2177,159 L2178,157 L2179,156 L2180,159 L2181,157 L2182,157 L2183,158 L2184,159 L2185,156 L2186,159 L2187,159 L2188,154 L2189,156 L2190,159 L2191,157 L2192,156 L2193,159 L2194,157 L2195,156 L2196,159 L2197,157 L2198,156 L2199,157 L2200,158 L2201,157 L2202,159 L2203,158 L2204,157 L2205,159 L2206,159 L2207,157 L2208,159 L2209,156 L2210,157 L2211,158 L2212,159 L2213,156 L2214,159 L2215,159 L2216,156 L2217,156 L2218,159 L2219,156 L2220,157 L2221,158 L2222,156 L2223,156 L2224,159 L2225,157 L2226,156 L2227,157 L2228,159 L2229,156 L2230,159 L2231,159 L2232,157 L2233,157 L2234,159 L2235,157 L2236,157 L2237,157 L2238,156 L2239,159 L2240,159 L2241,157 L2242,159 L2243,157 L2244,156 L2245,157 L2246,157 L2247,156 L2248,157 L2249,159 L2250,156 L2251,157 L2252,159 L2253,156 L2254,156 L2255,159 L2256,157 L2257,154 L2258,159 L2259,159 L2260,156 L2261,159 L2262,159 L2263,157 L2264,157 L2265,159 L2266,156 L2267,157 L2268,159 L2269,157 L2270,157 L2271,159 L2272,157 L2273,157 L2274,157 L2275,156 L2276,156 L2277,159 L2278,156 L2279,159 L2280,159 L2281,156 L2282,157 L2283,159 L2284,157 L2285,156 L2286,159 L2287,159 L2288,156 L2289,158 L2290,159 L2291,156 L2292,159 L2293,157 L2294,156 L2295,156 L2296,159 L2297,159 L2298,157 L2299,159 L2300,157 L2301,157 L2302,157 L2303,157 L2304,157 L2305,157 L2306,157 L2307,159 L2308,159 L2309,156 L2310,157 L2311,159 L2312,157 L2313,156 L2314,159 L2315,157 L2316,156 L2317,158 L2318,159 L2319,156 L2320,158 L2321,159 L2322,156 L2323,157 L2324,159 L2325,157 L2326,157 L2327,158 L2328,157 L2329,157 L2330,157 L2331,157 L2332,157 L2333,157 L2334,157 L2335,157 L2336,159 L2337,157 L2338,157 L2339,159 L2340,156 L2341,156 L2342,159 L2343,157 L2344,156 L2345,158 L2346,158 L2347,156 L2348,158 L2349,159 L2350,156 L2351,157 L2352,159 L2353,156 L2354,157 L2355,158 L2356,157 L2357,156 L2358,157 L2359,159 L2360,156 L2361,156 L2362,156 L2363,157 L2364,159 L2365,159 L2366,157 L2367,159 L2368,157 L2369,157 L2370,159 L2371,157 L2372,156 L2373,159 L2374,159 L2375,156 L2376,158 L2377,159 L2378,154 L2379,159 L2380,159 L2381,154 L2382,159 L2383,158 L2384,157 L2385,159 L2386,158 L2387,157 L2388,156 L2389,157 L2390,157 L2391,154 L2392,159 L2393,159 L2394,157 L2395,159 L2396,159 L2397,157 L2398,157 L2399,157 L2400,157 L2401,157 L2402,159 L2403,157 L2404,158 L2405,157 L2406,157 L2407,159 L2408,157 L2409,156 L2410,157 L2411,159 L2412,156 L2413,159 L2414,158 L2415,156 L2416,157 L2417,159 L2418,156 L2419,156 L2420,159 L2421,156 L2422,156 L2423,158 L2424,159 L2425,156 L2426,157 L2427,159 L2428,156 L2429,156 L2430,159 L2431,157 L2432,159 L2433,158 L2434,157 L2435,157 L2436,157 L2437,157 L2438,157 L2439,157 L2440,157 L2441,159 L2442,159 L2443,157 L2444,157 L2445,159 L2446,156 L2447,157 L2448,159 L2449,154 L2450,157 L2451,158 L2452,157 L2453,157 L2454,159 L2455,159 L2456,154 L2457,157 L2458,157 L2459,154 L2460,159 L2461,158 L2462,156 L2463,157 L2464,158 L2465,157 L2466,157 L2467,159 L2468,156 L2469,156 L2470,159 L2471,157 L2472,157 L2473,157 L2474,157 L2475,156 L2476,157 L2477,156 L2478,156 L2479,159 L2480,157 L2481,159 L2482,159 L2483,159 L2484,157 L2485,157 L2486,156 L2487,156 L2488,159 L2489,157 L2490,157 L2491,159 L2492,159 L2493,156 L2494,159 L2495,159 L2496,156 L2497,157 L2498,159 L2499,156 L2500,156 L2501,158 L2502,156 L2503,156 L2504,159 L2505,156 L2506,154 L2507,157 L2508,159 L2509,156 L2510,159 L2511,158 L2512,157 L2513,157 L2514,157 L2515,156 L2516,157 L2517,157 L2518,157 L2519,159 L2520,159 L2521,157 L2522,159 L2523,157 L2524,156 L2525,157 L2526,157 L2527,156 L2528,157 L2529,158 L2530,156 L2531,157 L2532,159 L2533,156 L2534,156 L2535,159 L2536,156 L2537,156 L2538,158 L2539,159 L2540,156 L2541,159 L2542,159 L2543,156 L2544,157 L2545,159 L2546,156 L2547,157 L2548,159 L2549,157 L2550,157 L2551,158 L2552,157 L2553,156 L2554,159 L2555,156 L2556,156 L2557,157 L2558,157 L2559,157 L2560,157 L2561,157 L2562,157 L2563,157 L2564,157 L2565,157 L2566,157 L2567,159 L2568,159 L2569,159 L2570,159 L2571,156 L2572,159 L2573,157 L2574,156 L2575,159 L2576,157 L2577,156 L2578,158 L2579,159 L2580,156 L2581,157 L2582,159 L2583,154 L2584,156 L2585,159 L2586,156 L2587,157 L2588,158 L2589,157 L2590,156 L2591,159 L2592,156 L2593,154 L2594,157 L2595,158 L2596,156 L2597,159 L2598,158 L2599,156 L2600,157 L2601,159 L2602,156 L2603,156 L2604,159 L2605,157 L2606,157 L2607,159 L2608,157 L2609,157 L2610,157 L2611,156 L2612,156 L2613,156 L2614,156 L2615,157 L2616,159 L2617,157 L2618,157 L2619,159 L2620,156 L2621,156 L2622,157 L2623,157 L2624,156 L2625,158 L2626,159 L2627,156 L2628,159 L2629,159 L2630,156 L2631,157 L2632,159 L2633,154 L2634,158 L2635,158 L2636,156 L2637,157 L2638,159 L2639,156 L2640,156 L2641,159 L2642,156 L2643,156 L2644,159 L2645,159 L2646,156 L2647,159 L2648,157 L2649,156 L2650,157 L2651,159 L2652,156 L2653,157 L2654,159 L2655,157 L2656,156 L2657,156 L2658,159 L2659,157 L2660,154 L2661,157 L2662,157 L2663,156 L2664,159 L2665,158 L2666,156 L2667,157 L2668,159 L2669,156 L2670,157 L2671,157 L2672,157 L2673,157 L2674,159 L2675,157 L2676,159 L2677,157 L2678,157 L2679,157 L2680,156 L2681,156 L2682,157 L2683,159 L2684,157 L2685,159 L2686,159 L2687,156 L2688,156 L2689,159 L2690,154 L2691,156 L2692,159 L2693,158 L2694,156 L2695,159 L2696,157 L2697,156 L2698,159 L2699,159 L2700,156 L2701,157 L2702,159 L2703,156 L2704,157 L2705,158 L2706,156 L2707,156 L2708,157 L2709,156 L2710,154 L2711,159 L2712,159 L2713,157 L2714,157 L2715,159 L2716,157 L2717,157 L2718,157 L2719,156 L2720,157 L2721,159 L2722,157 L2723,159 L2724,157 L2725,157 L2726,159 L2727,157 L2728,156 L2729,159 L2730,157 L2731,156 L2732,159 L2733,159 L2734,156 L2735,159 L2736,159 L2737,156 L2738,156 L2739,159 L2740,156 L2741,156 L2742,158 L2743,157 L2744,156 L2745,159 L2746,157 L2747,156 L2748,157 L2749,158 L2750,156 L2751,159 L2752,158 L2753,157 L2754,157 L2755,159 L2756,156 L2757,156 L2758,157 L2759,157 L2760,159 L2761,159 L2762,157 L2763,159 L2764,157 L2765,156 L2766,157 L2767,159 L2768,156 L2769,157 L2770,159 L2771,156 L2772,157 L2773,158 L2774,157 L2775,156 L2776,159 L2777,159 L2778,156 L2779,159 L2780,158 L2781,157 L2782,159 L2783,159 L2784,156 L2785,157 L2786,159 L2787,156 L2788,156 L2789,159 L2790,157 L2791,157 L2792,159 L2793,157 L2794,156 L2795,157 L2796,157 L2797,156 L2798,157 L2799,157 L2800,157 L2801,159 L2802,157 L2803,157 L2804,157 L2805,159 L2806,157 L2807,157 L2808,159 L2809,157 L2810,158 L2811,159 L2812,156 L2813,159 L2814,157 L2815,156 L2816,159 L2817,159 L2818,156 L2819,159 L2820,159 L2821,154 L2822,156 L2823,159 L2824,156 L2825,154 L2826,159 L2827,157 L2828,157 L2829,159 L2830,157 L2831,156 L2832,157 L2833,159 L2834,156 L2835,156 L2836,159 L2837,157 L2838,159 L2839,159 L2840,159 L2841,157 L2842,157 L2843,156 L2844,159 L2845,157 L2846,157 L2847,159 L2848,159 L2849,157 L2850,157 L2851,157 L2852,156 L2853,156 L2854,157 L2855,154 L2856,157 L2857,158 L2858,156 L2859,157 L2860,159 L2861,159 L2862,156 L2863,157 L2864,159 L2865,156 L2866,158 L2867,158 L2868,156 L2869,159 L2870,159 L2871,156 L2872,156 L2873,159 L2874,156 L2875,157 L2876,159 L2877,159 L2878,156 L2879,159 L2880,157 L2881,156 L2882,157 L2883,156 L2884,157 L2885,157 L2886,159 L2887,157 L2888,157 L2889,158 L2890,156 L2891,156 L2892,156 L2893,156 L2894,159 L2895,157 L2896,159 L2897,158 L2898,159 L2899,156 L2900,159 L2901,157 L2902,154 L2903,157 L2904,159 L2905,156 L2906,157 L2907,159 L2908,156 L2909,156 L2910,159 L2911,156 L2912,156 L2913,159 L2914,159 L2915,156 L2916,159 L2917,158 L2918,156 L2919,157 L2920,159 L2921,156 L2922,157 L2923,159 L2924,157 L2925,159 L2926,159 L2927,157 L2928,157 L2929,159 L2930,157 L2931,157 L2932,157 L2933,157 L2934,159 L2935,159 L2936,157 L2937,157 L2938,157 L2939,156 L2940,156 L2941,157 L2942,156 L2943,157 L2944,158 L2945,159 L2946,157 L2947,159 L2948,157 L2949,156 L2950,159 L2951,157 L2952,156 L2953,158 L2954,158 L2955,156 L2956,159 L2957,159 L2958,156 L2959,156 L2960,157 L2961,156 L2962,156 L2963,158 L2964,159 L2965,156 L2966,159 L2967,157 L2968,156 L2969,157 L2970,157 L2971,156 L2972,157 L2973,158 L2974,157 L2975,157 L2976,157 L2977,157 L2978,159 L2979,156 L2980,156 L2981,159 L2982,159 L2983,157 L2984,158 L2985,157 L2986,156 L2987,159 L2988,157 L2989,156 L2990,157 L2991,158 L2992,157 L2993,157 L2994,159 L2995,157 L2996,156 L2997,159 L2998,156 L2999,156 L3000,159 L3001,158 L3002,157 L3003,159 L3004,159 L3005,156 L3006,157 L3007,159 L3008,156 L3009,157 L3010,159 L3011,159 L3012,157 L3013,159 L3014,157 L3015,159 L3016,157 L3017,156 L3018,156 L3019,157 L3020,157 L3021,157 L3022,159 L3023,157 L3024,157 L3025,159 L3026,156 L3027,156 L3028,159 L3029,157 L3030,157 L3031,158 L3032,159 L3033,156 L3034,159 L3035,157 L3036,156 L3037,159 L3038,157 L3039,156 L3040,159 L3041,159 L3042,156 L3043,157 L3044,159 L3045,156 L3046,154 L3047,159 L3048,157 L3049,156 L3050,158 L3051,159 L3052,156 L3053,159 L3054,157 L3055,156 L3056,156 L3057,159 L3058,157 L3059,157 L3060,159 L3061,159 L3062,159 L3063,159 L3064,157 L3065,159 L3066,157 L3067,157 L3068,159 L3069,159 L3070,157 L3071,159 L3072,157 L3073,156 L3074,157 L3075,157 L3076,156 L3077,156 L3078,158 L3079,157 L3080,157 L3081,158 L3082,156 L3083,156 L3084,159 L3085,159 L3086,154 L3087,159 L3088,159 L3089,156 L3090,159 L3091,159 L3092,156 L3093,157 L3094,159 L3095,156 L3096,157 L3097,157 L3098,159 L3099,157 L3100,159 L3101,157 L3102,156 L3103,157 L3104,157 L3105,156 L3106,157 L3107,157 L3108,159 L3109,159 L3110,156 L3111,157 L3112,159 L3113,159 L3114,156 L3115,159 L3116,157 L3117,157 L3118,158 L3119,159 L3120,156 L3121,159 L3122,159 L3123,154 L3124,157 L3125,159 L3126,157 L3127,157 L3128,158 L3129,157 L3130,156 L3131,159 L3132,157 L3133,154 L3134,159 L3135,157 L3136,157 L3137,159 L3138,157 L3139,157 L3140,157 L3141,159 L3142,156 L3143,156 L3144,156 L3145,157 L3146,158 L3147,159 L3148,156 L3149,159 L3150,157 L3151,156 L3152,157 L3153,156 L3154,156 L3155,159 L3156,158 L3157,156 L3158,157 L3159,159 L3160,154 L3161,156 L3162,159 L3163,156 L3164,156 L3165,158 L3166,159 L3167,156 L3168,159 L3169,158 L3170,156 L3171,157 L3172,159 L3173,156 L3174,159 L3175,158 L3176,157 L3177,156 L3178,159 L3179,156 L3180,156 L3181,157 L3182,156 L3183,157 L3184,159 L3185,157 L3186,157 L3187,157 L3188,157 L3189,157 L3190,156 L3191,154 L3192,156 L3193,159 L3194,157 L3195,159 L3196,158 L3197,159 L3198,157 L3199,159 L3200,157 L3201,156 L3202,159 L3203,159 L3204,157 L3205,158 L3206,159 L3207,156 L3208,157 L3209,159 L3210,156 L3211,156 L3212,159 L3213,156 L3214,156 L3215,159 L3216,157 L3217,156 L3218,159 L3219,157 L3220,156 L3221,157 L3222,159 L3223,157 L3224,159 L3225,159 L3226,157 L3227,157 L3228,157 L3229,156 L3230,157 L3231,157 L3232,157 L3233,158 L3234,157 L3235,157 L3236,159 L3237,157 L3238,156 L3239,157 L3240,157 L3241,154 L3242,157 L3243,158 L3244,156 L3245,156 L3246,158 L3247,156 L3248,156 L3249,159 L3250,157 L3251,156 L3252,158 L3253,158 L3254,156 L3255,159 L3256,159 L3257,156 L3258,156 L3259,159 L3260,156 L3261,157 L3262,159 L3263,157 L3264,159 L3265,159 L3266,157 L3267,157 L3268,157 L3269,157 L3270,157 L3271,159 L3272,157 L3273,157 L3274,159 L3275,156 L3276,157 L3277,159 L3278,156 L3279,156 L3280,159 L3281,159 L3282,157 L3283,158 L3284,159 L3285,156 L3286,157 L3287,157 L3288,156 L3289,157 L3290,158 L3291,157 L3292,157 L3293,159 L3294,157 L3295,156 L3296,159 L3297,156 L3298,156 L3299,159 L3300,159 L3301,156 L3302,159 L3303,157 L3304,157 L3305,157 L3306,157 L3307,156 L3308,157 L3309,159 L3310,157 L3311,159 L3312,157 L3313,156 L3314,159 L3315,157 L3316,156 L3317,159 L3318,157 L3319,157 L3320,158 L3321,159 L3322,156 L3323,157 L3324,159 L3325,156 L3326,156 L3327,159 L3328,156 L3329,156 L3330,158 L3331,157 L3332,156 L3333,157 L3334,159 L3335,157 L3336,154 L3337,156 L3338,159 L3339,156 L3340,157 L3341,159 L3342,157 L3343,156 L3344,159 L3345,156 L3346,156 L3347,159 L3348,159 L3349,157 L3350,159 L3351,158 L3352,157 L3353,157 L3354,159 L3355,156 L3356,157 L3357,157 L3358,157 L3359,159 L3360,157 L3361,157 L3362,159 L3363,157 L3364,156 L3365,157 L3366,157 L3367,156 L3368,159 L3369,159 L3370,156 L3371,157 L3372,159 L3373,156 L3374,156 L3375,159 L3376,157 L3377,156 L3378,158 L3379,158 L3380,156 L3381,157 L3382,159 L3383,156 L3384,157 L3385,159 L3386,156 L3387,157 L3388,159 L3389,157 L3390,157 L3391,159 L3392,156 L3393,156 L3394,156 L3395,156 L3396,157 L3397,157 L3398,159 L3399,157 L3400,157 L3401,157 L3402,157 L3403,157 L3404,157 L3405,156 L3406,159 L3407,159 L3408,157 L3409,159 L3410,157 L3411,156 L3412,159 L3413,157 L3414,156 L3415,159 L3416,159 L3417,157 L3418,159 L3419,159 L3420,154 L3421,157 L3422,159 L3423,154 L3424,156 L3425,158 L3426,157 L3427,157 L3428,159 L3429,159 L3430,156 L3431,159 L3432,157 L3433,154 L3434,157 L3435,158 L3436,156 L3437,157 L3438,158 L3439,157 L3440,157 L3441,157 L3442,156 L3443,156 L3444,157 L3445,157 L3446,159 L3447,159 L3448,157 L3449,157 L3450,157 L3451,156 L3452,156 L3453,156 L3454,156 L3455,157 L3456,159 L3457,156 L3458,157 L3459,159 L3460,156 L3461,156 L3462,159 L3463,159 L3464,156 L3465,158 L3466,158 L3467,156 L3468,159 L3469,159 L3470,156 L3471,157 L3472,159 L3473,156 L3474,157 L3475,158 L3476,157 L3477,157 L3478,157 L3479,156 L3480,156 L3481,157 L3482,157 L3483,157 L3484,159 L3485,159 L3486,157 L3487,159 L3488,156 L3489,157 L3490,157 L3491,156 L3492,156 L3493,159 L3494,159 L3495,157 L3496,158 L3497,159 L3498,156 L3499,159 L3500,159 L3501,154 L3502,159 L3503,158 L3504,156 L3505,157 L3506,159 L3507,157 L3508,156 L3509,159 L3510,157 L3511,156 L3512,157 L3513,157 L3514,156 L3515,159 L3516,159 L3517,157 L3518,156 L3519,159 L3520,156 L3521,157 L3522,159 L3523,159 L3524,159 L3525,157 L3526,156 L3527,159 L3528,157 L3529,156 L3530,159 L3531,157 L3532,157 L3533,158 L3534,159 L3535,156 L3536,156 L3537,159 L3538,154 L3539,156 L3540,159 L3541,156 L3542,156 L3543,158 L3544,157 L3545,156 L3546,159 L3547,159 L3548,154 L3549,157 L3550,159 L3551,156 L3552,158 L3553,159 L3554,156 L3555,157 L3556,157 L3557,157 L3558,156 L3559,157 L3560,157 L3561,157 L3562,159 L3563,157 L3564,157 L3565,157 L3566,157 L3567,156 L3568,156 L3569,156 L3570,157 L3571,159 L3572,157 L3573,157 L3574,159 L3575,157 L3576,156 L3577,157 L3578,157 L3579,156 L3580,158 L3581,159 L3582,156 L3583,159 L3584,159 L3585,156 L3586,157 L3587,159 L3588,156 L3589,157 L3590,158 L3591,157 L3592,156 L3593,159 L3594,157 L3595,156 L3596,157 L3597,157 L3598,156 L3599,159 L3600,159 L3601,157 L3602,159 L3603,158 L3604,156 L3605,156 L3606,159 L3607,156 L3608,159 L3609,159 L3610,157 L3611,159 L3612,157 L3613,157 L3614,157 L3615,156 L3616,156 L3617,157 L3618,157 L3619,157 L3620,159 L3621,157 L3622,156 L3623,157 L3624,159 L3625,154 L3626,156 L3627,159 L3628,156 L3629,157 L3630,158 L3631,159 L3632,156 L3633,159 L3634,159 L3635,156 L3636,157 L3637,159 L3638,156 L3639,159 L3640,159 L3641,157 L3642,156 L3643,159 L3644,156 L3645,156 L3646,157 L3647,159 L3648,157 L3649,159 L3650,159 L3651,157 L3652,157 L3653,157 L3654,156 L3655,157 L3656,156 L3657,157 L3658,159 L3659,159 L3660,156 L3661,157 L3662,157 L3663,156 L3664,159 L3665,156 L3666,156 L3667,158 L3668,159 L3669,157 L3670,159 L3671,157 L3672,156 L3673,157 L3674,157 L3675,156 L3676,157 L3677,158 L3678,157 L3679,156 L3680,158 L3681,156 L3682,156 L3683,159 L3684,156 L3685,156 L3686,159 L3687,158 L3688,156 L3689,159 L3690,159 L3691,156 L3692,157 L3693,157 L3694,156 L3695,157 L3696,159 L3697,159 L3698,159 L3699,159 L3700,157 L3701,156 L3702,157 L3703,156 L3704,156 L3705,159 L3706,159 L3707,159 L3708,159 L3709,156 L3710,157 L3711,157 L3712,156 L3713,157 L3714,159 L3715,159 L3716,157 L3717,159 L3718,157 L3719,156 L3720,159 L3721,157 L3722,154 L3723,159 L3724,159 L3725,156 L3726,158 L3727,158 L3728,156 L3729,157 L3730,159 L3731,156 L3732,156 L3733,159 L3734,157 L3735,156 L3736,158 L3737,157 L3738,156 L3739,157 L3740,156 L3741,156 L3742,156 L3743,159 L3744,157 L3745,159 L3746,157 L3747,157 L3748,159 L3749,157 L3750,156 L3751,159 L3752,157 L3753,156 L3754,159 L3755,159 L3756,156 L3757,159 L3758,159 L3759,156 L3760,154 L3761,159 L3762,157 L3763,156 L3764,159 L3765,159 L3766,156 L3767,159 L3768,157 L3769,156 L3770,157 L3771,159 L3772,156 L3773,159 L3774,159 L3775,157 L3776,159 L3777,157 L3778,157 L3779,159 L3780,156 L3781,156 L3782,159 L3783,159 L3784,157 L3785,159 L3786,159 L3787,156 L3788,157 L3789,157 L3790,154 L3791,156 L3792,159 L3793,157 L3794,156 L3795,158 L3796,159 L3797,156 L3798,157 L3799,159 L3800,156 L3801,159 L3802,158 L3803,157 L3804,157 L3805,159 L3806,157 L3807,157 L3808,157 L3809,156 L3810,157 L3811,157 L3812,157 L3813,159 L3814,157 L3815,157 L3816,157 L3817,157 L3818,156 L3819,156 L3820,157 L3821,157 L3822,159 L3823,158 L3824,156 L3825,157 L3826,159 L3827,159 L3828,156 L3829,159 L3830,159 L3831,156 L3832,158 L3833,158 L3834,156 L3835,159 L3836,159 L3837,156 L3838,156 L3839,159 L3840,156 L3841,157 L3842,158 L3843,156 L3844,156 L3845,159 L3846,157 L3847,156 L3848,156 L3849,157 L3850,157 L3851,159 L3852,159 L3853,157 L3854,157 L3855,159 L3856,157 L3857,157 L3858,156 L3859,157 L3860,158 L3861,159 L3862,157 L3863,158 L3864,157 L3865,156 L3866,157 L3867,157 L3868,154 L3869,159 L3870,159 L3871,156 L3872,157 L3873,159 L3874,156 L3875,156 L3876,159 L3877,156 L3878,156 L3879,159 L3880,159 L3881,156 L3882,159 L3883,158 L3884,156 L3885,157 L3886,157 L3887,156 L3888,159 L3889,158 L3890,157 L3891,159 L3892,159 L3893,157 L3894,157 L3895,157 L3896,156 L3897,157 L3898,157 L3899,159 L3900,157 L3901,157 L3902,157 L3903,157 L3904,157 L3905,156 L3906,157 L3907,157 L3908,156 L3909,159 L3910,159 L3911,159 L3912,157 L3913,159 L3914,157 L3915,156 L3916,159 L3917,159 L3918,157 L3919,158 L3920,159 L3921,156 L3922,159 L3923,159 L3924,156 L3925,157 L3926,159 L3927,157 L3928,156 L3929,158 L3930,157 L3931,156 L3932,159 L3933,156 L3934,154 L3935,159 L3936,156 L3937,156 L3938,159 L3939,158 L3940,156 L3941,157 L3942,159 L3943,157 L3944,157 L3945,159 L3946,157 L3947,159 L3948,159 L3949,157 L3950,159 L3951,157 L3952,157 L3953,157 L3954,157 L3955,156 L3956,157 L3957,159 L3958,156 L3959,157 L3960,159 L3961,156 L3962,156 L3963,159 L3964,156 L3965,157 L3966,158 L3967,159 L3968,157 L3969,159 L3970,157 L3971,156 L3972,157 L3973,157 L3974,154 L3975,159 L3976,158 L3977,156 L3978,157 L3979,159 L3980,156 L3981,156 L3982,159 L3983,156 L3984,156 L3985,159 L3986,159 L3987,156 L3988,159 L3989,157 L3990,156 L3991,156 L3992,156 L3993,156 L3994,157 L3995,159 L3996,157 L3997,159 L3998,159 L3999,156 L4000,157 L4001,157 L4002,156 L4003,157 L4004,157 L4005,157 L4006,158 L4007,159 L4008,156 L4009,159 L4010,159 L4011,154 L4012,157 L4013,157 L4014,159 L4015,158 L4016,159 L4017,159 L4018,157 L4019,157 L4020,157 L4021,156 L4022,156 L4023,159 L4024,157 L4025,159 L4026,157 L4027,159 L4028,156 L4029,157 L4030,159 L4031,154 L4032,156 L4033,159 L4034,157 L4035,157 L4036,159 L4037,159 L4038,156 L4039,157 L4040,157 L4041,154 L4042,157 L4043,159 L4044,157 L4045,157 L4046,159 L4047,157 L4048,157 L4049,159 L4050,156 L4051,156 L4052,157 L4053,157 L4054,157 L4055,157 L4056,157 L4057,157 L4058,157 L4059,156 L4060,156 L4061,159 L4062,156 L4063,157 L4064,159 L4065,159 L4066,157 L4067,159 L4068,157 L4069,156 L4070,159 L4071,157 L4072,156 L4073,158 L4074,158 L4075,156 L4076,157 L4077,159 L4078,156 L4079,156 L4080,159 L4081,156 L4082,156 L4083,158 L4084,157 L4085,156 L4086,159 L4087,157 L4088,156 L4089,156 L4090,156 L4091,156 L4092,159 L4093,159 L4094,157 L4095,159 "/>
<text font-family="Arial" x="638" y="230" fill="yellow" font-size="20" text-anchor="end" id="CH1s">CH1: 500mV/div (1 x) 500us/div</text>
<text font-family="Arial" x="2" y="230" fill="yellow" font-size="20" text-anchor="start" id="CH1"> </text>
<text font-family="Arial" x="638" y="250" fill="cyan" font-size="20" text-anchor="end" id="CH2s">CH2: 50mV/div (10 x) 500us/div</text>
<text font-family="Arial" x="2" y="250" fill="cyan" font-size="20" text-anchor="start" id="CH2"> </text>
<script type="text/ecmascript"><![CDATA[
function init(evt) { if ( window.svgDocument == null ) svgDocument = evt.target.ownerDocument; }
function fmtT(val, div) {
 if (div > 100) return Math.floor(val*div/32) + " ms";
if (div > 0.025) return Math.floor(val*div*1000/32)/1000 + " ms";
 return Math.floor(val*div*1000*1000/32)/1000 + " us";
}
function fmtU(val, div, shift) { return Math.floor((shift-val)*div/32) + " mV"; }
function msMove (evt)
{
	var x = evt.clientX;
	var y = evt.clientY;
	if (x < 0 || y < 0 || x >= 4096 || y >= 256)
		return;
	var hscroll = (document.all ? document.scrollLeft : window.pageXOffset);
	var width = window.innerWidth;

	svgDocument.getElementById("CH1").setAttribute("x", hscroll+20);
	svgDocument.getElementById("CH2").setAttribute("x", hscroll+20);
	svgDocument.getElementById("CH1s").setAttribute("x", hscroll+width-20);
	svgDocument.getElementById("CH2s").setAttribute("x", hscroll+width-20);

	svgDocument.getElementById("CH1").firstChild.data = "CH1: "+fmtU(y, 500.000, 164) + " " + fmtT(x, 0.500);
	svgDocument.getElementById("CH2").firstChild.data = "CH2: "+fmtU(y, 500.000, 155) + " " + fmtT(x, 0.500);
}
]]></script>
</svg>
